<svg width="1440" height="1308" viewBox="0 0 1440 1308" fill="none" xmlns="http://www.w3.org/2000/svg">
<rect width="1440" height="1308" fill="url(#paint0_linear_0_1)"/>
<path d="M1292.33 294.5C1292.33 295.973 1293.53 297.167 1295 297.167C1296.47 297.167 1297.67 295.973 1297.67 294.5C1297.67 293.027 1296.47 291.833 1295 291.833C1293.53 291.833 1292.33 293.027 1292.33 294.5ZM1367.5 294.5H1368C1368 294.224 1367.78 294 1367.5 294V294.5ZM1367.5 565V565.5C1367.78 565.5 1368 565.276 1368 565H1367.5ZM896 565V564.5C895.724 564.5 895.5 564.724 895.5 565H896ZM896 628V628.5C896.276 628.5 896.5 628.276 896.5 628H896ZM535.5 628H535C535 628.276 535.224 628.5 535.5 628.5V628ZM535.5 565H536C536 564.724 535.776 564.5 535.5 564.5V565ZM69 565H68.5C68.5 565.276 68.7239 565.5 69 565.5V565ZM69 294.5V294C68.7239 294 68.5 294.224 68.5 294.5H69ZM148.333 294.5C148.333 295.973 149.527 297.167 151 297.167C152.473 297.167 153.667 295.973 153.667 294.5C153.667 293.027 152.473 291.833 151 291.833C149.527 291.833 148.333 293.027 148.333 294.5ZM724.25 712.5V713C724.526 713 724.75 712.776 724.75 712.5H724.25ZM69 712.5V712C68.7239 712 68.5 712.224 68.5 712.5H69ZM69 770.5H68.5C68.5 770.776 68.7239 771 69 771V770.5ZM109.833 770.5C109.833 771.973 111.027 773.167 112.5 773.167C113.973 773.167 115.167 771.973 115.167 770.5C115.167 769.027 113.973 767.833 112.5 767.833C111.027 767.833 109.833 769.027 109.833 770.5ZM724.25 628.5H725.249V627.5H724.25V628.5ZM727.246 628.5H729.243V627.5H727.246V628.5ZM731.24 628.5H733.237V627.5H731.24V628.5ZM735.234 628.5H737.231V627.5H735.234V628.5ZM739.228 628.5H741.225V627.5H739.228V628.5ZM743.222 628.5H745.219V627.5H743.222V628.5ZM747.217 628.5H749.214V627.5H747.217V628.5ZM751.211 628.5H753.208V627.5H751.211V628.5ZM755.205 628.5H757.202V627.5H755.205V628.5ZM759.199 628.5H761.196V627.5H759.199V628.5ZM763.193 628.5H765.19V627.5H763.193V628.5ZM767.188 628.5H769.185V627.5H767.188V628.5ZM771.182 628.5H773.179V627.5H771.182V628.5ZM775.176 628.5H777.173V627.5H775.176V628.5ZM779.17 628.5H781.167V627.5H779.17V628.5ZM783.164 628.5H785.161V627.5H783.164V628.5ZM787.158 628.5H789.156V627.5H787.158V628.5ZM791.153 628.5H793.15V627.5H791.153V628.5ZM795.147 628.5H797.144V627.5H795.147V628.5ZM799.141 628.5H801.138V627.5H799.141V628.5ZM803.135 628.5H805.132V627.5H803.135V628.5ZM807.129 628.5H809.126V627.5H807.129V628.5ZM811.124 628.5H813.121V627.5H811.124V628.5ZM815.118 628.5H817.115V627.5H815.118V628.5ZM819.112 628.5H821.109V627.5H819.112V628.5ZM823.106 628.5H825.103V627.5H823.106V628.5ZM827.1 628.5H829.097V627.5H827.1V628.5ZM831.094 628.5H833.092V627.5H831.094V628.5ZM835.089 628.5H837.086V627.5H835.089V628.5ZM839.083 628.5H841.08V627.5H839.083V628.5ZM843.077 628.5H845.074V627.5H843.077V628.5ZM847.071 628.5H849.068V627.5H847.071V628.5ZM851.065 628.5H853.062V627.5H851.065V628.5ZM855.06 628.5H857.057V627.5H855.06V628.5ZM859.054 628.5H861.051V627.5H859.054V628.5ZM863.048 628.5H865.045V627.5H863.048V628.5ZM867.042 628.5H869.039V627.5H867.042V628.5ZM871.036 628.5H873.033V627.5H871.036V628.5ZM875.03 628.5H877.028V627.5H875.03V628.5ZM879.025 628.5H881.022V627.5H879.025V628.5ZM883.019 628.5H885.016V627.5H883.019V628.5ZM887.013 628.5H889.01V627.5H887.013V628.5ZM891.007 628.5H893.004V627.5H891.007V628.5ZM895.001 628.5H896V627.5H895.001V628.5ZM896.5 628V627.016H895.5V628H896.5ZM896.5 625.047V623.078H895.5V625.047H896.5ZM896.5 621.109V619.141H895.5V621.109H896.5ZM896.5 617.172V615.203H895.5V617.172H896.5ZM896.5 613.234V611.266H895.5V613.234H896.5ZM896.5 609.297V607.328H895.5V609.297H896.5ZM896.5 605.359V603.391H895.5V605.359H896.5ZM896.5 601.422V599.453H895.5V601.422H896.5ZM896.5 597.484V595.516H895.5V597.484H896.5ZM896.5 593.547V591.578H895.5V593.547H896.5ZM896.5 589.609V587.641H895.5V589.609H896.5ZM896.5 585.672V583.703H895.5V585.672H896.5ZM896.5 581.734V579.766H895.5V581.734H896.5ZM896.5 577.797V575.828H895.5V577.797H896.5ZM896.5 573.859V571.891H895.5V573.859H896.5ZM896.5 569.922V567.953H895.5V569.922H896.5ZM896.5 565.984V565H895.5V565.984H896.5ZM896 565.5H896.999V564.5H896V565.5ZM898.997 565.5H900.995V564.5H898.997V565.5ZM902.993 565.5H904.99V564.5H902.993V565.5ZM906.988 565.5H908.986V564.5H906.988V565.5ZM910.984 565.5H912.982V564.5H910.984V565.5ZM914.98 565.5H916.978V564.5H914.98V565.5ZM918.976 565.5H920.974V564.5H918.976V565.5ZM922.971 565.5H924.969V564.5H922.971V565.5ZM926.967 565.5H928.965V564.5H926.967V565.5ZM930.963 565.5H932.961V564.5H930.963V565.5ZM934.959 565.5H936.957V564.5H934.959V565.5ZM938.954 565.5H940.952V564.5H938.954V565.5ZM942.95 565.5H944.948V564.5H942.95V565.5ZM946.946 565.5H948.944V564.5H946.946V565.5ZM950.942 565.5H952.94V564.5H950.942V565.5ZM954.938 565.5H956.935V564.5H954.938V565.5ZM958.933 565.5H960.931V564.5H958.933V565.5ZM962.929 565.5H964.927V564.5H962.929V565.5ZM966.925 565.5H968.923V564.5H966.925V565.5ZM970.921 565.5H972.918V564.5H970.921V565.5ZM974.916 565.5H976.914V564.5H974.916V565.5ZM978.912 565.5H980.91V564.5H978.912V565.5ZM982.908 565.5H984.906V564.5H982.908V565.5ZM986.904 565.5H988.901V564.5H986.904V565.5ZM990.899 565.5H992.897V564.5H990.899V565.5ZM994.895 565.5H996.893V564.5H994.895V565.5ZM998.891 565.5H1000.89V564.5H998.891V565.5ZM1002.89 565.5H1004.88V564.5H1002.89V565.5ZM1006.88 565.5H1008.88V564.5H1006.88V565.5ZM1010.88 565.5H1012.88V564.5H1010.88V565.5ZM1014.87 565.5H1016.87V564.5H1014.87V565.5ZM1018.87 565.5H1020.87V564.5H1018.87V565.5ZM1022.87 565.5H1024.86V564.5H1022.87V565.5ZM1026.86 565.5H1028.86V564.5H1026.86V565.5ZM1030.86 565.5H1032.85V564.5H1030.86V565.5ZM1034.85 565.5H1036.85V564.5H1034.85V565.5ZM1038.85 565.5H1040.85V564.5H1038.85V565.5ZM1042.84 565.5H1044.84V564.5H1042.84V565.5ZM1046.84 565.5H1048.84V564.5H1046.84V565.5ZM1050.84 565.5H1052.83V564.5H1050.84V565.5ZM1054.83 565.5H1056.83V564.5H1054.83V565.5ZM1058.83 565.5H1060.83V564.5H1058.83V565.5ZM1062.82 565.5H1064.82V564.5H1062.82V565.5ZM1066.82 565.5H1068.82V564.5H1066.82V565.5ZM1070.81 565.5H1072.81V564.5H1070.81V565.5ZM1074.81 565.5H1076.81V564.5H1074.81V565.5ZM1078.81 565.5H1080.8V564.5H1078.81V565.5ZM1082.8 565.5H1084.8V564.5H1082.8V565.5ZM1086.8 565.5H1088.8V564.5H1086.8V565.5ZM1090.79 565.5H1092.79V564.5H1090.79V565.5ZM1094.79 565.5H1096.79V564.5H1094.79V565.5ZM1098.78 565.5H1100.78V564.5H1098.78V565.5ZM1102.78 565.5H1104.78V564.5H1102.78V565.5ZM1106.78 565.5H1108.77V564.5H1106.78V565.5ZM1110.77 565.5H1112.77V564.5H1110.77V565.5ZM1114.77 565.5H1116.77V564.5H1114.77V565.5ZM1118.76 565.5H1120.76V564.5H1118.76V565.5ZM1122.76 565.5H1124.76V564.5H1122.76V565.5ZM1126.76 565.5H1128.75V564.5H1126.76V565.5ZM1130.75 565.5H1132.75V564.5H1130.75V565.5ZM1134.75 565.5H1136.74V564.5H1134.75V565.5ZM1138.74 565.5H1140.74V564.5H1138.74V565.5ZM1142.74 565.5H1144.74V564.5H1142.74V565.5ZM1146.73 565.5H1148.73V564.5H1146.73V565.5ZM1150.73 565.5H1152.73V564.5H1150.73V565.5ZM1154.73 565.5H1156.72V564.5H1154.73V565.5ZM1158.72 565.5H1160.72V564.5H1158.72V565.5ZM1162.72 565.5H1164.71V564.5H1162.72V565.5ZM1166.71 565.5H1168.71V564.5H1166.71V565.5ZM1170.71 565.5H1172.71V564.5H1170.71V565.5ZM1174.7 565.5H1176.7V564.5H1174.7V565.5ZM1178.7 565.5H1180.7V564.5H1178.7V565.5ZM1182.7 565.5H1184.69V564.5H1182.7V565.5ZM1186.69 565.5H1188.69V564.5H1186.69V565.5ZM1190.69 565.5H1192.69V564.5H1190.69V565.5ZM1194.68 565.5H1196.68V564.5H1194.68V565.5ZM1198.68 565.5H1200.68V564.5H1198.68V565.5ZM1202.67 565.5H1204.67V564.5H1202.67V565.5ZM1206.67 565.5H1208.67V564.5H1206.67V565.5ZM1210.67 565.5H1212.66V564.5H1210.67V565.5ZM1214.66 565.5H1216.66V564.5H1214.66V565.5ZM1218.66 565.5H1220.66V564.5H1218.66V565.5ZM1222.65 565.5H1224.65V564.5H1222.65V565.5ZM1226.65 565.5H1228.65V564.5H1226.65V565.5ZM1230.65 565.5H1232.64V564.5H1230.65V565.5ZM1234.64 565.5H1236.64V564.5H1234.64V565.5ZM1238.64 565.5H1240.63V564.5H1238.64V565.5ZM1242.63 565.5H1244.63V564.5H1242.63V565.5ZM1246.63 565.5H1248.63V564.5H1246.63V565.5ZM1250.62 565.5H1252.62V564.5H1250.62V565.5ZM1254.62 565.5H1256.62V564.5H1254.62V565.5ZM1258.62 565.5H1260.61V564.5H1258.62V565.5ZM1262.61 565.5H1264.61V564.5H1262.61V565.5ZM1266.61 565.5H1268.61V564.5H1266.61V565.5ZM1270.6 565.5H1272.6V564.5H1270.6V565.5ZM1274.6 565.5H1276.6V564.5H1274.6V565.5ZM1278.59 565.5H1280.59V564.5H1278.59V565.5ZM1282.59 565.5H1284.59V564.5H1282.59V565.5ZM1286.59 565.5H1288.58V564.5H1286.59V565.5ZM1290.58 565.5H1292.58V564.5H1290.58V565.5ZM1294.58 565.5H1296.58V564.5H1294.58V565.5ZM1298.57 565.5H1300.57V564.5H1298.57V565.5ZM1302.57 565.5H1304.57V564.5H1302.57V565.5ZM1306.57 565.5H1308.56V564.5H1306.57V565.5ZM1310.56 565.5H1312.56V564.5H1310.56V565.5ZM1314.56 565.5H1316.55V564.5H1314.56V565.5ZM1318.55 565.5H1320.55V564.5H1318.55V565.5ZM1322.55 565.5H1324.55V564.5H1322.55V565.5ZM1326.54 565.5H1328.54V564.5H1326.54V565.5ZM1330.54 565.5H1332.54V564.5H1330.54V565.5ZM1334.54 565.5H1336.53V564.5H1334.54V565.5ZM1338.53 565.5H1340.53V564.5H1338.53V565.5ZM1342.53 565.5H1344.53V564.5H1342.53V565.5ZM1346.52 565.5H1348.52V564.5H1346.52V565.5ZM1350.52 565.5H1352.52V564.5H1350.52V565.5ZM1354.51 565.5H1356.51V564.5H1354.51V565.5ZM1358.51 565.5H1360.51V564.5H1358.51V565.5ZM1362.51 565.5H1364.5V564.5H1362.51V565.5ZM1366.5 565.5H1367.5V564.5H1366.5V565.5ZM1368 565V563.988H1367V565H1368ZM1368 561.964V559.94H1367V561.964H1368ZM1368 557.915V555.891H1367V557.915H1368ZM1368 553.867V551.843H1367V553.867H1368ZM1368 549.819V547.794H1367V549.819H1368ZM1368 545.77V543.746H1367V545.77H1368ZM1368 541.722V539.698H1367V541.722H1368ZM1368 537.673V535.649H1367V537.673H1368ZM1368 533.625V531.601H1367V533.625H1368ZM1368 529.577V527.552H1367V529.577H1368ZM1368 525.528V523.504H1367V525.528H1368ZM1368 521.48V519.456H1367V521.48H1368ZM1368 517.431V515.407H1367V517.431H1368ZM1368 513.383V511.359H1367V513.383H1368ZM1368 509.335V507.311H1367V509.335H1368ZM1368 505.286V503.262H1367V505.286H1368ZM1368 501.238V499.214H1367V501.238H1368ZM1368 497.19V495.165H1367V497.19H1368ZM1368 493.141V491.117H1367V493.141H1368ZM1368 489.093V487.069H1367V489.093H1368ZM1368 485.044V483.02H1367V485.044H1368ZM1368 480.996V478.972H1367V480.996H1368ZM1368 476.948V474.923H1367V476.948H1368ZM1368 472.899V470.875H1367V472.899H1368ZM1368 468.851V466.827H1367V468.851H1368ZM1368 464.802V462.778H1367V464.802H1368ZM1368 460.754V458.73H1367V460.754H1368ZM1368 456.706V454.681H1367V456.706H1368ZM1368 452.657V450.633H1367V452.657H1368ZM1368 448.609V446.585H1367V448.609H1368ZM1368 444.561V442.536H1367V444.561H1368ZM1368 440.512V439.5H1367V440.512H1368ZM1368 439.5V438.493H1367V439.5H1368ZM1368 436.479V434.465H1367V436.479H1368ZM1368 432.451V430.438H1367V432.451H1368ZM1368 428.424V426.41H1367V428.424H1368ZM1368 424.396V422.382H1367V424.396H1368ZM1368 420.368V418.354H1367V420.368H1368ZM1368 416.34V414.326H1367V416.34H1368ZM1368 412.312V410.299H1367V412.312H1368ZM1368 408.285V406.271H1367V408.285H1368ZM1368 404.257V402.243H1367V404.257H1368ZM1368 400.229V398.215H1367V400.229H1368ZM1368 396.201V394.187H1367V396.201H1368ZM1368 392.174V390.16H1367V392.174H1368ZM1368 388.146V386.132H1367V388.146H1368ZM1368 384.118V382.104H1367V384.118H1368ZM1368 380.09V378.076H1367V380.09H1368ZM1368 376.062V374.049H1367V376.062H1368ZM1368 372.035V370.021H1367V372.035H1368ZM1368 368.007V365.993H1367V368.007H1368ZM1368 363.979V361.965H1367V363.979H1368ZM1368 359.951V357.938H1367V359.951H1368ZM1368 355.924V353.91H1367V355.924H1368ZM1368 351.896V349.882H1367V351.896H1368ZM1368 347.868V345.854H1367V347.868H1368ZM1368 343.84V341.826H1367V343.84H1368ZM1368 339.813V337.799H1367V339.813H1368ZM1368 335.785V333.771H1367V335.785H1368ZM1368 331.757V329.743H1367V331.757H1368ZM1368 327.729V325.715H1367V327.729H1368ZM1368 323.701V321.688H1367V323.701H1368ZM1368 319.674V317.66H1367V319.674H1368ZM1368 315.646V313.632H1367V315.646H1368ZM1368 311.618V309.604H1367V311.618H1368ZM1368 307.59V305.576H1367V307.59H1368ZM1368 303.563V301.549H1367V303.563H1368ZM1368 299.535V297.521H1367V299.535H1368ZM1368 295.507V294.5H1367V295.507H1368ZM1367.5 294H1366.49V295H1367.5V294ZM1364.48 294H1362.47V295H1364.48V294ZM1360.45 294H1358.44V295H1360.45V294ZM1356.42 294H1354.41V295H1356.42V294ZM1352.4 294H1350.38V295H1352.4V294ZM1348.37 294H1346.35V295H1348.37V294ZM1344.34 294H1342.33V295H1344.34V294ZM1340.31 294H1338.3V295H1340.31V294ZM1336.28 294H1334.27V295H1336.28V294ZM1332.26 294H1330.24V295H1332.26V294ZM1328.23 294H1326.22V295H1328.23V294ZM1324.2 294H1322.19V295H1324.2V294ZM1320.17 294H1318.16V295H1320.17V294ZM1316.15 294H1314.13V295H1316.15V294ZM1312.12 294H1310.1V295H1312.12V294ZM1308.09 294H1306.08V295H1308.09V294ZM1304.06 294H1302.05V295H1304.06V294ZM1300.03 294H1298.02V295H1300.03V294ZM1296.01 294H1295V295H1296.01V294ZM151 294H150.024V295H151V294ZM148.071 294H146.119V295H148.071V294ZM144.167 294H142.214V295H144.167V294ZM140.262 294H138.31V295H140.262V294ZM136.357 294H134.405V295H136.357V294ZM132.452 294H130.5V295H132.452V294ZM128.548 294H126.595V295H128.548V294ZM124.643 294H122.69V295H124.643V294ZM120.738 294H118.786V295H120.738V294ZM116.833 294H114.881V295H116.833V294ZM112.929 294H110.976V295H112.929V294ZM109.024 294H107.071V295H109.024V294ZM105.119 294H103.167V295H105.119V294ZM101.214 294H99.2619V295H101.214V294ZM97.3095 294H95.3571V295H97.3095V294ZM93.4048 294H91.4524V295H93.4048V294ZM89.5 294H87.5476V295H89.5V294ZM85.5952 294H83.6429V295H85.5952V294ZM81.6905 294H79.7381V295H81.6905V294ZM77.7857 294H75.8334V295H77.7857V294ZM73.881 294H71.9286V295H73.881V294ZM69.9762 294H69V295H69.9762V294ZM68.5 294.5V295.494H69.5V294.5H68.5ZM68.5 297.483V299.472H69.5V297.483H68.5ZM68.5 301.461V303.45H69.5V301.461H68.5ZM68.5 305.439V307.428H69.5V305.439H68.5ZM68.5 309.417V311.406H69.5V309.417H68.5ZM68.5 313.395V315.384H69.5V313.395H68.5ZM68.5 317.373V319.362H69.5V317.373H68.5ZM68.5 321.351V323.34H69.5V321.351H68.5ZM68.5 325.329V327.318H69.5V325.329H68.5ZM68.5 329.307V331.296H69.5V329.307H68.5ZM68.5 333.285V335.274H69.5V333.285H68.5ZM68.5 337.263V339.252H69.5V337.263H68.5ZM68.5 341.241V343.23H69.5V341.241H68.5ZM68.5 345.219V347.208H69.5V345.219H68.5ZM68.5 349.197V351.186H69.5V349.197H68.5ZM68.5 353.175V355.164H69.5V353.175H68.5ZM68.5 357.153V359.142H69.5V357.153H68.5ZM68.5 361.131V363.119H69.5V361.131H68.5ZM68.5 365.108V367.097H69.5V365.108H68.5ZM68.5 369.086V371.075H69.5V369.086H68.5ZM68.5 373.064V375.053H69.5V373.064H68.5ZM68.5 377.042V379.031H69.5V377.042H68.5ZM68.5 381.02V383.009H69.5V381.02H68.5ZM68.5 384.998V386.987H69.5V384.998H68.5ZM68.5 388.976V390.965H69.5V388.976H68.5ZM68.5 392.954V394.943H69.5V392.954H68.5ZM68.5 396.932V398.921H69.5V396.932H68.5ZM68.5 400.91V402.899H69.5V400.91H68.5ZM68.5 404.888V406.877H69.5V404.888H68.5ZM68.5 408.866V410.855H69.5V408.866H68.5ZM68.5 412.844V414.833H69.5V412.844H68.5ZM68.5 416.822V418.811H69.5V416.822H68.5ZM68.5 420.8V422.789H69.5V420.8H68.5ZM68.5 424.777V426.766H69.5V424.777H68.5ZM68.5 428.755V430.744H69.5V428.755H68.5ZM68.5 432.733V434.722H69.5V432.733H68.5ZM68.5 436.711V438.7H69.5V436.711H68.5ZM68.5 440.689V442.678H69.5V440.689H68.5ZM68.5 444.667V446.656H69.5V444.667H68.5ZM68.5 448.645V450.634H69.5V448.645H68.5ZM68.5 452.623V454.612H69.5V452.623H68.5ZM68.5 456.601V458.59H69.5V456.601H68.5ZM68.5 460.579V462.568H69.5V460.579H68.5ZM68.5 464.557V466.546H69.5V464.557H68.5ZM68.5 468.535V470.524H69.5V468.535H68.5ZM68.5 472.513V474.502H69.5V472.513H68.5ZM68.5 476.491V478.48H69.5V476.491H68.5ZM68.5 480.469V482.458H69.5V480.469H68.5ZM68.5 484.447V486.436H69.5V484.447H68.5ZM68.5 488.424V490.413H69.5V488.424H68.5ZM68.5 492.402V494.391H69.5V492.402H68.5ZM68.5 496.38V498.369H69.5V496.38H68.5ZM68.5 500.358V502.347H69.5V500.358H68.5ZM68.5 504.336V506.325H69.5V504.336H68.5ZM68.5 508.314V510.303H69.5V508.314H68.5ZM68.5 512.292V514.281H69.5V512.292H68.5ZM68.5 516.27V518.259H69.5V516.27H68.5ZM68.5 520.248V522.237H69.5V520.248H68.5ZM68.5 524.226V526.215H69.5V524.226H68.5ZM68.5 528.204V530.193H69.5V528.204H68.5ZM68.5 532.182V534.171H69.5V532.182H68.5ZM68.5 536.16V538.149H69.5V536.16H68.5ZM68.5 540.138V542.127H69.5V540.138H68.5ZM68.5 544.116V546.105H69.5V544.116H68.5ZM68.5 548.094V550.082H69.5V548.094H68.5ZM68.5 552.071V554.06H69.5V552.071H68.5ZM68.5 556.049V558.038H69.5V556.049H68.5ZM68.5 560.027V562.016H69.5V560.027H68.5ZM68.5 564.005V565H69.5V564.005H68.5ZM69 565.5H69.9968V564.5H69V565.5ZM71.9904 565.5H73.984V564.5H71.9904V565.5ZM75.9776 565.5H77.9712V564.5H75.9776V565.5ZM79.9647 565.5H81.9583V564.5H79.9647V565.5ZM83.9519 565.5H85.9455V564.5H83.9519V565.5ZM87.9391 565.5H89.9327V564.5H87.9391V565.5ZM91.9263 565.5H93.9199V564.5H91.9263V565.5ZM95.9135 565.5H97.907V564.5H95.9135V565.5ZM99.9006 565.5H101.894V564.5H99.9006V565.5ZM103.888 565.5H105.881V564.5H103.888V565.5ZM107.875 565.5H109.869V564.5H107.875V565.5ZM111.862 565.5H113.856V564.5H111.862V565.5ZM115.849 565.5H117.843V564.5H115.849V565.5ZM119.837 565.5H121.83V564.5H119.837V565.5ZM123.824 565.5H125.817V564.5H123.824V565.5ZM127.811 565.5H129.805V564.5H127.811V565.5ZM131.798 565.5H133.792V564.5H131.798V565.5ZM135.785 565.5H137.779V564.5H135.785V565.5ZM139.772 565.5H141.766V564.5H139.772V565.5ZM143.76 565.5H145.753V564.5H143.76V565.5ZM147.747 565.5H149.74V564.5H147.747V565.5ZM151.734 565.5H153.728V564.5H151.734V565.5ZM155.721 565.5H157.715V564.5H155.721V565.5ZM159.708 565.5H161.702V564.5H159.708V565.5ZM163.696 565.5H165.689V564.5H163.696V565.5ZM167.683 565.5H169.676V564.5H167.683V565.5ZM171.67 565.5H173.664V564.5H171.67V565.5ZM175.657 565.5H177.651V564.5H175.657V565.5ZM179.644 565.5H181.638V564.5H179.644V565.5ZM183.631 565.5H185.625V564.5H183.631V565.5ZM187.619 565.5H189.612V564.5H187.619V565.5ZM191.606 565.5H193.599V564.5H191.606V565.5ZM195.593 565.5H197.587V564.5H195.593V565.5ZM199.58 565.5H201.574V564.5H199.58V565.5ZM203.567 565.5H205.561V564.5H203.567V565.5ZM207.555 565.5H209.548V564.5H207.555V565.5ZM211.542 565.5H213.535V564.5H211.542V565.5ZM215.529 565.5H217.523V564.5H215.529V565.5ZM219.516 565.5H221.51V564.5H219.516V565.5ZM223.503 565.5H225.497V564.5H223.503V565.5ZM227.49 565.5H229.484V564.5H227.49V565.5ZM231.478 565.5H233.471V564.5H231.478V565.5ZM235.465 565.5H237.458V564.5H235.465V565.5ZM239.452 565.5H241.446V564.5H239.452V565.5ZM243.439 565.5H245.433V564.5H243.439V565.5ZM247.426 565.5H249.42V564.5H247.426V565.5ZM251.414 565.5H253.407V564.5H251.414V565.5ZM255.401 565.5H257.394V564.5H255.401V565.5ZM259.388 565.5H261.382V564.5H259.388V565.5ZM263.375 565.5H265.369V564.5H263.375V565.5ZM267.362 565.5H269.356V564.5H267.362V565.5ZM271.349 565.5H273.343V564.5H271.349V565.5ZM275.337 565.5H277.33V564.5H275.337V565.5ZM279.324 565.5H281.317V564.5H279.324V565.5ZM283.311 565.5H285.305V564.5H283.311V565.5ZM287.298 565.5H289.292V564.5H287.298V565.5ZM291.285 565.5H293.279V564.5H291.285V565.5ZM295.273 565.5H297.266V564.5H295.273V565.5ZM299.26 565.5H301.253V564.5H299.26V565.5ZM303.247 565.5H305.241V564.5H303.247V565.5ZM307.234 565.5H309.228V564.5H307.234V565.5ZM311.221 565.5H313.215V564.5H311.221V565.5ZM315.209 565.5H317.202V564.5H315.209V565.5ZM319.196 565.5H321.189V564.5H319.196V565.5ZM323.183 565.5H325.176V564.5H323.183V565.5ZM327.17 565.5H329.164V564.5H327.17V565.5ZM331.157 565.5H333.151V564.5H331.157V565.5ZM335.144 565.5H337.138V564.5H335.144V565.5ZM339.132 565.5H341.125V564.5H339.132V565.5ZM343.119 565.5H345.112V564.5H343.119V565.5ZM347.106 565.5H349.1V564.5H347.106V565.5ZM351.093 565.5H353.087V564.5H351.093V565.5ZM355.08 565.5H357.074V564.5H355.08V565.5ZM359.068 565.5H361.061V564.5H359.068V565.5ZM363.055 565.5H365.048V564.5H363.055V565.5ZM367.042 565.5H369.035V564.5H367.042V565.5ZM371.029 565.5H373.023V564.5H371.029V565.5ZM375.016 565.5H377.01V564.5H375.016V565.5ZM379.003 565.5H380.997V564.5H379.003V565.5ZM382.991 565.5H384.984V564.5H382.991V565.5ZM386.978 565.5H388.971V564.5H386.978V565.5ZM390.965 565.5H392.959V564.5H390.965V565.5ZM394.952 565.5H396.946V564.5H394.952V565.5ZM398.939 565.5H400.933V564.5H398.939V565.5ZM402.927 565.5H404.92V564.5H402.927V565.5ZM406.914 565.5H408.907V564.5H406.914V565.5ZM410.901 565.5H412.894V564.5H410.901V565.5ZM414.888 565.5H416.882V564.5H414.888V565.5ZM418.875 565.5H420.869V564.5H418.875V565.5ZM422.862 565.5H424.856V564.5H422.862V565.5ZM426.85 565.5H428.843V564.5H426.85V565.5ZM430.837 565.5H432.83V564.5H430.837V565.5ZM434.824 565.5H436.818V564.5H434.824V565.5ZM438.811 565.5H440.805V564.5H438.811V565.5ZM442.798 565.5H444.792V564.5H442.798V565.5ZM446.786 565.5H448.779V564.5H446.786V565.5ZM450.773 565.5H452.766V564.5H450.773V565.5ZM454.76 565.5H456.753V564.5H454.76V565.5ZM458.747 565.5H460.741V564.5H458.747V565.5ZM462.734 565.5H464.728V564.5H462.734V565.5ZM466.721 565.5H468.715V564.5H466.721V565.5ZM470.709 565.5H472.702V564.5H470.709V565.5ZM474.696 565.5H476.689V564.5H474.696V565.5ZM478.683 565.5H480.677V564.5H478.683V565.5ZM482.67 565.5H484.664V564.5H482.67V565.5ZM486.657 565.5H488.651V564.5H486.657V565.5ZM490.645 565.5H492.638V564.5H490.645V565.5ZM494.632 565.5H496.625V564.5H494.632V565.5ZM498.619 565.5H500.612V564.5H498.619V565.5ZM502.606 565.5H504.6V564.5H502.606V565.5ZM506.593 565.5H508.587V564.5H506.593V565.5ZM510.58 565.5H512.574V564.5H510.58V565.5ZM514.568 565.5H516.561V564.5H514.568V565.5ZM518.555 565.5H520.548V564.5H518.555V565.5ZM522.542 565.5H524.536V564.5H522.542V565.5ZM526.529 565.5H528.523V564.5H526.529V565.5ZM530.516 565.5H532.51V564.5H530.516V565.5ZM534.504 565.5H535.5V564.5H534.504V565.5ZM535 565V565.984H536V565H535ZM535 567.953V569.922H536V567.953H535ZM535 571.891V573.859H536V571.891H535ZM535 575.828V577.797H536V575.828H535ZM535 579.766V581.734H536V579.766H535ZM535 583.703V585.672H536V583.703H535ZM535 587.641V589.609H536V587.641H535ZM535 591.578V593.547H536V591.578H535ZM535 595.516V597.484H536V595.516H535ZM535 599.453V601.422H536V599.453H535ZM535 603.391V605.359H536V603.391H535ZM535 607.328V609.297H536V607.328H535ZM535 611.266V613.234H536V611.266H535ZM535 615.203V617.172H536V615.203H535ZM535 619.141V621.109H536V619.141H535ZM535 623.078V625.047H536V623.078H535ZM535 627.016V628H536V627.016H535ZM535.5 628.5H536.504V627.5H535.5V628.5ZM538.512 628.5H540.52V627.5H538.512V628.5ZM542.528 628.5H544.536V627.5H542.528V628.5ZM546.544 628.5H548.552V627.5H546.544V628.5ZM550.56 628.5H552.568V627.5H550.56V628.5ZM554.576 628.5H556.584V627.5H554.576V628.5ZM558.592 628.5H560.6V627.5H558.592V628.5ZM562.608 628.5H564.616V627.5H562.608V628.5ZM566.624 628.5H568.632V627.5H566.624V628.5ZM570.64 628.5H572.648V627.5H570.64V628.5ZM574.656 628.5H576.664V627.5H574.656V628.5ZM578.672 628.5H580.68V627.5H578.672V628.5ZM582.688 628.5H584.695V627.5H582.688V628.5ZM586.703 628.5H588.711V627.5H586.703V628.5ZM590.719 628.5H592.727V627.5H590.719V628.5ZM594.735 628.5H596.743V627.5H594.735V628.5ZM598.751 628.5H600.759V627.5H598.751V628.5ZM602.767 628.5H604.775V627.5H602.767V628.5ZM606.783 628.5H608.791V627.5H606.783V628.5ZM610.799 628.5H612.807V627.5H610.799V628.5ZM614.815 628.5H616.823V627.5H614.815V628.5ZM618.831 628.5H620.839V627.5H618.831V628.5ZM622.847 628.5H624.855V627.5H622.847V628.5ZM626.863 628.5H628.871V627.5H626.863V628.5ZM630.879 628.5H632.887V627.5H630.879V628.5ZM634.895 628.5H636.903V627.5H634.895V628.5ZM638.911 628.5H640.919V627.5H638.911V628.5ZM642.927 628.5H644.935V627.5H642.927V628.5ZM646.943 628.5H648.951V627.5H646.943V628.5ZM650.959 628.5H652.967V627.5H650.959V628.5ZM654.975 628.5H656.983V627.5H654.975V628.5ZM658.991 628.5H660.999V627.5H658.991V628.5ZM663.007 628.5H665.015V627.5H663.007V628.5ZM667.023 628.5H669.031V627.5H667.023V628.5ZM671.039 628.5H673.047V627.5H671.039V628.5ZM675.055 628.5H677.063V627.5H675.055V628.5ZM679.071 628.5H681.079V627.5H679.071V628.5ZM683.086 628.5H685.094V627.5H683.086V628.5ZM687.102 628.5H689.11V627.5H687.102V628.5ZM691.118 628.5H693.126V627.5H691.118V628.5ZM695.134 628.5H697.142V627.5H695.134V628.5ZM699.15 628.5H701.158V627.5H699.15V628.5ZM703.166 628.5H705.174V627.5H703.166V628.5ZM707.182 628.5H709.19V627.5H707.182V628.5ZM711.198 628.5H713.206V627.5H711.198V628.5ZM715.214 628.5H717.222V627.5H715.214V628.5ZM719.23 628.5H721.238V627.5H719.23V628.5ZM723.246 628.5H724.25V627.5H723.246V628.5ZM112.5 770H111.511V771H112.5V770ZM109.534 770H107.557V771H109.534V770ZM105.58 770H103.602V771H105.58V770ZM101.625 770H99.6477V771H101.625V770ZM97.6705 770H95.6932V771H97.6705V770ZM93.7159 770H91.7386V771H93.7159V770ZM89.7614 770H87.7841V771H89.7614V770ZM85.8068 770H83.8295V771H85.8068V770ZM81.8523 770H79.875V771H81.8523V770ZM77.8977 770H75.9205V771H77.8977V770ZM73.9432 770H71.9659V771H73.9432V770ZM69.9886 770H69V771H69.9886V770ZM69.5 770.5V769.533H68.5V770.5H69.5ZM69.5 767.6V765.667H68.5V767.6H69.5ZM69.5 763.733V761.8H68.5V763.733H69.5ZM69.5 759.867V757.933H68.5V759.867H69.5ZM69.5 756V754.067H68.5V756H69.5ZM69.5 752.133V750.2H68.5V752.133H69.5ZM69.5 748.267V746.333H68.5V748.267H69.5ZM69.5 744.4V742.467H68.5V744.4H69.5ZM69.5 740.533V738.6H68.5V740.533H69.5ZM69.5 736.667V734.733H68.5V736.667H69.5ZM69.5 732.8V730.867H68.5V732.8H69.5ZM69.5 728.933V727H68.5V728.933H69.5ZM69.5 725.067V723.133H68.5V725.067H69.5ZM69.5 721.2V719.267H68.5V721.2H69.5ZM69.5 717.333V715.4H68.5V717.333H69.5ZM69.5 713.467V712.5H68.5V713.467H69.5ZM69 713H69.9989V712H69V713ZM71.9966 713H73.9943V712H71.9966V713ZM75.992 713H77.9897V712H75.992V713ZM79.9874 713H81.9851V712H79.9874V713ZM83.9829 713H85.9806V712H83.9829V713ZM87.9783 713H89.976V712H87.9783V713ZM91.9737 713H93.9714V712H91.9737V713ZM95.9691 713H97.9668V712H95.9691V713ZM99.9646 713H101.962V712H99.9646V713ZM103.96 713H105.958V712H103.96V713ZM107.955 713H109.953V712H107.955V713ZM111.951 713H113.949V712H111.951V713ZM115.946 713H117.944V712H115.946V713ZM119.942 713H121.939V712H119.942V713ZM123.937 713H125.935V712H123.937V713ZM127.933 713H129.93V712H127.933V713ZM131.928 713H133.926V712H131.928V713ZM135.923 713H137.921V712H135.923V713ZM139.919 713H141.917V712H139.919V713ZM143.914 713H145.912V712H143.914V713ZM147.91 713H149.907V712H147.91V713ZM151.905 713H153.903V712H151.905V713ZM155.901 713H157.898V712H155.901V713ZM159.896 713H161.894V712H159.896V713ZM163.891 713H165.889V712H163.891V713ZM167.887 713H169.885V712H167.887V713ZM171.882 713H173.88V712H171.882V713ZM175.878 713H177.875V712H175.878V713ZM179.873 713H181.871V712H179.873V713ZM183.868 713H185.866V712H183.868V713ZM187.864 713H189.862V712H187.864V713ZM191.859 713H193.857V712H191.859V713ZM195.855 713H197.852V712H195.855V713ZM199.85 713H201.848V712H199.85V713ZM203.846 713H205.843V712H203.846V713ZM207.841 713H209.839V712H207.841V713ZM211.836 713H213.834V712H211.836V713ZM215.832 713H217.83V712H215.832V713ZM219.827 713H221.825V712H219.827V713ZM223.823 713H225.82V712H223.823V713ZM227.818 713H229.816V712H227.818V713ZM231.814 713H233.811V712H231.814V713ZM235.809 713H237.807V712H235.809V713ZM239.804 713H241.802V712H239.804V713ZM243.8 713H245.798V712H243.8V713ZM247.795 713H249.793V712H247.795V713ZM251.791 713H253.788V712H251.791V713ZM255.786 713H257.784V712H255.786V713ZM259.782 713H261.779V712H259.782V713ZM263.777 713H265.775V712H263.777V713ZM267.772 713H269.77V712H267.772V713ZM271.768 713H273.765V712H271.768V713ZM275.763 713H277.761V712H275.763V713ZM279.759 713H281.756V712H279.759V713ZM283.754 713H285.752V712H283.754V713ZM287.749 713H289.747V712H287.749V713ZM291.745 713H293.743V712H291.745V713ZM295.74 713H297.738V712H295.74V713ZM299.736 713H301.733V712H299.736V713ZM303.731 713H305.729V712H303.731V713ZM307.727 713H309.724V712H307.727V713ZM311.722 713H313.72V712H311.722V713ZM315.717 713H317.715V712H315.717V713ZM319.713 713H321.711V712H319.713V713ZM323.708 713H325.706V712H323.708V713ZM327.704 713H329.701V712H327.704V713ZM331.699 713H333.697V712H331.699V713ZM335.695 713H337.692V712H335.695V713ZM339.69 713H341.688V712H339.69V713ZM343.685 713H345.683V712H343.685V713ZM347.681 713H349.679V712H347.681V713ZM351.676 713H353.674V712H351.676V713ZM355.672 713H357.669V712H355.672V713ZM359.667 713H361.665V712H359.667V713ZM363.663 713H365.66V712H363.663V713ZM367.658 713H369.656V712H367.658V713ZM371.653 713H373.651V712H371.653V713ZM375.649 713H377.646V712H375.649V713ZM379.644 713H381.642V712H379.644V713ZM383.64 713H385.637V712H383.64V713ZM387.635 713H389.633V712H387.635V713ZM391.63 713H393.628V712H391.63V713ZM395.626 713H397.624V712H395.626V713ZM399.621 713H401.619V712H399.621V713ZM403.617 713H405.614V712H403.617V713ZM407.612 713H409.61V712H407.612V713ZM411.608 713H413.605V712H411.608V713ZM415.603 713H417.601V712H415.603V713ZM419.598 713H421.596V712H419.598V713ZM423.594 713H425.592V712H423.594V713ZM427.589 713H429.587V712H427.589V713ZM431.585 713H433.582V712H431.585V713ZM435.58 713H437.578V712H435.58V713ZM439.576 713H441.573V712H439.576V713ZM443.571 713H445.569V712H443.571V713ZM447.566 713H449.564V712H447.566V713ZM451.562 713H453.56V712H451.562V713ZM455.557 713H457.555V712H455.557V713ZM459.553 713H461.55V712H459.553V713ZM463.548 713H465.546V712H463.548V713ZM467.543 713H469.541V712H467.543V713ZM471.539 713H473.537V712H471.539V713ZM475.534 713H477.532V712H475.534V713ZM479.53 713H481.527V712H479.53V713ZM483.525 713H485.523V712H483.525V713ZM487.521 713H489.518V712H487.521V713ZM491.516 713H493.514V712H491.516V713ZM495.511 713H497.509V712H495.511V713ZM499.507 713H501.505V712H499.507V713ZM503.502 713H505.5V712H503.502V713ZM507.498 713H509.495V712H507.498V713ZM511.493 713H513.491V712H511.493V713ZM515.489 713H517.486V712H515.489V713ZM519.484 713H521.482V712H519.484V713ZM523.479 713H525.477V712H523.479V713ZM527.475 713H529.473V712H527.475V713ZM531.47 713H533.468V712H531.47V713ZM535.466 713H537.463V712H535.466V713ZM539.461 713H541.459V712H539.461V713ZM543.457 713H545.454V712H543.457V713ZM547.452 713H549.45V712H547.452V713ZM551.447 713H553.445V712H551.447V713ZM555.443 713H557.44V712H555.443V713ZM559.438 713H561.436V712H559.438V713ZM563.434 713H565.431V712H563.434V713ZM567.429 713H569.427V712H567.429V713ZM571.424 713H573.422V712H571.424V713ZM575.42 713H577.418V712H575.42V713ZM579.415 713H581.413V712H579.415V713ZM583.411 713H585.409V712H583.411V713ZM587.406 713H589.404V712H587.406V713ZM591.402 713H593.399V712H591.402V713ZM595.397 713H597.395V712H595.397V713ZM599.393 713H601.39V712H599.393V713ZM603.388 713H605.386V712H603.388V713ZM607.384 713H609.381V712H607.384V713ZM611.379 713H613.377V712H611.379V713ZM615.375 713H617.372V712H615.375V713ZM619.37 713H621.368V712H619.37V713ZM623.366 713H625.363V712H623.366V713ZM627.361 713H629.359V712H627.361V713ZM631.357 713H633.354V712H631.357V713ZM635.352 713H637.35V712H635.352V713ZM639.348 713H641.345V712H639.348V713ZM643.343 713H645.341V712H643.343V713ZM647.339 713H649.336V712H647.339V713ZM651.334 713H653.332V712H651.334V713ZM655.329 713H657.327V712H655.329V713ZM659.325 713H661.323V712H659.325V713ZM663.32 713H665.318V712H663.32V713ZM667.316 713H669.314V712H667.316V713ZM671.311 713H673.309V712H671.311V713ZM675.307 713H677.305V712H675.307V713ZM679.302 713H681.3V712H679.302V713ZM683.298 713H685.296V712H683.298V713ZM687.293 713H689.291V712H687.293V713ZM691.289 713H693.287V712H691.289V713ZM695.284 713H697.282V712H695.284V713ZM699.28 713H701.278V712H699.28V713ZM703.275 713H705.273V712H703.275V713ZM707.271 713H709.268V712H707.271V713ZM711.266 713H713.264V712H711.266V713ZM715.262 713H717.259V712H715.262V713ZM719.257 713H721.255V712H719.257V713ZM723.253 713H724.25V712H723.253V713ZM724.75 712.5V711.494H723.75V712.5H724.75ZM724.75 709.482V707.47H723.75V709.482H724.75ZM724.75 705.458V703.446H723.75V705.458H724.75ZM724.75 701.435V699.423H723.75V701.435H724.75ZM724.75 697.411V695.399H723.75V697.411H724.75ZM724.75 693.387V691.375H723.75V693.387H724.75ZM724.75 689.363V687.351H723.75V689.363H724.75ZM724.75 685.339V683.327H723.75V685.339H724.75ZM724.75 681.315V679.304H723.75V681.315H724.75ZM724.75 677.292V675.28H723.75V677.292H724.75ZM724.75 673.268V671.256H723.75V673.268H724.75ZM724.75 669.244V667.232H723.75V669.244H724.75ZM724.75 665.22V663.208H723.75V665.22H724.75ZM724.75 661.196V659.185H723.75V661.196H724.75ZM724.75 657.173V655.161H723.75V657.173H724.75ZM724.75 653.149V651.137H723.75V653.149H724.75ZM724.75 649.125V647.113H723.75V649.125H724.75ZM724.75 645.101V643.089H723.75V645.101H724.75ZM724.75 641.077V639.065H723.75V641.077H724.75ZM724.75 637.054V635.042H723.75V637.054H724.75ZM724.75 633.03V631.018H723.75V633.03H724.75ZM724.75 629.006V628H723.75V629.006H724.75ZM1289.67 294.5C1289.67 297.446 1292.05 299.833 1295 299.833C1297.95 299.833 1300.33 297.446 1300.33 294.5C1300.33 291.554 1297.95 289.167 1295 289.167C1292.05 289.167 1289.67 291.554 1289.67 294.5ZM1367.5 294.5H1368.5C1368.5 293.948 1368.05 293.5 1367.5 293.5V294.5ZM1367.5 565V566C1368.05 566 1368.5 565.552 1368.5 565H1367.5ZM896 565V564C895.448 564 895 564.448 895 565H896ZM896 628V629C896.552 629 897 628.552 897 628H896ZM535.5 628H534.5C534.5 628.552 534.948 629 535.5 629V628ZM535.5 565H536.5C536.5 564.448 536.052 564 535.5 564V565ZM69 565H68C68 565.552 68.4477 566 69 566V565ZM69 294.5V293.5C68.4477 293.5 68 293.948 68 294.5H69ZM145.667 294.5C145.667 297.446 148.054 299.833 151 299.833C153.946 299.833 156.333 297.446 156.333 294.5C156.333 291.554 153.946 289.167 151 289.167C148.054 289.167 145.667 291.554 145.667 294.5ZM724.25 712.5V713.5C724.802 713.5 725.25 713.052 725.25 712.5H724.25ZM69 712.5V711.5C68.4477 711.5 68 711.948 68 712.5H69ZM69 770.5H68C68 771.052 68.4477 771.5 69 771.5V770.5ZM107.167 770.5C107.167 773.446 109.554 775.833 112.5 775.833C115.446 775.833 117.833 773.446 117.833 770.5C117.833 767.554 115.446 765.167 112.5 765.167C109.554 765.167 107.167 767.554 107.167 770.5ZM724.25 629H725.249V627H724.25V629ZM727.246 629H729.243V627H727.246V629ZM731.24 629H733.237V627H731.24V629ZM735.234 629H737.231V627H735.234V629ZM739.228 629H741.225V627H739.228V629ZM743.222 629H745.219V627H743.222V629ZM747.217 629H749.214V627H747.217V629ZM751.211 629H753.208V627H751.211V629ZM755.205 629H757.202V627H755.205V629ZM759.199 629H761.196V627H759.199V629ZM763.193 629H765.19V627H763.193V629ZM767.188 629H769.185V627H767.188V629ZM771.182 629H773.179V627H771.182V629ZM775.176 629H777.173V627H775.176V629ZM779.17 629H781.167V627H779.17V629ZM783.164 629H785.161V627H783.164V629ZM787.158 629H789.156V627H787.158V629ZM791.153 629H793.15V627H791.153V629ZM795.147 629H797.144V627H795.147V629ZM799.141 629H801.138V627H799.141V629ZM803.135 629H805.132V627H803.135V629ZM807.129 629H809.126V627H807.129V629ZM811.124 629H813.121V627H811.124V629ZM815.118 629H817.115V627H815.118V629ZM819.112 629H821.109V627H819.112V629ZM823.106 629H825.103V627H823.106V629ZM827.1 629H829.097V627H827.1V629ZM831.094 629H833.092V627H831.094V629ZM835.089 629H837.086V627H835.089V629ZM839.083 629H841.08V627H839.083V629ZM843.077 629H845.074V627H843.077V629ZM847.071 629H849.068V627H847.071V629ZM851.065 629H853.062V627H851.065V629ZM855.06 629H857.057V627H855.06V629ZM859.054 629H861.051V627H859.054V629ZM863.048 629H865.045V627H863.048V629ZM867.042 629H869.039V627H867.042V629ZM871.036 629H873.033V627H871.036V629ZM875.03 629H877.028V627H875.03V629ZM879.025 629H881.022V627H879.025V629ZM883.019 629H885.016V627H883.019V629ZM887.013 629H889.01V627H887.013V629ZM891.007 629H893.004V627H891.007V629ZM895.001 629H896V627H895.001V629ZM897 628V627.016H895V628H897ZM897 625.047V623.078H895V625.047H897ZM897 621.109V619.141H895V621.109H897ZM897 617.172V615.203H895V617.172H897ZM897 613.234V611.266H895V613.234H897ZM897 609.297V607.328H895V609.297H897ZM897 605.359V603.391H895V605.359H897ZM897 601.422V599.453H895V601.422H897ZM897 597.484V595.516H895V597.484H897ZM897 593.547V591.578H895V593.547H897ZM897 589.609V587.641H895V589.609H897ZM897 585.672V583.703H895V585.672H897ZM897 581.734V579.766H895V581.734H897ZM897 577.797V575.828H895V577.797H897ZM897 573.859V571.891H895V573.859H897ZM897 569.922V567.953H895V569.922H897ZM897 565.984V565H895V565.984H897ZM896 566H896.999V564H896V566ZM898.997 566H900.995V564H898.997V566ZM902.993 566H904.99V564H902.993V566ZM906.988 566H908.986V564H906.988V566ZM910.984 566H912.982V564H910.984V566ZM914.98 566H916.978V564H914.98V566ZM918.976 566H920.974V564H918.976V566ZM922.971 566H924.969V564H922.971V566ZM926.967 566H928.965V564H926.967V566ZM930.963 566H932.961V564H930.963V566ZM934.959 566H936.957V564H934.959V566ZM938.954 566H940.952V564H938.954V566ZM942.95 566H944.948V564H942.95V566ZM946.946 566H948.944V564H946.946V566ZM950.942 566H952.94V564H950.942V566ZM954.938 566H956.935V564H954.938V566ZM958.933 566H960.931V564H958.933V566ZM962.929 566H964.927V564H962.929V566ZM966.925 566H968.923V564H966.925V566ZM970.921 566H972.918V564H970.921V566ZM974.916 566H976.914V564H974.916V566ZM978.912 566H980.91V564H978.912V566ZM982.908 566H984.906V564H982.908V566ZM986.904 566H988.901V564H986.904V566ZM990.899 566H992.897V564H990.899V566ZM994.895 566H996.893V564H994.895V566ZM998.891 566H1000.89V564H998.891V566ZM1002.89 566H1004.88V564H1002.89V566ZM1006.88 566H1008.88V564H1006.88V566ZM1010.88 566H1012.88V564H1010.88V566ZM1014.87 566H1016.87V564H1014.87V566ZM1018.87 566H1020.87V564H1018.87V566ZM1022.87 566H1024.86V564H1022.87V566ZM1026.86 566H1028.86V564H1026.86V566ZM1030.86 566H1032.85V564H1030.86V566ZM1034.85 566H1036.85V564H1034.85V566ZM1038.85 566H1040.85V564H1038.85V566ZM1042.84 566H1044.84V564H1042.84V566ZM1046.84 566H1048.84V564H1046.84V566ZM1050.84 566H1052.83V564H1050.84V566ZM1054.83 566H1056.83V564H1054.83V566ZM1058.83 566H1060.83V564H1058.83V566ZM1062.82 566H1064.82V564H1062.82V566ZM1066.82 566H1068.82V564H1066.82V566ZM1070.81 566H1072.81V564H1070.81V566ZM1074.81 566H1076.81V564H1074.81V566ZM1078.81 566H1080.8V564H1078.81V566ZM1082.8 566H1084.8V564H1082.8V566ZM1086.8 566H1088.8V564H1086.8V566ZM1090.79 566H1092.79V564H1090.79V566ZM1094.79 566H1096.79V564H1094.79V566ZM1098.78 566H1100.78V564H1098.78V566ZM1102.78 566H1104.78V564H1102.78V566ZM1106.78 566H1108.77V564H1106.78V566ZM1110.77 566H1112.77V564H1110.77V566ZM1114.77 566H1116.77V564H1114.77V566ZM1118.76 566H1120.76V564H1118.76V566ZM1122.76 566H1124.76V564H1122.76V566ZM1126.76 566H1128.75V564H1126.76V566ZM1130.75 566H1132.75V564H1130.75V566ZM1134.75 566H1136.74V564H1134.75V566ZM1138.74 566H1140.74V564H1138.74V566ZM1142.74 566H1144.74V564H1142.74V566ZM1146.73 566H1148.73V564H1146.73V566ZM1150.73 566H1152.73V564H1150.73V566ZM1154.73 566H1156.72V564H1154.73V566ZM1158.72 566H1160.72V564H1158.72V566ZM1162.72 566H1164.71V564H1162.72V566ZM1166.71 566H1168.71V564H1166.71V566ZM1170.71 566H1172.71V564H1170.71V566ZM1174.7 566H1176.7V564H1174.7V566ZM1178.7 566H1180.7V564H1178.7V566ZM1182.7 566H1184.69V564H1182.7V566ZM1186.69 566H1188.69V564H1186.69V566ZM1190.69 566H1192.69V564H1190.69V566ZM1194.68 566H1196.68V564H1194.68V566ZM1198.68 566H1200.68V564H1198.68V566ZM1202.67 566H1204.67V564H1202.67V566ZM1206.67 566H1208.67V564H1206.67V566ZM1210.67 566H1212.66V564H1210.67V566ZM1214.66 566H1216.66V564H1214.66V566ZM1218.66 566H1220.66V564H1218.66V566ZM1222.65 566H1224.65V564H1222.65V566ZM1226.65 566H1228.65V564H1226.65V566ZM1230.65 566H1232.64V564H1230.65V566ZM1234.64 566H1236.64V564H1234.64V566ZM1238.64 566H1240.63V564H1238.64V566ZM1242.63 566H1244.63V564H1242.63V566ZM1246.63 566H1248.63V564H1246.63V566ZM1250.62 566H1252.62V564H1250.62V566ZM1254.62 566H1256.62V564H1254.62V566ZM1258.62 566H1260.61V564H1258.62V566ZM1262.61 566H1264.61V564H1262.61V566ZM1266.61 566H1268.61V564H1266.61V566ZM1270.6 566H1272.6V564H1270.6V566ZM1274.6 566H1276.6V564H1274.6V566ZM1278.59 566H1280.59V564H1278.59V566ZM1282.59 566H1284.59V564H1282.59V566ZM1286.59 566H1288.58V564H1286.59V566ZM1290.58 566H1292.58V564H1290.58V566ZM1294.58 566H1296.58V564H1294.58V566ZM1298.57 566H1300.57V564H1298.57V566ZM1302.57 566H1304.57V564H1302.57V566ZM1306.57 566H1308.56V564H1306.57V566ZM1310.56 566H1312.56V564H1310.56V566ZM1314.56 566H1316.55V564H1314.56V566ZM1318.55 566H1320.55V564H1318.55V566ZM1322.55 566H1324.55V564H1322.55V566ZM1326.54 566H1328.54V564H1326.54V566ZM1330.54 566H1332.54V564H1330.54V566ZM1334.54 566H1336.53V564H1334.54V566ZM1338.53 566H1340.53V564H1338.53V566ZM1342.53 566H1344.53V564H1342.53V566ZM1346.52 566H1348.52V564H1346.52V566ZM1350.52 566H1352.52V564H1350.52V566ZM1354.51 566H1356.51V564H1354.51V566ZM1358.51 566H1360.51V564H1358.51V566ZM1362.51 566H1364.5V564H1362.51V566ZM1366.5 566H1367.5V564H1366.5V566ZM1368.5 565V563.988H1366.5V565H1368.5ZM1368.5 561.964V559.94H1366.5V561.964H1368.5ZM1368.5 557.915V555.891H1366.5V557.915H1368.5ZM1368.5 553.867V551.843H1366.5V553.867H1368.5ZM1368.5 549.819V547.794H1366.5V549.819H1368.5ZM1368.5 545.77V543.746H1366.5V545.77H1368.5ZM1368.5 541.722V539.698H1366.5V541.722H1368.5ZM1368.5 537.673V535.649H1366.5V537.673H1368.5ZM1368.5 533.625V531.601H1366.5V533.625H1368.5ZM1368.5 529.577V527.552H1366.5V529.577H1368.5ZM1368.5 525.528V523.504H1366.5V525.528H1368.5ZM1368.5 521.48V519.456H1366.5V521.48H1368.5ZM1368.5 517.431V515.407H1366.5V517.431H1368.5ZM1368.5 513.383V511.359H1366.5V513.383H1368.5ZM1368.5 509.335V507.311H1366.5V509.335H1368.5ZM1368.5 505.286V503.262H1366.5V505.286H1368.5ZM1368.5 501.238V499.214H1366.5V501.238H1368.5ZM1368.5 497.19V495.165H1366.5V497.19H1368.5ZM1368.5 493.141V491.117H1366.5V493.141H1368.5ZM1368.5 489.093V487.069H1366.5V489.093H1368.5ZM1368.5 485.044V483.02H1366.5V485.044H1368.5ZM1368.5 480.996V478.972H1366.5V480.996H1368.5ZM1368.5 476.948V474.923H1366.5V476.948H1368.5ZM1368.5 472.899V470.875H1366.5V472.899H1368.5ZM1368.5 468.851V466.827H1366.5V468.851H1368.5ZM1368.5 464.802V462.778H1366.5V464.802H1368.5ZM1368.5 460.754V458.73H1366.5V460.754H1368.5ZM1368.5 456.706V454.681H1366.5V456.706H1368.5ZM1368.5 452.657V450.633H1366.5V452.657H1368.5ZM1368.5 448.609V446.585H1366.5V448.609H1368.5ZM1368.5 444.561V442.536H1366.5V444.561H1368.5ZM1368.5 440.512V439.5H1366.5V440.512H1368.5ZM1368.5 439.5V438.493H1366.5V439.5H1368.5ZM1368.5 436.479V434.465H1366.5V436.479H1368.5ZM1368.5 432.451V430.438H1366.5V432.451H1368.5ZM1368.5 428.424V426.41H1366.5V428.424H1368.5ZM1368.5 424.396V422.382H1366.5V424.396H1368.5ZM1368.5 420.368V418.354H1366.5V420.368H1368.5ZM1368.5 416.34V414.326H1366.5V416.34H1368.5ZM1368.5 412.312V410.299H1366.5V412.312H1368.5ZM1368.5 408.285V406.271H1366.5V408.285H1368.5ZM1368.5 404.257V402.243H1366.5V404.257H1368.5ZM1368.5 400.229V398.215H1366.5V400.229H1368.5ZM1368.5 396.201V394.187H1366.5V396.201H1368.5ZM1368.5 392.174V390.16H1366.5V392.174H1368.5ZM1368.5 388.146V386.132H1366.5V388.146H1368.5ZM1368.5 384.118V382.104H1366.5V384.118H1368.5ZM1368.5 380.09V378.076H1366.5V380.09H1368.5ZM1368.5 376.062V374.049H1366.5V376.062H1368.5ZM1368.5 372.035V370.021H1366.5V372.035H1368.5ZM1368.5 368.007V365.993H1366.5V368.007H1368.5ZM1368.5 363.979V361.965H1366.5V363.979H1368.5ZM1368.5 359.951V357.938H1366.5V359.951H1368.5ZM1368.5 355.924V353.91H1366.5V355.924H1368.5ZM1368.5 351.896V349.882H1366.5V351.896H1368.5ZM1368.5 347.868V345.854H1366.5V347.868H1368.5ZM1368.5 343.84V341.826H1366.5V343.84H1368.5ZM1368.5 339.813V337.799H1366.5V339.813H1368.5ZM1368.5 335.785V333.771H1366.5V335.785H1368.5ZM1368.5 331.757V329.743H1366.5V331.757H1368.5ZM1368.5 327.729V325.715H1366.5V327.729H1368.5ZM1368.5 323.701V321.688H1366.5V323.701H1368.5ZM1368.5 319.674V317.66H1366.5V319.674H1368.5ZM1368.5 315.646V313.632H1366.5V315.646H1368.5ZM1368.5 311.618V309.604H1366.5V311.618H1368.5ZM1368.5 307.59V305.576H1366.5V307.59H1368.5ZM1368.5 303.563V301.549H1366.5V303.563H1368.5ZM1368.5 299.535V297.521H1366.5V299.535H1368.5ZM1368.5 295.507V294.5H1366.5V295.507H1368.5ZM1367.5 293.5H1366.49V295.5H1367.5V293.5ZM1364.48 293.5H1362.47V295.5H1364.48V293.5ZM1360.45 293.5H1358.44V295.5H1360.45V293.5ZM1356.42 293.5H1354.41V295.5H1356.42V293.5ZM1352.4 293.5H1350.38V295.5H1352.4V293.5ZM1348.37 293.5H1346.35V295.5H1348.37V293.5ZM1344.34 293.5H1342.33V295.5H1344.34V293.5ZM1340.31 293.5H1338.3V295.5H1340.31V293.5ZM1336.28 293.5H1334.27V295.5H1336.28V293.5ZM1332.26 293.5H1330.24V295.5H1332.26V293.5ZM1328.23 293.5H1326.22V295.5H1328.23V293.5ZM1324.2 293.5H1322.19V295.5H1324.2V293.5ZM1320.17 293.5H1318.16V295.5H1320.17V293.5ZM1316.15 293.5H1314.13V295.5H1316.15V293.5ZM1312.12 293.5H1310.1V295.5H1312.12V293.5ZM1308.09 293.5H1306.08V295.5H1308.09V293.5ZM1304.06 293.5H1302.05V295.5H1304.06V293.5ZM1300.03 293.5H1298.02V295.5H1300.03V293.5ZM1296.01 293.5H1295V295.5H1296.01V293.5ZM151 293.5H150.024V295.5H151V293.5ZM148.071 293.5H146.119V295.5H148.071V293.5ZM144.167 293.5H142.214V295.5H144.167V293.5ZM140.262 293.5H138.31V295.5H140.262V293.5ZM136.357 293.5H134.405V295.5H136.357V293.5ZM132.452 293.5H130.5V295.5H132.452V293.5ZM128.548 293.5H126.595V295.5H128.548V293.5ZM124.643 293.5H122.69V295.5H124.643V293.5ZM120.738 293.5H118.786V295.5H120.738V293.5ZM116.833 293.5H114.881V295.5H116.833V293.5ZM112.929 293.5H110.976V295.5H112.929V293.5ZM109.024 293.5H107.071V295.5H109.024V293.5ZM105.119 293.5H103.167V295.5H105.119V293.5ZM101.214 293.5H99.2619V295.5H101.214V293.5ZM97.3095 293.5H95.3571V295.5H97.3095V293.5ZM93.4048 293.5H91.4524V295.5H93.4048V293.5ZM89.5 293.5H87.5476V295.5H89.5V293.5ZM85.5952 293.5H83.6429V295.5H85.5952V293.5ZM81.6905 293.5H79.7381V295.5H81.6905V293.5ZM77.7857 293.5H75.8334V295.5H77.7857V293.5ZM73.881 293.5H71.9286V295.5H73.881V293.5ZM69.9762 293.5H69V295.5H69.9762V293.5ZM68 294.5V295.494H70V294.5H68ZM68 297.483V299.472H70V297.483H68ZM68 301.461V303.45H70V301.461H68ZM68 305.439V307.428H70V305.439H68ZM68 309.417V311.406H70V309.417H68ZM68 313.395V315.384H70V313.395H68ZM68 317.373V319.362H70V317.373H68ZM68 321.351V323.34H70V321.351H68ZM68 325.329V327.318H70V325.329H68ZM68 329.307V331.296H70V329.307H68ZM68 333.285V335.274H70V333.285H68ZM68 337.263V339.252H70V337.263H68ZM68 341.241V343.23H70V341.241H68ZM68 345.219V347.208H70V345.219H68ZM68 349.197V351.186H70V349.197H68ZM68 353.175V355.164H70V353.175H68ZM68 357.153V359.142H70V357.153H68ZM68 361.131V363.119H70V361.131H68ZM68 365.108V367.097H70V365.108H68ZM68 369.086V371.075H70V369.086H68ZM68 373.064V375.053H70V373.064H68ZM68 377.042V379.031H70V377.042H68ZM68 381.02V383.009H70V381.02H68ZM68 384.998V386.987H70V384.998H68ZM68 388.976V390.965H70V388.976H68ZM68 392.954V394.943H70V392.954H68ZM68 396.932V398.921H70V396.932H68ZM68 400.91V402.899H70V400.91H68ZM68 404.888V406.877H70V404.888H68ZM68 408.866V410.855H70V408.866H68ZM68 412.844V414.833H70V412.844H68ZM68 416.822V418.811H70V416.822H68ZM68 420.8V422.789H70V420.8H68ZM68 424.777V426.766H70V424.777H68ZM68 428.755V430.744H70V428.755H68ZM68 432.733V434.722H70V432.733H68ZM68 436.711V438.7H70V436.711H68ZM68 440.689V442.678H70V440.689H68ZM68 444.667V446.656H70V444.667H68ZM68 448.645V450.634H70V448.645H68ZM68 452.623V454.612H70V452.623H68ZM68 456.601V458.59H70V456.601H68ZM68 460.579V462.568H70V460.579H68ZM68 464.557V466.546H70V464.557H68ZM68 468.535V470.524H70V468.535H68ZM68 472.513V474.502H70V472.513H68ZM68 476.491V478.48H70V476.491H68ZM68 480.469V482.458H70V480.469H68ZM68 484.447V486.436H70V484.447H68ZM68 488.424V490.413H70V488.424H68ZM68 492.402V494.391H70V492.402H68ZM68 496.38V498.369H70V496.38H68ZM68 500.358V502.347H70V500.358H68ZM68 504.336V506.325H70V504.336H68ZM68 508.314V510.303H70V508.314H68ZM68 512.292V514.281H70V512.292H68ZM68 516.27V518.259H70V516.27H68ZM68 520.248V522.237H70V520.248H68ZM68 524.226V526.215H70V524.226H68ZM68 528.204V530.193H70V528.204H68ZM68 532.182V534.171H70V532.182H68ZM68 536.16V538.149H70V536.16H68ZM68 540.138V542.127H70V540.138H68ZM68 544.116V546.105H70V544.116H68ZM68 548.094V550.082H70V548.094H68ZM68 552.071V554.06H70V552.071H68ZM68 556.049V558.038H70V556.049H68ZM68 560.027V562.016H70V560.027H68ZM68 564.005V565H70V564.005H68ZM69 566H69.9968V564H69V566ZM71.9904 566H73.984V564H71.9904V566ZM75.9776 566H77.9712V564H75.9776V566ZM79.9647 566H81.9583V564H79.9647V566ZM83.9519 566H85.9455V564H83.9519V566ZM87.9391 566H89.9327V564H87.9391V566ZM91.9263 566H93.9199V564H91.9263V566ZM95.9135 566H97.907V564H95.9135V566ZM99.9006 566H101.894V564H99.9006V566ZM103.888 566H105.881V564H103.888V566ZM107.875 566H109.869V564H107.875V566ZM111.862 566H113.856V564H111.862V566ZM115.849 566H117.843V564H115.849V566ZM119.837 566H121.83V564H119.837V566ZM123.824 566H125.817V564H123.824V566ZM127.811 566H129.805V564H127.811V566ZM131.798 566H133.792V564H131.798V566ZM135.785 566H137.779V564H135.785V566ZM139.772 566H141.766V564H139.772V566ZM143.76 566H145.753V564H143.76V566ZM147.747 566H149.74V564H147.747V566ZM151.734 566H153.728V564H151.734V566ZM155.721 566H157.715V564H155.721V566ZM159.708 566H161.702V564H159.708V566ZM163.696 566H165.689V564H163.696V566ZM167.683 566H169.676V564H167.683V566ZM171.67 566H173.664V564H171.67V566ZM175.657 566H177.651V564H175.657V566ZM179.644 566H181.638V564H179.644V566ZM183.631 566H185.625V564H183.631V566ZM187.619 566H189.612V564H187.619V566ZM191.606 566H193.599V564H191.606V566ZM195.593 566H197.587V564H195.593V566ZM199.58 566H201.574V564H199.58V566ZM203.567 566H205.561V564H203.567V566ZM207.555 566H209.548V564H207.555V566ZM211.542 566H213.535V564H211.542V566ZM215.529 566H217.523V564H215.529V566ZM219.516 566H221.51V564H219.516V566ZM223.503 566H225.497V564H223.503V566ZM227.49 566H229.484V564H227.49V566ZM231.478 566H233.471V564H231.478V566ZM235.465 566H237.458V564H235.465V566ZM239.452 566H241.446V564H239.452V566ZM243.439 566H245.433V564H243.439V566ZM247.426 566H249.42V564H247.426V566ZM251.414 566H253.407V564H251.414V566ZM255.401 566H257.394V564H255.401V566ZM259.388 566H261.382V564H259.388V566ZM263.375 566H265.369V564H263.375V566ZM267.362 566H269.356V564H267.362V566ZM271.349 566H273.343V564H271.349V566ZM275.337 566H277.33V564H275.337V566ZM279.324 566H281.317V564H279.324V566ZM283.311 566H285.305V564H283.311V566ZM287.298 566H289.292V564H287.298V566ZM291.285 566H293.279V564H291.285V566ZM295.273 566H297.266V564H295.273V566ZM299.26 566H301.253V564H299.26V566ZM303.247 566H305.241V564H303.247V566ZM307.234 566H309.228V564H307.234V566ZM311.221 566H313.215V564H311.221V566ZM315.209 566H317.202V564H315.209V566ZM319.196 566H321.189V564H319.196V566ZM323.183 566H325.176V564H323.183V566ZM327.17 566H329.164V564H327.17V566ZM331.157 566H333.151V564H331.157V566ZM335.144 566H337.138V564H335.144V566ZM339.132 566H341.125V564H339.132V566ZM343.119 566H345.112V564H343.119V566ZM347.106 566H349.1V564H347.106V566ZM351.093 566H353.087V564H351.093V566ZM355.08 566H357.074V564H355.08V566ZM359.068 566H361.061V564H359.068V566ZM363.055 566H365.048V564H363.055V566ZM367.042 566H369.035V564H367.042V566ZM371.029 566H373.023V564H371.029V566ZM375.016 566H377.01V564H375.016V566ZM379.003 566H380.997V564H379.003V566ZM382.991 566H384.984V564H382.991V566ZM386.978 566H388.971V564H386.978V566ZM390.965 566H392.959V564H390.965V566ZM394.952 566H396.946V564H394.952V566ZM398.939 566H400.933V564H398.939V566ZM402.927 566H404.92V564H402.927V566ZM406.914 566H408.907V564H406.914V566ZM410.901 566H412.894V564H410.901V566ZM414.888 566H416.882V564H414.888V566ZM418.875 566H420.869V564H418.875V566ZM422.862 566H424.856V564H422.862V566ZM426.85 566H428.843V564H426.85V566ZM430.837 566H432.83V564H430.837V566ZM434.824 566H436.818V564H434.824V566ZM438.811 566H440.805V564H438.811V566ZM442.798 566H444.792V564H442.798V566ZM446.786 566H448.779V564H446.786V566ZM450.773 566H452.766V564H450.773V566ZM454.76 566H456.753V564H454.76V566ZM458.747 566H460.741V564H458.747V566ZM462.734 566H464.728V564H462.734V566ZM466.721 566H468.715V564H466.721V566ZM470.709 566H472.702V564H470.709V566ZM474.696 566H476.689V564H474.696V566ZM478.683 566H480.677V564H478.683V566ZM482.67 566H484.664V564H482.67V566ZM486.657 566H488.651V564H486.657V566ZM490.645 566H492.638V564H490.645V566ZM494.632 566H496.625V564H494.632V566ZM498.619 566H500.612V564H498.619V566ZM502.606 566H504.6V564H502.606V566ZM506.593 566H508.587V564H506.593V566ZM510.58 566H512.574V564H510.58V566ZM514.568 566H516.561V564H514.568V566ZM518.555 566H520.548V564H518.555V566ZM522.542 566H524.536V564H522.542V566ZM526.529 566H528.523V564H526.529V566ZM530.516 566H532.51V564H530.516V566ZM534.504 566H535.5V564H534.504V566ZM534.5 565V565.984H536.5V565H534.5ZM534.5 567.953V569.922H536.5V567.953H534.5ZM534.5 571.891V573.859H536.5V571.891H534.5ZM534.5 575.828V577.797H536.5V575.828H534.5ZM534.5 579.766V581.734H536.5V579.766H534.5ZM534.5 583.703V585.672H536.5V583.703H534.5ZM534.5 587.641V589.609H536.5V587.641H534.5ZM534.5 591.578V593.547H536.5V591.578H534.5ZM534.5 595.516V597.484H536.5V595.516H534.5ZM534.5 599.453V601.422H536.5V599.453H534.5ZM534.5 603.391V605.359H536.5V603.391H534.5ZM534.5 607.328V609.297H536.5V607.328H534.5ZM534.5 611.266V613.234H536.5V611.266H534.5ZM534.5 615.203V617.172H536.5V615.203H534.5ZM534.5 619.141V621.109H536.5V619.141H534.5ZM534.5 623.078V625.047H536.5V623.078H534.5ZM534.5 627.016V628H536.5V627.016H534.5ZM535.5 629H536.504V627H535.5V629ZM538.512 629H540.52V627H538.512V629ZM542.528 629H544.536V627H542.528V629ZM546.544 629H548.552V627H546.544V629ZM550.56 629H552.568V627H550.56V629ZM554.576 629H556.584V627H554.576V629ZM558.592 629H560.6V627H558.592V629ZM562.608 629H564.616V627H562.608V629ZM566.624 629H568.632V627H566.624V629ZM570.64 629H572.648V627H570.64V629ZM574.656 629H576.664V627H574.656V629ZM578.672 629H580.68V627H578.672V629ZM582.688 629H584.695V627H582.688V629ZM586.703 629H588.711V627H586.703V629ZM590.719 629H592.727V627H590.719V629ZM594.735 629H596.743V627H594.735V629ZM598.751 629H600.759V627H598.751V629ZM602.767 629H604.775V627H602.767V629ZM606.783 629H608.791V627H606.783V629ZM610.799 629H612.807V627H610.799V629ZM614.815 629H616.823V627H614.815V629ZM618.831 629H620.839V627H618.831V629ZM622.847 629H624.855V627H622.847V629ZM626.863 629H628.871V627H626.863V629ZM630.879 629H632.887V627H630.879V629ZM634.895 629H636.903V627H634.895V629ZM638.911 629H640.919V627H638.911V629ZM642.927 629H644.935V627H642.927V629ZM646.943 629H648.951V627H646.943V629ZM650.959 629H652.967V627H650.959V629ZM654.975 629H656.983V627H654.975V629ZM658.991 629H660.999V627H658.991V629ZM663.007 629H665.015V627H663.007V629ZM667.023 629H669.031V627H667.023V629ZM671.039 629H673.047V627H671.039V629ZM675.055 629H677.063V627H675.055V629ZM679.071 629H681.079V627H679.071V629ZM683.086 629H685.094V627H683.086V629ZM687.102 629H689.11V627H687.102V629ZM691.118 629H693.126V627H691.118V629ZM695.134 629H697.142V627H695.134V629ZM699.15 629H701.158V627H699.15V629ZM703.166 629H705.174V627H703.166V629ZM707.182 629H709.19V627H707.182V629ZM711.198 629H713.206V627H711.198V629ZM715.214 629H717.222V627H715.214V629ZM719.23 629H721.238V627H719.23V629ZM723.246 629H724.25V627H723.246V629ZM112.5 769.5H111.511V771.5H112.5V769.5ZM109.534 769.5H107.557V771.5H109.534V769.5ZM105.58 769.5H103.602V771.5H105.58V769.5ZM101.625 769.5H99.6477V771.5H101.625V769.5ZM97.6705 769.5H95.6932V771.5H97.6705V769.5ZM93.7159 769.5H91.7386V771.5H93.7159V769.5ZM89.7614 769.5H87.7841V771.5H89.7614V769.5ZM85.8068 769.5H83.8295V771.5H85.8068V769.5ZM81.8523 769.5H79.875V771.5H81.8523V769.5ZM77.8977 769.5H75.9205V771.5H77.8977V769.5ZM73.9432 769.5H71.9659V771.5H73.9432V769.5ZM69.9886 769.5H69V771.5H69.9886V769.5ZM70 770.5V769.533H68V770.5H70ZM70 767.6V765.667H68V767.6H70ZM70 763.733V761.8H68V763.733H70ZM70 759.867V757.933H68V759.867H70ZM70 756V754.067H68V756H70ZM70 752.133V750.2H68V752.133H70ZM70 748.267V746.333H68V748.267H70ZM70 744.4V742.467H68V744.4H70ZM70 740.533V738.6H68V740.533H70ZM70 736.667V734.733H68V736.667H70ZM70 732.8V730.867H68V732.8H70ZM70 728.933V727H68V728.933H70ZM70 725.067V723.133H68V725.067H70ZM70 721.2V719.267H68V721.2H70ZM70 717.333V715.4H68V717.333H70ZM70 713.467V712.5H68V713.467H70ZM69 713.5H69.9989V711.5H69V713.5ZM71.9966 713.5H73.9943V711.5H71.9966V713.5ZM75.992 713.5H77.9897V711.5H75.992V713.5ZM79.9874 713.5H81.9851V711.5H79.9874V713.5ZM83.9829 713.5H85.9806V711.5H83.9829V713.5ZM87.9783 713.5H89.976V711.5H87.9783V713.5ZM91.9737 713.5H93.9714V711.5H91.9737V713.5ZM95.9691 713.5H97.9668V711.5H95.9691V713.5ZM99.9646 713.5H101.962V711.5H99.9646V713.5ZM103.96 713.5H105.958V711.5H103.96V713.5ZM107.955 713.5H109.953V711.5H107.955V713.5ZM111.951 713.5H113.949V711.5H111.951V713.5ZM115.946 713.5H117.944V711.5H115.946V713.5ZM119.942 713.5H121.939V711.5H119.942V713.5ZM123.937 713.5H125.935V711.5H123.937V713.5ZM127.933 713.5H129.93V711.5H127.933V713.5ZM131.928 713.5H133.926V711.5H131.928V713.5ZM135.923 713.5H137.921V711.5H135.923V713.5ZM139.919 713.5H141.917V711.5H139.919V713.5ZM143.914 713.5H145.912V711.5H143.914V713.5ZM147.91 713.5H149.907V711.5H147.91V713.5ZM151.905 713.5H153.903V711.5H151.905V713.5ZM155.901 713.5H157.898V711.5H155.901V713.5ZM159.896 713.5H161.894V711.5H159.896V713.5ZM163.891 713.5H165.889V711.5H163.891V713.5ZM167.887 713.5H169.885V711.5H167.887V713.5ZM171.882 713.5H173.88V711.5H171.882V713.5ZM175.878 713.5H177.875V711.5H175.878V713.5ZM179.873 713.5H181.871V711.5H179.873V713.5ZM183.868 713.5H185.866V711.5H183.868V713.5ZM187.864 713.5H189.862V711.5H187.864V713.5ZM191.859 713.5H193.857V711.5H191.859V713.5ZM195.855 713.5H197.852V711.5H195.855V713.5ZM199.85 713.5H201.848V711.5H199.85V713.5ZM203.846 713.5H205.843V711.5H203.846V713.5ZM207.841 713.5H209.839V711.5H207.841V713.5ZM211.836 713.5H213.834V711.5H211.836V713.5ZM215.832 713.5H217.83V711.5H215.832V713.5ZM219.827 713.5H221.825V711.5H219.827V713.5ZM223.823 713.5H225.82V711.5H223.823V713.5ZM227.818 713.5H229.816V711.5H227.818V713.5ZM231.814 713.5H233.811V711.5H231.814V713.5ZM235.809 713.5H237.807V711.5H235.809V713.5ZM239.804 713.5H241.802V711.5H239.804V713.5ZM243.8 713.5H245.798V711.5H243.8V713.5ZM247.795 713.5H249.793V711.5H247.795V713.5ZM251.791 713.5H253.788V711.5H251.791V713.5ZM255.786 713.5H257.784V711.5H255.786V713.5ZM259.782 713.5H261.779V711.5H259.782V713.5ZM263.777 713.5H265.775V711.5H263.777V713.5ZM267.772 713.5H269.77V711.5H267.772V713.5ZM271.768 713.5H273.765V711.5H271.768V713.5ZM275.763 713.5H277.761V711.5H275.763V713.5ZM279.759 713.5H281.756V711.5H279.759V713.5ZM283.754 713.5H285.752V711.5H283.754V713.5ZM287.749 713.5H289.747V711.5H287.749V713.5ZM291.745 713.5H293.743V711.5H291.745V713.5ZM295.74 713.5H297.738V711.5H295.74V713.5ZM299.736 713.5H301.733V711.5H299.736V713.5ZM303.731 713.5H305.729V711.5H303.731V713.5ZM307.727 713.5H309.724V711.5H307.727V713.5ZM311.722 713.5H313.72V711.5H311.722V713.5ZM315.717 713.5H317.715V711.5H315.717V713.5ZM319.713 713.5H321.711V711.5H319.713V713.5ZM323.708 713.5H325.706V711.5H323.708V713.5ZM327.704 713.5H329.701V711.5H327.704V713.5ZM331.699 713.5H333.697V711.5H331.699V713.5ZM335.695 713.5H337.692V711.5H335.695V713.5ZM339.69 713.5H341.688V711.5H339.69V713.5ZM343.685 713.5H345.683V711.5H343.685V713.5ZM347.681 713.5H349.679V711.5H347.681V713.5ZM351.676 713.5H353.674V711.5H351.676V713.5ZM355.672 713.5H357.669V711.5H355.672V713.5ZM359.667 713.5H361.665V711.5H359.667V713.5ZM363.663 713.5H365.66V711.5H363.663V713.5ZM367.658 713.5H369.656V711.5H367.658V713.5ZM371.653 713.5H373.651V711.5H371.653V713.5ZM375.649 713.5H377.646V711.5H375.649V713.5ZM379.644 713.5H381.642V711.5H379.644V713.5ZM383.64 713.5H385.637V711.5H383.64V713.5ZM387.635 713.5H389.633V711.5H387.635V713.5ZM391.63 713.5H393.628V711.5H391.63V713.5ZM395.626 713.5H397.624V711.5H395.626V713.5ZM399.621 713.5H401.619V711.5H399.621V713.5ZM403.617 713.5H405.614V711.5H403.617V713.5ZM407.612 713.5H409.61V711.5H407.612V713.5ZM411.608 713.5H413.605V711.5H411.608V713.5ZM415.603 713.5H417.601V711.5H415.603V713.5ZM419.598 713.5H421.596V711.5H419.598V713.5ZM423.594 713.5H425.592V711.5H423.594V713.5ZM427.589 713.5H429.587V711.5H427.589V713.5ZM431.585 713.5H433.582V711.5H431.585V713.5ZM435.58 713.5H437.578V711.5H435.58V713.5ZM439.576 713.5H441.573V711.5H439.576V713.5ZM443.571 713.5H445.569V711.5H443.571V713.5ZM447.566 713.5H449.564V711.5H447.566V713.5ZM451.562 713.5H453.56V711.5H451.562V713.5ZM455.557 713.5H457.555V711.5H455.557V713.5ZM459.553 713.5H461.55V711.5H459.553V713.5ZM463.548 713.5H465.546V711.5H463.548V713.5ZM467.543 713.5H469.541V711.5H467.543V713.5ZM471.539 713.5H473.537V711.5H471.539V713.5ZM475.534 713.5H477.532V711.5H475.534V713.5ZM479.53 713.5H481.527V711.5H479.53V713.5ZM483.525 713.5H485.523V711.5H483.525V713.5ZM487.521 713.5H489.518V711.5H487.521V713.5ZM491.516 713.5H493.514V711.5H491.516V713.5ZM495.511 713.5H497.509V711.5H495.511V713.5ZM499.507 713.5H501.505V711.5H499.507V713.5ZM503.502 713.5H505.5V711.5H503.502V713.5ZM507.498 713.5H509.495V711.5H507.498V713.5ZM511.493 713.5H513.491V711.5H511.493V713.5ZM515.489 713.5H517.486V711.5H515.489V713.5ZM519.484 713.5H521.482V711.5H519.484V713.5ZM523.479 713.5H525.477V711.5H523.479V713.5ZM527.475 713.5H529.473V711.5H527.475V713.5ZM531.47 713.5H533.468V711.5H531.47V713.5ZM535.466 713.5H537.463V711.5H535.466V713.5ZM539.461 713.5H541.459V711.5H539.461V713.5ZM543.457 713.5H545.454V711.5H543.457V713.5ZM547.452 713.5H549.45V711.5H547.452V713.5ZM551.447 713.5H553.445V711.5H551.447V713.5ZM555.443 713.5H557.44V711.5H555.443V713.5ZM559.438 713.5H561.436V711.5H559.438V713.5ZM563.434 713.5H565.431V711.5H563.434V713.5ZM567.429 713.5H569.427V711.5H567.429V713.5ZM571.424 713.5H573.422V711.5H571.424V713.5ZM575.42 713.5H577.418V711.5H575.42V713.5ZM579.415 713.5H581.413V711.5H579.415V713.5ZM583.411 713.5H585.409V711.5H583.411V713.5ZM587.406 713.5H589.404V711.5H587.406V713.5ZM591.402 713.5H593.399V711.5H591.402V713.5ZM595.397 713.5H597.395V711.5H595.397V713.5ZM599.393 713.5H601.39V711.5H599.393V713.5ZM603.388 713.5H605.386V711.5H603.388V713.5ZM607.384 713.5H609.381V711.5H607.384V713.5ZM611.379 713.5H613.377V711.5H611.379V713.5ZM615.375 713.5H617.372V711.5H615.375V713.5ZM619.37 713.5H621.368V711.5H619.37V713.5ZM623.366 713.5H625.363V711.5H623.366V713.5ZM627.361 713.5H629.359V711.5H627.361V713.5ZM631.357 713.5H633.354V711.5H631.357V713.5ZM635.352 713.5H637.35V711.5H635.352V713.5ZM639.348 713.5H641.345V711.5H639.348V713.5ZM643.343 713.5H645.341V711.5H643.343V713.5ZM647.339 713.5H649.336V711.5H647.339V713.5ZM651.334 713.5H653.332V711.5H651.334V713.5ZM655.329 713.5H657.327V711.5H655.329V713.5ZM659.325 713.5H661.323V711.5H659.325V713.5ZM663.32 713.5H665.318V711.5H663.32V713.5ZM667.316 713.5H669.314V711.5H667.316V713.5ZM671.311 713.5H673.309V711.5H671.311V713.5ZM675.307 713.5H677.305V711.5H675.307V713.5ZM679.302 713.5H681.3V711.5H679.302V713.5ZM683.298 713.5H685.296V711.5H683.298V713.5ZM687.293 713.5H689.291V711.5H687.293V713.5ZM691.289 713.5H693.287V711.5H691.289V713.5ZM695.284 713.5H697.282V711.5H695.284V713.5ZM699.28 713.5H701.278V711.5H699.28V713.5ZM703.275 713.5H705.273V711.5H703.275V713.5ZM707.271 713.5H709.268V711.5H707.271V713.5ZM711.266 713.5H713.264V711.5H711.266V713.5ZM715.262 713.5H717.259V711.5H715.262V713.5ZM719.257 713.5H721.255V711.5H719.257V713.5ZM723.253 713.5H724.25V711.5H723.253V713.5ZM725.25 712.5V711.494H723.25V712.5H725.25ZM725.25 709.482V707.47H723.25V709.482H725.25ZM725.25 705.458V703.446H723.25V705.458H725.25ZM725.25 701.435V699.423H723.25V701.435H725.25ZM725.25 697.411V695.399H723.25V697.411H725.25ZM725.25 693.387V691.375H723.25V693.387H725.25ZM725.25 689.363V687.351H723.25V689.363H725.25ZM725.25 685.339V683.327H723.25V685.339H725.25ZM725.25 681.315V679.304H723.25V681.315H725.25ZM725.25 677.292V675.28H723.25V677.292H725.25ZM725.25 673.268V671.256H723.25V673.268H725.25ZM725.25 669.244V667.232H723.25V669.244H725.25ZM725.25 665.22V663.208H723.25V665.22H725.25ZM725.25 661.196V659.185H723.25V661.196H725.25ZM725.25 657.173V655.161H723.25V657.173H725.25ZM725.25 653.149V651.137H723.25V653.149H725.25ZM725.25 649.125V647.113H723.25V649.125H725.25ZM725.25 645.101V643.089H723.25V645.101H725.25ZM725.25 641.077V639.065H723.25V641.077H725.25ZM725.25 637.054V635.042H723.25V637.054H725.25ZM725.25 633.03V631.018H723.25V633.03H725.25ZM725.25 629.006V628H723.25V629.006H725.25Z" fill="white" fill-opacity="0.2"/>
<path d="M108 86.5V147H599M599 147V86.5M599 147H727.5M727.5 147V86.5M727.5 147H843.5M843.5 147V86.5M843.5 147H974V86.5" stroke="white" stroke-opacity="0.2" stroke-linejoin="round" stroke-dasharray="2 2"/>
<defs>
<linearGradient id="paint0_linear_0_1" x1="720" y1="0" x2="720" y2="1308" gradientUnits="userSpaceOnUse">
<stop/>
<stop offset="1" stop-color="#151515"/>
</linearGradient>
</defs>
</svg>

