<svg width="22" height="23" viewBox="0 0 22 23" fill="none" xmlns="http://www.w3.org/2000/svg">
<g clip-path="url(#clip0_31_481)">
<path d="M15.5833 1.87061H6.41659C3.88528 1.87061 1.83325 3.96782 1.83325 6.55486V15.9234C1.83325 18.5104 3.88528 20.6076 6.41659 20.6076H15.5833C18.1146 20.6076 20.1666 18.5104 20.1666 15.9234V6.55486C20.1666 3.96782 18.1146 1.87061 15.5833 1.87061Z" stroke="#D9D9D9" stroke-width="2" stroke-linecap="round" stroke-linejoin="round"/>
<path d="M14.6666 10.6489C14.7797 11.4286 14.6494 12.2249 14.2942 12.9245C13.939 13.6242 13.377 14.1915 12.6881 14.5459C11.9992 14.9003 11.2185 15.0236 10.4571 14.8984C9.69563 14.7732 8.99222 14.4057 8.44687 13.8484C7.90153 13.291 7.54202 12.5721 7.4195 11.7939C7.29697 11.0157 7.41766 10.2178 7.7644 9.51379C8.11114 8.80972 8.66627 8.23533 9.35084 7.8723C10.0354 7.50927 10.8145 7.37609 11.5774 7.49171C12.3556 7.60964 13.076 7.98024 13.6323 8.54877C14.1886 9.11729 14.5512 9.85358 14.6666 10.6489Z" stroke="#D9D9D9" stroke-width="2" stroke-linecap="round" stroke-linejoin="round"/>
<path d="M16.0416 6.08643H16.0508" stroke="#D9D9D9" stroke-width="2" stroke-linecap="round" stroke-linejoin="round"/>
</g>
<defs>
<clipPath id="clip0_31_481">
<rect width="22" height="22.4844" fill="white" transform="translate(-6.10352e-05 -0.00317383)"/>
</clipPath>
</defs>
</svg>

