<svg width="487" height="100" viewBox="0 0 487 100" fill="none" xmlns="http://www.w3.org/2000/svg">
<path d="M20.8333 12.5C18.6232 12.5 16.5036 13.378 14.9408 14.9408C13.378 16.5036 12.5 18.6232 12.5 20.8333" stroke="#74C0B8" stroke-opacity="0.97" stroke-width="2" stroke-linecap="round" stroke-linejoin="round"/>
<path d="M79.1667 12.5C81.3768 12.5 83.4964 13.378 85.0592 14.9408C86.622 16.5036 87.5 18.6232 87.5 20.8333" stroke="#74C0B8" stroke-opacity="0.97" stroke-width="2" stroke-linecap="round" stroke-linejoin="round"/>
<path d="M87.5 79.1666C87.5 81.3768 86.622 83.4964 85.0592 85.0592C83.4964 86.622 81.3768 87.5 79.1667 87.5" stroke="#74C0B8" stroke-opacity="0.97" stroke-width="2" stroke-linecap="round" stroke-linejoin="round"/>
<path d="M20.8333 87.5C18.6232 87.5 16.5036 86.622 14.9408 85.0592C13.378 83.4964 12.5 81.3768 12.5 79.1666" stroke="#74C0B8" stroke-opacity="0.97" stroke-width="2" stroke-linecap="round" stroke-linejoin="round"/>
<path d="M37.5 12.5H41.6667" stroke="#74C0B8" stroke-opacity="0.97" stroke-width="2" stroke-linecap="round" stroke-linejoin="round"/>
<path d="M37.5 87.5H41.6667" stroke="#74C0B8" stroke-opacity="0.97" stroke-width="2" stroke-linecap="round" stroke-linejoin="round"/>
<path d="M58.3333 12.5H62.5" stroke="#74C0B8" stroke-opacity="0.97" stroke-width="2" stroke-linecap="round" stroke-linejoin="round"/>
<path d="M58.3333 87.5H62.5" stroke="#74C0B8" stroke-opacity="0.97" stroke-width="2" stroke-linecap="round" stroke-linejoin="round"/>
<path d="M12.5 37.5V41.6667" stroke="#74C0B8" stroke-opacity="0.97" stroke-width="2" stroke-linecap="round" stroke-linejoin="round"/>
<path d="M87.5 37.5V41.6667" stroke="#74C0B8" stroke-opacity="0.97" stroke-width="2" stroke-linecap="round" stroke-linejoin="round"/>
<path d="M12.5 58.3334V62.5" stroke="#74C0B8" stroke-opacity="0.97" stroke-width="2" stroke-linecap="round" stroke-linejoin="round"/>
<path d="M87.5 58.3334V62.5" stroke="#74C0B8" stroke-opacity="0.97" stroke-width="2" stroke-linecap="round" stroke-linejoin="round"/>
<path d="M29.1667 33.3334H62.5" stroke="#74C0B8" stroke-opacity="0.97" stroke-width="2" stroke-linecap="round" stroke-linejoin="round"/>
<path d="M29.1667 50H70.8333" stroke="#74C0B8" stroke-opacity="0.97" stroke-width="2" stroke-linecap="round" stroke-linejoin="round"/>
<path d="M29.1667 66.6666H54.1667" stroke="#74C0B8" stroke-opacity="0.97" stroke-width="2" stroke-linecap="round" stroke-linejoin="round"/>
<path d="M179 33.3334C199.711 33.3334 216.5 27.7369 216.5 20.8334C216.5 13.9298 199.711 8.33337 179 8.33337C158.289 8.33337 141.5 13.9298 141.5 20.8334C141.5 27.7369 158.289 33.3334 179 33.3334Z" stroke="#74C0B8" stroke-opacity="0.97" stroke-width="2" stroke-linecap="round" stroke-linejoin="round"/>
<path d="M141.5 20.8334V79.1667C141.5 82.4819 145.451 85.6613 152.483 88.0055C159.516 90.3497 169.054 91.6667 179 91.6667C188.946 91.6667 198.484 90.3497 205.516 88.0055C212.549 85.6613 216.5 82.4819 216.5 79.1667V20.8334" stroke="#74C0B8" stroke-opacity="0.97" stroke-width="2" stroke-linecap="round" stroke-linejoin="round"/>
<path d="M141.5 50C141.5 53.3152 145.451 56.4946 152.483 58.8388C159.516 61.183 169.054 62.5 179 62.5C188.946 62.5 198.484 61.183 205.516 58.8388C212.549 56.4946 216.5 53.3152 216.5 50" stroke="#74C0B8" stroke-opacity="0.97" stroke-width="2" stroke-linecap="round" stroke-linejoin="round"/>
<path d="M341.333 12.5H274.667C272.365 12.5 270.5 14.3655 270.5 16.6667V37.5C270.5 39.8012 272.365 41.6667 274.667 41.6667H341.333C343.635 41.6667 345.5 39.8012 345.5 37.5V16.6667C345.5 14.3655 343.635 12.5 341.333 12.5Z" stroke="#74C0B8" stroke-opacity="0.97" stroke-width="2" stroke-linecap="round" stroke-linejoin="round"/>
<path d="M303.833 58.3334H274.667C272.365 58.3334 270.5 60.1989 270.5 62.5V83.3334C270.5 85.6346 272.365 87.5 274.667 87.5H303.833C306.135 87.5 308 85.6346 308 83.3334V62.5C308 60.1989 306.135 58.3334 303.833 58.3334Z" stroke="#74C0B8" stroke-opacity="0.97" stroke-width="2" stroke-linecap="round" stroke-linejoin="round"/>
<path d="M341.333 58.3334H328.833C326.532 58.3334 324.667 60.1989 324.667 62.5V83.3334C324.667 85.6346 326.532 87.5 328.833 87.5H341.333C343.635 87.5 345.5 85.6346 345.5 83.3334V62.5C345.5 60.1989 343.635 58.3334 341.333 58.3334Z" stroke="#74C0B8" stroke-opacity="0.97" stroke-width="2" stroke-linecap="round" stroke-linejoin="round"/>
<path d="M437 18.7501C437.015 16.1433 436.053 13.6255 434.303 11.6938C432.552 9.76207 430.141 8.55687 427.545 8.31614C424.95 8.07541 422.358 8.81666 420.282 10.3935C418.207 11.9704 416.798 14.2682 416.333 16.8334C414.96 17.0907 413.652 17.6218 412.488 18.395C411.324 19.1682 410.327 20.1677 409.558 21.334C408.788 22.5003 408.261 23.8095 408.007 25.1838C407.754 26.5581 407.78 27.9693 408.083 29.3334C406.203 29.6672 404.45 30.5117 403.017 31.7745C401.584 33.0372 400.526 34.6697 399.958 36.4933C399.391 38.317 399.335 40.2616 399.798 42.1146C400.261 43.9677 401.225 45.6577 402.583 47C400.298 48.0551 398.385 49.7755 397.093 51.9361C395.802 54.0967 395.193 56.5968 395.346 59.1092C395.499 61.6216 396.407 64.0293 397.951 66.0171C399.495 68.0049 401.604 69.4803 404 70.25C403.542 71.9786 403.538 73.7958 403.986 75.5268C404.434 77.2578 405.32 78.8443 406.559 80.1335C407.798 81.4228 409.348 82.3714 411.06 82.888C412.772 83.4046 414.588 83.4719 416.333 83.0834C416.766 85.4662 418.015 87.6238 419.866 89.1853C421.717 90.7467 424.055 91.6144 426.476 91.639C428.898 91.6637 431.253 90.8438 433.135 89.3204C435.018 87.797 436.311 85.6652 436.792 83.2917L437 83.3334V18.7501Z" stroke="#74C0B8" stroke-opacity="0.97" stroke-width="2" stroke-linecap="round" stroke-linejoin="round"/>
<path d="M453.667 33.3333V20.8333C453.667 16.25 457.417 12.5 462 12.5" stroke="#74C0B8" stroke-opacity="0.97" stroke-width="2" stroke-linecap="round" stroke-linejoin="round"/>
<path d="M437 54.1666H453.667" stroke="#74C0B8" stroke-opacity="0.97" stroke-width="2" stroke-linecap="round" stroke-linejoin="round"/>
<path d="M437 75H462C464.21 75 466.33 75.878 467.893 77.4408C469.455 79.0036 470.333 81.1232 470.333 83.3333V87.5" stroke="#74C0B8" stroke-opacity="0.97" stroke-width="2" stroke-linecap="round" stroke-linejoin="round"/>
<path d="M437 33.3334H470.333" stroke="#74C0B8" stroke-opacity="0.97" stroke-width="2" stroke-linecap="round" stroke-linejoin="round"/>
<path d="M472.417 33.3333C472.417 33.8859 472.197 34.4158 471.806 34.8065C471.416 35.1972 470.886 35.4167 470.333 35.4167C469.781 35.4167 469.251 35.1972 468.86 34.8065C468.469 34.4158 468.25 33.8859 468.25 33.3333C468.25 32.7808 468.469 32.2509 468.86 31.8602C469.251 31.4695 469.781 31.25 470.333 31.25C470.886 31.25 471.416 31.4695 471.806 31.8602C472.197 32.2509 472.417 32.7808 472.417 33.3333Z" stroke="#74C0B8" stroke-opacity="0.97" stroke-width="2" stroke-linecap="round" stroke-linejoin="round"/>
<path d="M455.75 54.1667C455.75 54.7192 455.531 55.2491 455.14 55.6398C454.749 56.0305 454.219 56.25 453.667 56.25C453.114 56.25 452.584 56.0305 452.194 55.6398C451.803 55.2491 451.583 54.7192 451.583 54.1667C451.583 53.6142 451.803 53.0843 452.194 52.6936C452.584 52.3029 453.114 52.0834 453.667 52.0834C454.219 52.0834 454.749 52.3029 455.14 52.6936C455.531 53.0843 455.75 53.6142 455.75 54.1667Z" stroke="#74C0B8" stroke-opacity="0.97" stroke-width="2" stroke-linecap="round" stroke-linejoin="round"/>
<path d="M472.417 87.5C472.417 88.0525 472.197 88.5824 471.806 88.9731C471.416 89.3638 470.886 89.5833 470.333 89.5833C469.781 89.5833 469.251 89.3638 468.86 88.9731C468.469 88.5824 468.25 88.0525 468.25 87.5C468.25 86.9474 468.469 86.4175 468.86 86.0268C469.251 85.6361 469.781 85.4166 470.333 85.4166C470.886 85.4166 471.416 85.6361 471.806 86.0268C472.197 86.4175 472.417 86.9474 472.417 87.5Z" stroke="#74C0B8" stroke-opacity="0.97" stroke-width="2" stroke-linecap="round" stroke-linejoin="round"/>
<path d="M464.083 12.5C464.083 13.0525 463.864 13.5824 463.473 13.9731C463.082 14.3638 462.553 14.5833 462 14.5833C461.447 14.5833 460.918 14.3638 460.527 13.9731C460.136 13.5824 459.917 13.0525 459.917 12.5C459.917 11.9474 460.136 11.4175 460.527 11.0268C460.918 10.6361 461.447 10.4166 462 10.4166C462.553 10.4166 463.082 10.6361 463.473 11.0268C463.864 11.4175 464.083 11.9474 464.083 12.5Z" stroke="#74C0B8" stroke-opacity="0.97" stroke-width="2" stroke-linecap="round" stroke-linejoin="round"/>
</svg>

