<svg width="22" height="23" viewBox="0 0 22 23" fill="none" xmlns="http://www.w3.org/2000/svg">
<path d="M13.75 20.6076V16.8602C13.8775 15.6866 13.5483 14.5088 12.8333 13.5812C15.5833 13.5812 18.3333 11.7075 18.3333 8.42856C18.4067 7.2575 18.0858 6.10517 17.4167 5.14958C17.6733 4.07221 17.6733 2.94798 17.4167 1.87061C17.4167 1.87061 16.5 1.87061 14.6667 3.27588C12.2467 2.80746 9.75335 2.80746 7.33335 3.27588C5.50001 1.87061 4.58335 1.87061 4.58335 1.87061C4.30835 2.94798 4.30835 4.07221 4.58335 5.14958C3.9159 6.10132 3.59195 7.26011 3.66668 8.42856C3.66668 11.7075 6.41668 13.5812 9.16668 13.5812C8.80918 14.0403 8.54335 14.5649 8.38751 15.127C8.23168 15.6892 8.18585 16.2794 8.25001 16.8602V20.6076" stroke="#CCCCCC" stroke-opacity="0.97" stroke-width="2" stroke-linecap="round" stroke-linejoin="round"/>
<path d="M8.24998 16.86C4.11581 18.7337 3.66665 14.9863 1.83331 14.9863" stroke="#CCCCCC" stroke-opacity="0.97" stroke-width="2" stroke-linecap="round" stroke-linejoin="round"/>
</svg>

