<svg width="355" height="808" viewBox="0 0 355 808" fill="none" xmlns="http://www.w3.org/2000/svg">
<path d="M349.333 3.5C349.333 4.97276 350.527 6.16667 352 6.16667C353.473 6.16667 354.667 4.97276 354.667 3.5C354.667 2.02724 353.473 0.833333 352 0.833333C350.527 0.833333 349.333 2.02724 349.333 3.5ZM1 3.5V3C0.723858 3 0.5 3.22386 0.5 3.5H1ZM49.3333 217.5C49.3333 218.973 50.5272 220.167 52 220.167C53.4728 220.167 54.6667 218.973 54.6667 217.5C54.6667 216.027 53.4728 214.833 52 214.833C50.5272 214.833 49.3333 216.027 49.3333 217.5ZM49.3333 314.5C49.3333 315.973 50.5272 317.167 52 317.167C53.4728 317.167 54.6667 315.973 54.6667 314.5C54.6667 313.027 53.4728 311.833 52 311.833C50.5272 311.833 49.3333 313.027 49.3333 314.5ZM49.3333 408C49.3333 409.473 50.5272 410.667 52 410.667C53.4728 410.667 54.6667 409.473 54.6667 408C54.6667 406.527 53.4728 405.333 52 405.333C50.5272 405.333 49.3333 406.527 49.3333 408ZM49.3333 506.5C49.3333 507.973 50.5272 509.167 52 509.167C53.4728 509.167 54.6667 507.973 54.6667 506.5C54.6667 505.027 53.4728 503.833 52 503.833C50.5272 503.833 49.3333 505.027 49.3333 506.5ZM49.3333 605.5C49.3333 606.973 50.5272 608.167 52 608.167C53.4728 608.167 54.6667 606.973 54.6667 605.5C54.6667 604.027 53.4728 602.833 52 602.833C50.5272 602.833 49.3333 604.027 49.3333 605.5ZM49.3333 704.5C49.3333 705.973 50.5272 707.167 52 707.167C53.4728 707.167 54.6667 705.973 54.6667 704.5C54.6667 703.027 53.4728 701.833 52 701.833C50.5272 701.833 49.3333 703.027 49.3333 704.5ZM1 805H0.5C0.5 805.276 0.723858 805.5 1 805.5V805ZM49.3333 805C49.3333 806.473 50.5272 807.667 52 807.667C53.4728 807.667 54.6667 806.473 54.6667 805C54.6667 803.527 53.4728 802.333 52 802.333C50.5272 802.333 49.3333 803.527 49.3333 805ZM1.5 217.5V216.509H0.5V217.5H1.5ZM1.5 214.528V212.546H0.5V214.528H1.5ZM1.5 210.565V208.583H0.5V210.565H1.5ZM1.5 206.602V204.62H0.5V206.602H1.5ZM1.5 202.639V200.657H0.5V202.639H1.5ZM1.5 198.676V196.694H0.5V198.676H1.5ZM1.5 194.713V192.731H0.5V194.713H1.5ZM1.5 190.75V188.769H0.5V190.75H1.5ZM1.5 186.787V184.806H0.5V186.787H1.5ZM1.5 182.824V180.843H0.5V182.824H1.5ZM1.5 178.861V176.88H0.5V178.861H1.5ZM1.5 174.898V172.917H0.5V174.898H1.5ZM1.5 170.935V168.954H0.5V170.935H1.5ZM1.5 166.972V164.991H0.5V166.972H1.5ZM1.5 163.009V161.028H0.5V163.009H1.5ZM1.5 159.046V157.065H0.5V159.046H1.5ZM1.5 155.083V153.102H0.5V155.083H1.5ZM1.5 151.12V149.139H0.5V151.12H1.5ZM1.5 147.157V145.176H0.5V147.157H1.5ZM1.5 143.194V141.213H0.5V143.194H1.5ZM1.5 139.232V137.25H0.5V139.232H1.5ZM1.5 135.269V133.287H0.5V135.269H1.5ZM1.5 131.306V129.324H0.5V131.306H1.5ZM1.5 127.343V125.361H0.5V127.343H1.5ZM1.5 123.38V121.398H0.5V123.38H1.5ZM1.5 119.417V117.435H0.5V119.417H1.5ZM1.5 115.454V113.472H0.5V115.454H1.5ZM1.5 111.491V109.509H0.5V111.491H1.5ZM1.5 107.528V105.546H0.5V107.528H1.5ZM1.5 103.565V101.583H0.5V103.565H1.5ZM1.5 99.6018V97.6203H0.5V99.6018H1.5ZM1.5 95.6389V93.6574H0.5V95.6389H1.5ZM1.5 91.6759V89.6944H0.5V91.6759H1.5ZM1.5 87.7129V85.7315H0.5V87.7129H1.5ZM1.5 83.75V81.7685H0.5V83.75H1.5ZM1.5 79.787V77.8055H0.5V79.787H1.5ZM1.5 75.8241V73.8426H0.5V75.8241H1.5ZM1.5 71.8611V69.8797H0.5V71.8611H1.5ZM1.5 67.8982V65.9167H0.5V67.8982H1.5ZM1.5 63.9352V61.9537H0.5V63.9352H1.5ZM1.5 59.9723V57.9908H0.5V59.9723H1.5ZM1.5 56.0093V54.0279H0.5V56.0093H1.5ZM1.5 52.0464V50.0649H0.5V52.0464H1.5ZM1.5 48.0834V46.1019H0.5V48.0834H1.5ZM1.5 44.1205V42.139H0.5V44.1205H1.5ZM1.5 40.1575V38.176H0.5V40.1575H1.5ZM1.5 36.1946V34.2131H0.5V36.1946H1.5ZM1.5 32.2316V30.2501H0.5V32.2316H1.5ZM1.5 28.2687V26.2872H0.5V28.2687H1.5ZM1.5 24.3057V22.3242H0.5V24.3057H1.5ZM1.5 20.3428V18.3613H0.5V20.3428H1.5ZM1.5 16.3798V14.3983H0.5V16.3798H1.5ZM1.5 12.4168V10.4354H0.5V12.4168H1.5ZM1.5 8.4539V6.47243H0.5V8.4539H1.5ZM1.5 4.49095V3.5H0.5V4.49095H1.5ZM1 4H1.99716V3H1V4ZM3.99148 4H5.9858V3H3.99148V4ZM7.98011 4H9.97443V3H7.98011V4ZM11.9688 4H13.9631V3H11.9688V4ZM15.9574 4H17.9517V3H15.9574V4ZM19.946 4H21.9403V3H19.946V4ZM23.9347 4H25.929V3H23.9347V4ZM27.9233 4H29.9176V3H27.9233V4ZM31.9119 4H33.9062V3H31.9119V4ZM35.9006 4H37.8949V3H35.9006V4ZM39.8892 4H41.8835V3H39.8892V4ZM43.8778 4H45.8722V3H43.8778V4ZM47.8665 4H49.8608V3H47.8665V4ZM51.8551 4H53.8494V3H51.8551V4ZM55.8438 4H57.8381V3H55.8438V4ZM59.8324 4H61.8267V3H59.8324V4ZM63.821 4H65.8154V3H63.821V4ZM67.8097 4H69.804V3H67.8097V4ZM71.7983 4H73.7926V3H71.7983V4ZM75.7869 4H77.7813V3H75.7869V4ZM79.7756 4H81.7699V3H79.7756V4ZM83.7642 4H85.7585V3H83.7642V4ZM87.7528 4H89.7472V3H87.7528V4ZM91.7415 4H93.7358V3H91.7415V4ZM95.7301 4H97.7244V3H95.7301V4ZM99.7187 4H101.713V3H99.7187V4ZM103.707 4H105.702V3H103.707V4ZM107.696 4H109.69V3H107.696V4ZM111.685 4H113.679V3H111.685V4ZM115.673 4H117.668V3H115.673V4ZM119.662 4H121.656V3H119.662V4ZM123.651 4H125.645V3H123.651V4ZM127.639 4H129.633V3H127.639V4ZM131.628 4H133.622V3H131.628V4ZM135.616 4H137.611V3H135.616V4ZM139.605 4H141.599V3H139.605V4ZM143.594 4H145.588V3H143.594V4ZM147.582 4H149.577V3H147.582V4ZM151.571 4H153.565V3H151.571V4ZM155.56 4H157.554V3H155.56V4ZM159.548 4H161.543V3H159.548V4ZM163.537 4H165.531V3H163.537V4ZM167.526 4H169.52V3H167.526V4ZM171.514 4H173.509V3H171.514V4ZM175.503 4H177.497V3H175.503V4ZM179.492 4H181.486V3H179.492V4ZM183.48 4H185.475V3H183.48V4ZM187.469 4H189.463V3H187.469V4ZM191.458 4H193.452V3H191.458V4ZM195.446 4H197.441V3H195.446V4ZM199.435 4H201.429V3H199.435V4ZM203.423 4H205.418V3H203.423V4ZM207.412 4H209.406V3H207.412V4ZM211.401 4H213.395V3H211.401V4ZM215.389 4H217.384V3H215.389V4ZM219.378 4H221.372V3H219.378V4ZM223.367 4H225.361V3H223.367V4ZM227.355 4H229.35V3H227.355V4ZM231.344 4H233.338V3H231.344V4ZM235.333 4H237.327V3H235.333V4ZM239.321 4H241.316V3H239.321V4ZM243.31 4H245.304V3H243.31V4ZM247.299 4H249.293V3H247.299V4ZM251.287 4H253.282V3H251.287V4ZM255.276 4H257.27V3H255.276V4ZM259.265 4H261.259V3H259.265V4ZM263.253 4H265.247V3H263.253V4ZM267.242 4H269.236V3H267.242V4ZM271.23 4H273.225V3H271.23V4ZM275.219 4H277.213V3H275.219V4ZM279.208 4H281.202V3H279.208V4ZM283.196 4H285.191V3H283.196V4ZM287.185 4H289.179V3H287.185V4ZM291.174 4H293.168V3H291.174V4ZM295.162 4H297.157V3H295.162V4ZM299.151 4H301.145V3H299.151V4ZM303.14 4H305.134V3H303.14V4ZM307.128 4H309.123V3H307.128V4ZM311.117 4H313.111V3H311.117V4ZM315.106 4H317.1V3H315.106V4ZM319.094 4H321.089V3H319.094V4ZM323.083 4H325.077V3H323.083V4ZM327.072 4H329.066V3H327.072V4ZM331.06 4H333.055V3H331.06V4ZM335.049 4H337.043V3H335.049V4ZM339.037 4H341.032V3H339.037V4ZM343.026 4H345.02V3H343.026V4ZM347.015 4H349.009V3H347.015V4ZM351.003 4H352V3H351.003V4ZM1 218H1.98077V217H1V218ZM3.94231 218H5.90385V217H3.94231V218ZM7.86538 218H9.82692V217H7.86538V218ZM11.7885 218H13.75V217H11.7885V218ZM15.7115 218H17.6731V217H15.7115V218ZM19.6346 218H21.5962V217H19.6346V218ZM23.5577 218H25.5192V217H23.5577V218ZM27.4808 218H29.4423V217H27.4808V218ZM31.4038 218H33.3654V217H31.4038V218ZM35.3269 218H37.2885V217H35.3269V218ZM39.25 218H41.2115V217H39.25V218ZM43.1731 218H45.1346V217H43.1731V218ZM47.0962 218H49.0577V217H47.0962V218ZM51.0192 218H52V217H51.0192V218ZM0.5 217.5V218.51H1.5V217.5H0.5ZM0.5 220.531V222.552H1.5V220.531H0.5ZM0.5 224.573V226.594H1.5V224.573H0.5ZM0.5 228.615V230.635H1.5V228.615H0.5ZM0.5 232.656V234.677H1.5V232.656H0.5ZM0.5 236.698V238.719H1.5V236.698H0.5ZM0.5 240.74V242.76H1.5V240.74H0.5ZM0.5 244.781V246.802H1.5V244.781H0.5ZM0.5 248.823V250.844H1.5V248.823H0.5ZM0.5 252.865V254.885H1.5V252.865H0.5ZM0.5 256.906V258.927H1.5V256.906H0.5ZM0.5 260.948V262.969H1.5V260.948H0.5ZM0.5 264.99V267.01H1.5V264.99H0.5ZM0.5 269.031V271.052H1.5V269.031H0.5ZM0.5 273.073V275.094H1.5V273.073H0.5ZM0.5 277.115V279.135H1.5V277.115H0.5ZM0.5 281.156V283.177H1.5V281.156H0.5ZM0.5 285.198V287.219H1.5V285.198H0.5ZM0.5 289.24V291.26H1.5V289.24H0.5ZM0.5 293.281V295.302H1.5V293.281H0.5ZM0.5 297.323V299.344H1.5V297.323H0.5ZM0.5 301.365V303.385H1.5V301.365H0.5ZM0.5 305.406V307.427H1.5V305.406H0.5ZM0.5 309.448V311.469H1.5V309.448H0.5ZM0.5 313.49V314.5H1.5V313.49H0.5ZM1 315H1.98077V314H1V315ZM3.94231 315H5.90385V314H3.94231V315ZM7.86538 315H9.82692V314H7.86538V315ZM11.7885 315H13.75V314H11.7885V315ZM15.7115 315H17.6731V314H15.7115V315ZM19.6346 315H21.5962V314H19.6346V315ZM23.5577 315H25.5192V314H23.5577V315ZM27.4808 315H29.4423V314H27.4808V315ZM31.4038 315H33.3654V314H31.4038V315ZM35.3269 315H37.2885V314H35.3269V315ZM39.25 315H41.2115V314H39.25V315ZM43.1731 315H45.1346V314H43.1731V315ZM47.0962 315H49.0577V314H47.0962V315ZM51.0192 315H52V314H51.0192V315ZM0.5 314.5V315.516H1.5V314.5H0.5ZM0.5 317.549V319.582H1.5V317.549H0.5ZM0.5 321.614V323.647H1.5V321.614H0.5ZM0.5 325.679V327.712H1.5V325.679H0.5ZM0.5 329.745V331.777H1.5V329.745H0.5ZM0.5 333.81V335.842H1.5V333.81H0.5ZM0.5 337.875V339.908H1.5V337.875H0.5ZM0.5 341.94V343.973H1.5V341.94H0.5ZM0.5 346.005V348.038H1.5V346.005H0.5ZM0.5 350.071V352.103H1.5V350.071H0.5ZM0.5 354.136V356.168H1.5V354.136H0.5ZM0.5 358.201V360.234H1.5V358.201H0.5ZM0.5 362.266V364.299H1.5V362.266H0.5ZM0.5 366.332V368.364H1.5V366.332H0.5ZM0.5 370.397V372.429H1.5V370.397H0.5ZM0.5 374.462V376.495H1.5V374.462H0.5ZM0.5 378.527V380.56H1.5V378.527H0.5ZM0.5 382.592V384.625H1.5V382.592H0.5ZM0.5 386.658V388.69H1.5V386.658H0.5ZM0.5 390.723V392.755H1.5V390.723H0.5ZM0.5 394.788V396.821H1.5V394.788H0.5ZM0.5 398.853V400.886H1.5V398.853H0.5ZM0.5 402.918V404.951H1.5V402.918H0.5ZM0.5 406.984V408H1.5V406.984H0.5ZM1 408.5H1.98077V407.5H1V408.5ZM3.94231 408.5H5.90385V407.5H3.94231V408.5ZM7.86538 408.5H9.82692V407.5H7.86538V408.5ZM11.7885 408.5H13.75V407.5H11.7885V408.5ZM15.7115 408.5H17.6731V407.5H15.7115V408.5ZM19.6346 408.5H21.5962V407.5H19.6346V408.5ZM23.5577 408.5H25.5192V407.5H23.5577V408.5ZM27.4808 408.5H29.4423V407.5H27.4808V408.5ZM31.4038 408.5H33.3654V407.5H31.4038V408.5ZM35.3269 408.5H37.2885V407.5H35.3269V408.5ZM39.25 408.5H41.2115V407.5H39.25V408.5ZM43.1731 408.5H45.1346V407.5H43.1731V408.5ZM47.0962 408.5H49.0577V407.5H47.0962V408.5ZM51.0192 408.5H52V407.5H51.0192V408.5ZM0.5 408V408.985H1.5V408H0.5ZM0.5 410.955V412.925H1.5V410.955H0.5ZM0.5 414.895V416.865H1.5V414.895H0.5ZM0.5 418.835V420.805H1.5V418.835H0.5ZM0.5 422.775V424.745H1.5V422.775H0.5ZM0.5 426.715V428.685H1.5V426.715H0.5ZM0.5 430.655V432.625H1.5V430.655H0.5ZM0.5 434.595V436.565H1.5V434.595H0.5ZM0.5 438.535V440.505H1.5V438.535H0.5ZM0.5 442.475V444.445H1.5V442.475H0.5ZM0.5 446.415V448.385H1.5V446.415H0.5ZM0.5 450.355V452.325H1.5V450.355H0.5ZM0.5 454.295V456.265H1.5V454.295H0.5ZM0.5 458.235V460.205H1.5V458.235H0.5ZM0.5 462.175V464.145H1.5V462.175H0.5ZM0.5 466.115V468.085H1.5V466.115H0.5ZM0.5 470.055V472.025H1.5V470.055H0.5ZM0.5 473.995V475.965H1.5V473.995H0.5ZM0.5 477.935V479.905H1.5V477.935H0.5ZM0.5 481.875V483.845H1.5V481.875H0.5ZM0.5 485.815V487.785H1.5V485.815H0.5ZM0.5 489.755V491.725H1.5V489.755H0.5ZM0.5 493.695V495.665H1.5V493.695H0.5ZM0.5 497.635V499.605H1.5V497.635H0.5ZM0.5 501.575V503.545H1.5V501.575H0.5ZM0.5 505.515V506.5H1.5V505.515H0.5ZM1 507H1.98077V506H1V507ZM3.94231 507H5.90385V506H3.94231V507ZM7.86538 507H9.82692V506H7.86538V507ZM11.7885 507H13.75V506H11.7885V507ZM15.7115 507H17.6731V506H15.7115V507ZM19.6346 507H21.5962V506H19.6346V507ZM23.5577 507H25.5192V506H23.5577V507ZM27.4808 507H29.4423V506H27.4808V507ZM31.4038 507H33.3654V506H31.4038V507ZM35.3269 507H37.2885V506H35.3269V507ZM39.25 507H41.2115V506H39.25V507ZM43.1731 507H45.1346V506H43.1731V507ZM47.0962 507H49.0577V506H47.0962V507ZM51.0192 507H52V506H51.0192V507ZM0.5 506.5V507.49H1.5V506.5H0.5ZM0.5 509.47V511.45H1.5V509.47H0.5ZM0.5 513.43V515.41H1.5V513.43H0.5ZM0.5 517.39V519.37H1.5V517.39H0.5ZM0.5 521.35V523.33H1.5V521.35H0.5ZM0.5 525.31V527.29H1.5V525.31H0.5ZM0.5 529.27V531.25H1.5V529.27H0.5ZM0.5 533.23V535.21H1.5V533.23H0.5ZM0.5 537.19V539.17H1.5V537.19H0.5ZM0.5 541.15V543.13H1.5V541.15H0.5ZM0.5 545.11V547.09H1.5V545.11H0.5ZM0.5 549.07V551.05H1.5V549.07H0.5ZM0.5 553.03V555.01H1.5V553.03H0.5ZM0.5 556.99V558.97H1.5V556.99H0.5ZM0.5 560.95V562.93H1.5V560.95H0.5ZM0.5 564.91V566.89H1.5V564.91H0.5ZM0.5 568.87V570.85H1.5V568.87H0.5ZM0.5 572.83V574.81H1.5V572.83H0.5ZM0.5 576.79V578.77H1.5V576.79H0.5ZM0.5 580.75V582.73H1.5V580.75H0.5ZM0.5 584.71V586.69H1.5V584.71H0.5ZM0.5 588.67V590.65H1.5V588.67H0.5ZM0.5 592.63V594.61H1.5V592.63H0.5ZM0.5 596.59V598.57H1.5V596.59H0.5ZM0.5 600.55V602.53H1.5V600.55H0.5ZM0.5 604.51V605.5H1.5V604.51H0.5ZM1 606H1.98077V605H1V606ZM3.94231 606H5.90385V605H3.94231V606ZM7.86538 606H9.82692V605H7.86538V606ZM11.7885 606H13.75V605H11.7885V606ZM15.7115 606H17.6731V605H15.7115V606ZM19.6346 606H21.5962V605H19.6346V606ZM23.5577 606H25.5192V605H23.5577V606ZM27.4808 606H29.4423V605H27.4808V606ZM31.4038 606H33.3654V605H31.4038V606ZM35.3269 606H37.2885V605H35.3269V606ZM39.25 606H41.2115V605H39.25V606ZM43.1731 606H45.1346V605H43.1731V606ZM47.0962 606H49.0577V605H47.0962V606ZM51.0192 606H52V605H51.0192V606ZM0.5 605.5V606.49H1.5V605.5H0.5ZM0.5 608.47V610.45H1.5V608.47H0.5ZM0.5 612.43V614.41H1.5V612.43H0.5ZM0.5 616.39V618.37H1.5V616.39H0.5ZM0.5 620.35V622.33H1.5V620.35H0.5ZM0.5 624.31V626.29H1.5V624.31H0.5ZM0.5 628.27V630.25H1.5V628.27H0.5ZM0.5 632.23V634.21H1.5V632.23H0.5ZM0.5 636.19V638.17H1.5V636.19H0.5ZM0.5 640.15V642.13H1.5V640.15H0.5ZM0.5 644.11V646.09H1.5V644.11H0.5ZM0.5 648.07V650.05H1.5V648.07H0.5ZM0.5 652.03V654.01H1.5V652.03H0.5ZM0.5 655.99V657.97H1.5V655.99H0.5ZM0.5 659.95V661.93H1.5V659.95H0.5ZM0.5 663.91V665.89H1.5V663.91H0.5ZM0.5 667.87V669.85H1.5V667.87H0.5ZM0.5 671.83V673.81H1.5V671.83H0.5ZM0.5 675.79V677.77H1.5V675.79H0.5ZM0.5 679.75V681.73H1.5V679.75H0.5ZM0.5 683.71V685.69H1.5V683.71H0.5ZM0.5 687.67V689.65H1.5V687.67H0.5ZM0.5 691.63V693.61H1.5V691.63H0.5ZM0.5 695.59V697.57H1.5V695.59H0.5ZM0.5 699.55V701.53H1.5V699.55H0.5ZM0.5 703.51V704.5H1.5V703.51H0.5ZM1 705H1.98077V704H1V705ZM3.94231 705H5.90385V704H3.94231V705ZM7.86538 705H9.82692V704H7.86538V705ZM11.7885 705H13.75V704H11.7885V705ZM15.7115 705H17.6731V704H15.7115V705ZM19.6346 705H21.5962V704H19.6346V705ZM23.5577 705H25.5192V704H23.5577V705ZM27.4808 705H29.4423V704H27.4808V705ZM31.4038 705H33.3654V704H31.4038V705ZM35.3269 705H37.2885V704H35.3269V705ZM39.25 705H41.2115V704H39.25V705ZM43.1731 705H45.1346V704H43.1731V705ZM47.0962 705H49.0577V704H47.0962V705ZM51.0192 705H52V704H51.0192V705ZM0.5 704.5V705.505H1.5V704.5H0.5ZM0.5 707.515V709.525H1.5V707.515H0.5ZM0.5 711.535V713.545H1.5V711.535H0.5ZM0.5 715.555V717.565H1.5V715.555H0.5ZM0.5 719.575V721.585H1.5V719.575H0.5ZM0.5 723.595V725.605H1.5V723.595H0.5ZM0.5 727.615V729.625H1.5V727.615H0.5ZM0.5 731.635V733.645H1.5V731.635H0.5ZM0.5 735.655V737.665H1.5V735.655H0.5ZM0.5 739.675V741.685H1.5V739.675H0.5ZM0.5 743.695V745.705H1.5V743.695H0.5ZM0.5 747.715V749.725H1.5V747.715H0.5ZM0.5 751.735V753.745H1.5V751.735H0.5ZM0.5 755.755V757.765H1.5V755.755H0.5ZM0.5 759.775V761.785H1.5V759.775H0.5ZM0.5 763.795V765.805H1.5V763.795H0.5ZM0.5 767.815V769.825H1.5V767.815H0.5ZM0.5 771.835V773.845H1.5V771.835H0.5ZM0.5 775.855V777.865H1.5V775.855H0.5ZM0.5 779.875V781.885H1.5V779.875H0.5ZM0.5 783.895V785.905H1.5V783.895H0.5ZM0.5 787.915V789.925H1.5V787.915H0.5ZM0.5 791.935V793.945H1.5V791.935H0.5ZM0.5 795.955V797.965H1.5V795.955H0.5ZM0.5 799.975V801.985H1.5V799.975H0.5ZM0.5 803.995V805H1.5V803.995H0.5ZM1 805.5H1.98077V804.5H1V805.5ZM3.94231 805.5H5.90385V804.5H3.94231V805.5ZM7.86538 805.5H9.82692V804.5H7.86538V805.5ZM11.7885 805.5H13.75V804.5H11.7885V805.5ZM15.7115 805.5H17.6731V804.5H15.7115V805.5ZM19.6346 805.5H21.5962V804.5H19.6346V805.5ZM23.5577 805.5H25.5192V804.5H23.5577V805.5ZM27.4808 805.5H29.4423V804.5H27.4808V805.5ZM31.4038 805.5H33.3654V804.5H31.4038V805.5ZM35.3269 805.5H37.2885V804.5H35.3269V805.5ZM39.25 805.5H41.2115V804.5H39.25V805.5ZM43.1731 805.5H45.1346V804.5H43.1731V805.5ZM47.0962 805.5H49.0577V804.5H47.0962V805.5ZM51.0192 805.5H52V804.5H51.0192V805.5Z" fill="white" fill-opacity="0.51"/>
</svg>

