<svg width="357" height="656" viewBox="0 0 357 656" fill="none" xmlns="http://www.w3.org/2000/svg">
<path d="M0.833333 3.5C0.833333 4.97276 2.02724 6.16667 3.5 6.16667C4.97276 6.16667 6.16667 4.97276 6.16667 3.5C6.16667 2.02724 4.97276 0.833333 3.5 0.833333C2.02724 0.833333 0.833333 2.02724 0.833333 3.5ZM356 3.5H356.5C356.5 3.22386 356.276 3 356 3V3.5ZM273.833 207.5C273.833 208.973 275.027 210.167 276.5 210.167C277.973 210.167 279.167 208.973 279.167 207.5C279.167 206.027 277.973 204.833 276.5 204.833C275.027 204.833 273.833 206.027 273.833 207.5ZM273.833 283.5C273.833 284.973 275.027 286.167 276.5 286.167C277.973 286.167 279.167 284.973 279.167 283.5C279.167 282.027 277.973 280.833 276.5 280.833C275.027 280.833 273.833 282.027 273.833 283.5ZM273.833 354.5C273.833 355.973 275.027 357.167 276.5 357.167C277.973 357.167 279.167 355.973 279.167 354.5C279.167 353.027 277.973 351.833 276.5 351.833C275.027 351.833 273.833 353.027 273.833 354.5ZM273.833 427.5C273.833 428.973 275.027 430.167 276.5 430.167C277.973 430.167 279.167 428.973 279.167 427.5C279.167 426.027 277.973 424.833 276.5 424.833C275.027 424.833 273.833 426.027 273.833 427.5ZM273.833 503C273.833 504.473 275.027 505.667 276.5 505.667C277.973 505.667 279.167 504.473 279.167 503C279.167 501.527 277.973 500.333 276.5 500.333C275.027 500.333 273.833 501.527 273.833 503ZM273.833 578.5C273.833 579.973 275.027 581.167 276.5 581.167C277.973 581.167 279.167 579.973 279.167 578.5C279.167 577.027 277.973 575.833 276.5 575.833C275.027 575.833 273.833 577.027 273.833 578.5ZM356 652.5V653C356.276 653 356.5 652.776 356.5 652.5H356ZM273.833 652.5C273.833 653.973 275.027 655.167 276.5 655.167C277.973 655.167 279.167 653.973 279.167 652.5C279.167 651.027 277.973 649.833 276.5 649.833C275.027 649.833 273.833 651.027 273.833 652.5ZM3.5 4H4.50142V3H3.5V4ZM6.50426 4H8.5071V3H6.50426V4ZM10.5099 4H12.5128V3H10.5099V4ZM14.5156 4H16.5185V3H14.5156V4ZM18.5213 4H20.5241V3H18.5213V4ZM22.527 4H24.5298V3H22.527V4ZM26.5327 4H28.5355V3H26.5327V4ZM30.5384 4H32.5412V3H30.5384V4ZM34.544 4H36.5469V3H34.544V4ZM38.5497 4H40.5526V3H38.5497V4ZM42.5554 4H44.5583V3H42.5554V4ZM46.5611 4H48.5639V3H46.5611V4ZM50.5668 4H52.5696V3H50.5668V4ZM54.5725 4H56.5753V3H54.5725V4ZM58.5781 4H60.581V3H58.5781V4ZM62.5838 4H64.5867V3H62.5838V4ZM66.5895 4H68.5924V3H66.5895V4ZM70.5952 4H72.598V3H70.5952V4ZM74.6009 4H76.6037V3H74.6009V4ZM78.6065 4H80.6094V3H78.6065V4ZM82.6122 4H84.6151V3H82.6122V4ZM86.6179 4H88.6207V3H86.6179V4ZM90.6236 4H92.6264V3H90.6236V4ZM94.6292 4H96.6321V3H94.6292V4ZM98.6349 4H100.638V3H98.6349V4ZM102.641 4H104.643V3H102.641V4ZM106.646 4H108.649V3H106.646V4ZM110.652 4H112.655V3H110.652V4ZM114.658 4H116.66V3H114.658V4ZM118.663 4H120.666V3H118.663V4ZM122.669 4H124.672V3H122.669V4ZM126.675 4H128.677V3H126.675V4ZM130.68 4H132.683V3H130.68V4ZM134.686 4H136.689V3H134.686V4ZM138.692 4H140.695V3H138.692V4ZM142.697 4H144.7V3H142.697V4ZM146.703 4H148.706V3H146.703V4ZM150.709 4H152.712V3H150.709V4ZM154.714 4H156.717V3H154.714V4ZM158.72 4H160.723V3H158.72V4ZM162.726 4H164.729V3H162.726V4ZM166.731 4H168.734V3H166.731V4ZM170.737 4H172.74V3H170.737V4ZM174.743 4H176.746V3H174.743V4ZM178.748 4H180.751V3H178.748V4ZM182.754 4H184.757V3H182.754V4ZM186.76 4H188.763V3H186.76V4ZM190.765 4H192.768V3H190.765V4ZM194.771 4H196.774V3H194.771V4ZM198.777 4H200.78V3H198.777V4ZM202.783 4H204.785V3H202.783V4ZM206.788 4H208.791V3H206.788V4ZM210.794 4H212.797V3H210.794V4ZM214.8 4H216.802V3H214.8V4ZM218.805 4H220.808V3H218.805V4ZM222.811 4H224.814V3H222.811V4ZM226.817 4H228.819V3H226.817V4ZM230.822 4H232.825V3H230.822V4ZM234.828 4H236.831V3H234.828V4ZM238.834 4H240.836V3H238.834V4ZM242.839 4H244.842V3H242.839V4ZM246.845 4H248.848V3H246.845V4ZM250.851 4H252.853V3H250.851V4ZM254.856 4H256.859V3H254.856V4ZM258.862 4H260.865V3H258.862V4ZM262.868 4H264.871V3H262.868V4ZM266.873 4H268.876V3H266.873V4ZM270.879 4H272.882V3H270.879V4ZM274.885 4H276.888V3H274.885V4ZM278.89 4H280.893V3H278.89V4ZM282.896 4H284.899V3H282.896V4ZM286.902 4H288.905V3H286.902V4ZM290.907 4H292.91V3H290.907V4ZM294.913 4H296.916V3H294.913V4ZM298.919 4H300.922V3H298.919V4ZM302.924 4H304.927V3H302.924V4ZM306.93 4H308.933V3H306.93V4ZM310.936 4H312.939V3H310.936V4ZM314.941 4H316.944V3H314.941V4ZM318.947 4H320.95V3H318.947V4ZM322.953 4H324.956V3H322.953V4ZM326.958 4H328.961V3H326.958V4ZM330.964 4H332.967V3H330.964V4ZM334.97 4H336.973V3H334.97V4ZM338.976 4H340.978V3H338.976V4ZM342.981 4H344.984V3H342.981V4ZM346.987 4H348.99V3H346.987V4ZM350.993 4H352.995V3H350.993V4ZM354.998 4H356V3H354.998V4ZM355.5 3.5V4.5H356.5V3.5H355.5ZM355.5 6.5V8.5H356.5V6.5H355.5ZM355.5 10.5V12.5H356.5V10.5H355.5ZM355.5 14.5V16.5H356.5V14.5H355.5ZM355.5 18.5V20.5H356.5V18.5H355.5ZM355.5 22.5V24.5H356.5V22.5H355.5ZM355.5 26.5V28.5H356.5V26.5H355.5ZM355.5 30.5V32.5H356.5V30.5H355.5ZM355.5 34.5V36.5H356.5V34.5H355.5ZM355.5 38.5V40.5H356.5V38.5H355.5ZM355.5 42.5V44.5H356.5V42.5H355.5ZM355.5 46.5V48.5H356.5V46.5H355.5ZM355.5 50.5V52.5H356.5V50.5H355.5ZM355.5 54.5V56.5H356.5V54.5H355.5ZM355.5 58.5V60.5H356.5V58.5H355.5ZM355.5 62.5V64.5H356.5V62.5H355.5ZM355.5 66.5V68.5H356.5V66.5H355.5ZM355.5 70.5V72.5H356.5V70.5H355.5ZM355.5 74.5V76.5H356.5V74.5H355.5ZM355.5 78.5V80.5H356.5V78.5H355.5ZM355.5 82.5V84.5H356.5V82.5H355.5ZM355.5 86.5V88.5H356.5V86.5H355.5ZM355.5 90.5V92.5H356.5V90.5H355.5ZM355.5 94.5V96.5H356.5V94.5H355.5ZM355.5 98.5V100.5H356.5V98.5H355.5ZM355.5 102.5V104.5H356.5V102.5H355.5ZM355.5 106.5V108.5H356.5V106.5H355.5ZM355.5 110.5V112.5H356.5V110.5H355.5ZM355.5 114.5V116.5H356.5V114.5H355.5ZM355.5 118.5V120.5H356.5V118.5H355.5ZM355.5 122.5V124.5H356.5V122.5H355.5ZM355.5 126.5V128.5H356.5V126.5H355.5ZM355.5 130.5V132.5H356.5V130.5H355.5ZM355.5 134.5V136.5H356.5V134.5H355.5ZM355.5 138.5V140.5H356.5V138.5H355.5ZM355.5 142.5V144.5H356.5V142.5H355.5ZM355.5 146.5V148.5H356.5V146.5H355.5ZM355.5 150.5V152.5H356.5V150.5H355.5ZM355.5 154.5V156.5H356.5V154.5H355.5ZM355.5 158.5V160.5H356.5V158.5H355.5ZM355.5 162.5V164.5H356.5V162.5H355.5ZM355.5 166.5V168.5H356.5V166.5H355.5ZM355.5 170.5V172.5H356.5V170.5H355.5ZM355.5 174.5V176.5H356.5V174.5H355.5ZM355.5 178.5V180.5H356.5V178.5H355.5ZM355.5 182.5V184.5H356.5V182.5H355.5ZM355.5 186.5V188.5H356.5V186.5H355.5ZM355.5 190.5V192.5H356.5V190.5H355.5ZM355.5 194.5V196.5H356.5V194.5H355.5ZM355.5 198.5V200.5H356.5V198.5H355.5ZM355.5 202.5V204.5H356.5V202.5H355.5ZM355.5 206.5V207.5H356.5V206.5H355.5ZM276.5 208H277.494V207H276.5V208ZM279.481 208H281.469V207H279.481V208ZM283.456 208H285.444V207H283.456V208ZM287.431 208H289.419V207H287.431V208ZM291.406 208H293.394V207H291.406V208ZM295.381 208H297.369V207H295.381V208ZM299.356 208H301.344V207H299.356V208ZM303.331 208H305.319V207H303.331V208ZM307.306 208H309.294V207H307.306V208ZM311.281 208H313.269V207H311.281V208ZM315.256 208H317.244V207H315.256V208ZM319.231 208H321.219V207H319.231V208ZM323.206 208H325.194V207H323.206V208ZM327.181 208H329.169V207H327.181V208ZM331.156 208H333.144V207H331.156V208ZM335.131 208H337.119V207H335.131V208ZM339.106 208H341.094V207H339.106V208ZM343.081 208H345.069V207H343.081V208ZM347.056 208H349.044V207H347.056V208ZM351.031 208H353.019V207H351.031V208ZM355.006 208H356V207H355.006V208ZM355.5 207.5V208.5H356.5V207.5H355.5ZM355.5 210.5V212.5H356.5V210.5H355.5ZM355.5 214.5V216.5H356.5V214.5H355.5ZM355.5 218.5V220.5H356.5V218.5H355.5ZM355.5 222.5V224.5H356.5V222.5H355.5ZM355.5 226.5V228.5H356.5V226.5H355.5ZM355.5 230.5V232.5H356.5V230.5H355.5ZM355.5 234.5V236.5H356.5V234.5H355.5ZM355.5 238.5V240.5H356.5V238.5H355.5ZM355.5 242.5V244.5H356.5V242.5H355.5ZM355.5 246.5V248.5H356.5V246.5H355.5ZM355.5 250.5V252.5H356.5V250.5H355.5ZM355.5 254.5V256.5H356.5V254.5H355.5ZM355.5 258.5V260.5H356.5V258.5H355.5ZM355.5 262.5V264.5H356.5V262.5H355.5ZM355.5 266.5V268.5H356.5V266.5H355.5ZM355.5 270.5V272.5H356.5V270.5H355.5ZM355.5 274.5V276.5H356.5V274.5H355.5ZM355.5 278.5V280.5H356.5V278.5H355.5ZM355.5 282.5V283.5H356.5V282.5H355.5ZM276.5 284H277.494V283H276.5V284ZM279.481 284H281.469V283H279.481V284ZM283.456 284H285.444V283H283.456V284ZM287.431 284H289.419V283H287.431V284ZM291.406 284H293.394V283H291.406V284ZM295.381 284H297.369V283H295.381V284ZM299.356 284H301.344V283H299.356V284ZM303.331 284H305.319V283H303.331V284ZM307.306 284H309.294V283H307.306V284ZM311.281 284H313.269V283H311.281V284ZM315.256 284H317.244V283H315.256V284ZM319.231 284H321.219V283H319.231V284ZM323.206 284H325.194V283H323.206V284ZM327.181 284H329.169V283H327.181V284ZM331.156 284H333.144V283H331.156V284ZM335.131 284H337.119V283H335.131V284ZM339.106 284H341.094V283H339.106V284ZM343.081 284H345.069V283H343.081V284ZM347.056 284H349.044V283H347.056V284ZM351.031 284H353.019V283H351.031V284ZM355.006 284H356V283H355.006V284ZM355.5 283.5V284.486H356.5V283.5H355.5ZM355.5 286.458V288.431H356.5V286.458H355.5ZM355.5 290.403V292.375H356.5V290.403H355.5ZM355.5 294.347V296.319H356.5V294.347H355.5ZM355.5 298.292V300.264H356.5V298.292H355.5ZM355.5 302.236V304.208H356.5V302.236H355.5ZM355.5 306.181V308.153H356.5V306.181H355.5ZM355.5 310.125V312.097H356.5V310.125H355.5ZM355.5 314.069V316.042H356.5V314.069H355.5ZM355.5 318.014V319.986H356.5V318.014H355.5ZM355.5 321.958V323.931H356.5V321.958H355.5ZM355.5 325.903V327.875H356.5V325.903H355.5ZM355.5 329.847V331.819H356.5V329.847H355.5ZM355.5 333.792V335.764H356.5V333.792H355.5ZM355.5 337.736V339.708H356.5V337.736H355.5ZM355.5 341.681V343.653H356.5V341.681H355.5ZM355.5 345.625V347.597H356.5V345.625H355.5ZM355.5 349.569V351.542H356.5V349.569H355.5ZM355.5 353.514V354.5H356.5V353.514H355.5ZM276.5 355H277.494V354H276.5V355ZM279.481 355H281.469V354H279.481V355ZM283.456 355H285.444V354H283.456V355ZM287.431 355H289.419V354H287.431V355ZM291.406 355H293.394V354H291.406V355ZM295.381 355H297.369V354H295.381V355ZM299.356 355H301.344V354H299.356V355ZM303.331 355H305.319V354H303.331V355ZM307.306 355H309.294V354H307.306V355ZM311.281 355H313.269V354H311.281V355ZM315.256 355H317.244V354H315.256V355ZM319.231 355H321.219V354H319.231V355ZM323.206 355H325.194V354H323.206V355ZM327.181 355H329.169V354H327.181V355ZM331.156 355H333.144V354H331.156V355ZM335.131 355H337.119V354H335.131V355ZM339.106 355H341.094V354H339.106V355ZM343.081 355H345.069V354H343.081V355ZM347.056 355H349.044V354H347.056V355ZM351.031 355H353.019V354H351.031V355ZM355.006 355H356V354H355.006V355ZM355.5 354.5V355.514H356.5V354.5H355.5ZM355.5 357.542V359.569H356.5V357.542H355.5ZM355.5 361.597V363.625H356.5V361.597H355.5ZM355.5 365.653V367.681H356.5V365.653H355.5ZM355.5 369.708V371.736H356.5V369.708H355.5ZM355.5 373.764V375.792H356.5V373.764H355.5ZM355.5 377.819V379.847H356.5V377.819H355.5ZM355.5 381.875V383.903H356.5V381.875H355.5ZM355.5 385.931V387.958H356.5V385.931H355.5ZM355.5 389.986V392.014H356.5V389.986H355.5ZM355.5 394.042V396.069H356.5V394.042H355.5ZM355.5 398.097V400.125H356.5V398.097H355.5ZM355.5 402.153V404.181H356.5V402.153H355.5ZM355.5 406.208V408.236H356.5V406.208H355.5ZM355.5 410.264V412.292H356.5V410.264H355.5ZM355.5 414.319V416.347H356.5V414.319H355.5ZM355.5 418.375V420.403H356.5V418.375H355.5ZM355.5 422.431V424.458H356.5V422.431H355.5ZM355.5 426.486V427.5H356.5V426.486H355.5ZM276.5 428H277.494V427H276.5V428ZM279.481 428H281.469V427H279.481V428ZM283.456 428H285.444V427H283.456V428ZM287.431 428H289.419V427H287.431V428ZM291.406 428H293.394V427H291.406V428ZM295.381 428H297.369V427H295.381V428ZM299.356 428H301.344V427H299.356V428ZM303.331 428H305.319V427H303.331V428ZM307.306 428H309.294V427H307.306V428ZM311.281 428H313.269V427H311.281V428ZM315.256 428H317.244V427H315.256V428ZM319.231 428H321.219V427H319.231V428ZM323.206 428H325.194V427H323.206V428ZM327.181 428H329.169V427H327.181V428ZM331.156 428H333.144V427H331.156V428ZM335.131 428H337.119V427H335.131V428ZM339.106 428H341.094V427H339.106V428ZM343.081 428H345.069V427H343.081V428ZM347.056 428H349.044V427H347.056V428ZM351.031 428H353.019V427H351.031V428ZM355.006 428H356V427H355.006V428ZM355.5 427.5V428.493H356.5V427.5H355.5ZM355.5 430.48V432.467H356.5V430.48H355.5ZM355.5 434.454V436.441H356.5V434.454H355.5ZM355.5 438.428V440.414H356.5V438.428H355.5ZM355.5 442.401V444.388H356.5V442.401H355.5ZM355.5 446.375V448.362H356.5V446.375H355.5ZM355.5 450.349V452.336H356.5V450.349H355.5ZM355.5 454.322V456.309H356.5V454.322H355.5ZM355.5 458.296V460.283H356.5V458.296H355.5ZM355.5 462.27V464.257H356.5V462.27H355.5ZM355.5 466.243V468.23H356.5V466.243H355.5ZM355.5 470.217V472.204H356.5V470.217H355.5ZM355.5 474.191V476.178H356.5V474.191H355.5ZM355.5 478.164V480.151H356.5V478.164H355.5ZM355.5 482.138V484.125H356.5V482.138H355.5ZM355.5 486.112V488.099H356.5V486.112H355.5ZM355.5 490.086V492.072H356.5V490.086H355.5ZM355.5 494.059V496.046H356.5V494.059H355.5ZM355.5 498.033V500.02H356.5V498.033H355.5ZM355.5 502.007V503H356.5V502.007H355.5ZM276.5 503.5H277.494V502.5H276.5V503.5ZM279.481 503.5H281.469V502.5H279.481V503.5ZM283.456 503.5H285.444V502.5H283.456V503.5ZM287.431 503.5H289.419V502.5H287.431V503.5ZM291.406 503.5H293.394V502.5H291.406V503.5ZM295.381 503.5H297.369V502.5H295.381V503.5ZM299.356 503.5H301.344V502.5H299.356V503.5ZM303.331 503.5H305.319V502.5H303.331V503.5ZM307.306 503.5H309.294V502.5H307.306V503.5ZM311.281 503.5H313.269V502.5H311.281V503.5ZM315.256 503.5H317.244V502.5H315.256V503.5ZM319.231 503.5H321.219V502.5H319.231V503.5ZM323.206 503.5H325.194V502.5H323.206V503.5ZM327.181 503.5H329.169V502.5H327.181V503.5ZM331.156 503.5H333.144V502.5H331.156V503.5ZM335.131 503.5H337.119V502.5H335.131V503.5ZM339.106 503.5H341.094V502.5H339.106V503.5ZM343.081 503.5H345.069V502.5H343.081V503.5ZM347.056 503.5H349.044V502.5H347.056V503.5ZM351.031 503.5H353.019V502.5H351.031V503.5ZM355.006 503.5H356V502.5H355.006V503.5ZM355.5 503V503.993H356.5V503H355.5ZM355.5 505.98V507.967H356.5V505.98H355.5ZM355.5 509.954V511.941H356.5V509.954H355.5ZM355.5 513.928V515.914H356.5V513.928H355.5ZM355.5 517.901V519.888H356.5V517.901H355.5ZM355.5 521.875V523.862H356.5V521.875H355.5ZM355.5 525.849V527.836H356.5V525.849H355.5ZM355.5 529.822V531.809H356.5V529.822H355.5ZM355.5 533.796V535.783H356.5V533.796H355.5ZM355.5 537.77V539.757H356.5V537.77H355.5ZM355.5 541.743V543.73H356.5V541.743H355.5ZM355.5 545.717V547.704H356.5V545.717H355.5ZM355.5 549.691V551.678H356.5V549.691H355.5ZM355.5 553.664V555.651H356.5V553.664H355.5ZM355.5 557.638V559.625H356.5V557.638H355.5ZM355.5 561.612V563.599H356.5V561.612H355.5ZM355.5 565.586V567.572H356.5V565.586H355.5ZM355.5 569.559V571.546H356.5V569.559H355.5ZM355.5 573.533V575.52H356.5V573.533H355.5ZM355.5 577.507V578.5H356.5V577.507H355.5ZM276.5 579H277.494V578H276.5V579ZM279.481 579H281.469V578H279.481V579ZM283.456 579H285.444V578H283.456V579ZM287.431 579H289.419V578H287.431V579ZM291.406 579H293.394V578H291.406V579ZM295.381 579H297.369V578H295.381V579ZM299.356 579H301.344V578H299.356V579ZM303.331 579H305.319V578H303.331V579ZM307.306 579H309.294V578H307.306V579ZM311.281 579H313.269V578H311.281V579ZM315.256 579H317.244V578H315.256V579ZM319.231 579H321.219V578H319.231V579ZM323.206 579H325.194V578H323.206V579ZM327.181 579H329.169V578H327.181V579ZM331.156 579H333.144V578H331.156V579ZM335.131 579H337.119V578H335.131V579ZM339.106 579H341.094V578H339.106V579ZM343.081 579H345.069V578H343.081V579ZM347.056 579H349.044V578H347.056V579ZM351.031 579H353.019V578H351.031V579ZM355.006 579H356V578H355.006V579ZM276.5 653H277.494V652H276.5V653ZM279.481 653H281.469V652H279.481V653ZM283.456 653H285.444V652H283.456V653ZM287.431 653H289.419V652H287.431V653ZM291.406 653H293.394V652H291.406V653ZM295.381 653H297.369V652H295.381V653ZM299.356 653H301.344V652H299.356V653ZM303.331 653H305.319V652H303.331V653ZM307.306 653H309.294V652H307.306V653ZM311.281 653H313.269V652H311.281V653ZM315.256 653H317.244V652H315.256V653ZM319.231 653H321.219V652H319.231V653ZM323.206 653H325.194V652H323.206V653ZM327.181 653H329.169V652H327.181V653ZM331.156 653H333.144V652H331.156V653ZM335.131 653H337.119V652H335.131V653ZM339.106 653H341.094V652H339.106V653ZM343.081 653H345.069V652H343.081V653ZM347.056 653H349.044V652H347.056V653ZM351.031 653H353.019V652H351.031V653ZM355.006 653H356V652H355.006V653ZM356.5 652.5V651.526H355.5V652.5H356.5ZM356.5 649.579V647.632H355.5V649.579H356.5ZM356.5 645.684V643.737H355.5V645.684H356.5ZM356.5 641.789V639.842H355.5V641.789H356.5ZM356.5 637.895V635.947H355.5V637.895H356.5ZM356.5 634V632.053H355.5V634H356.5ZM356.5 630.105V628.158H355.5V630.105H356.5ZM356.5 626.211V624.263H355.5V626.211H356.5ZM356.5 622.316V620.368H355.5V622.316H356.5ZM356.5 618.421V616.474H355.5V618.421H356.5ZM356.5 614.526V612.579H355.5V614.526H356.5ZM356.5 610.632V608.684H355.5V610.632H356.5ZM356.5 606.737V604.789H355.5V606.737H356.5ZM356.5 602.842V600.895H355.5V602.842H356.5ZM356.5 598.947V597H355.5V598.947H356.5ZM356.5 595.053V593.105H355.5V595.053H356.5ZM356.5 591.158V589.211H355.5V591.158H356.5ZM356.5 587.263V585.316H355.5V587.263H356.5ZM356.5 583.368V581.421H355.5V583.368H356.5ZM356.5 579.474V578.5H355.5V579.474H356.5Z" fill="white" fill-opacity="0.37"/>
</svg>

