<svg width="222" height="44" viewBox="0 0 222 44" fill="none" xmlns="http://www.w3.org/2000/svg">
<path d="M21.0938 8.6875H19.9375C19.625 6.77083 18.9271 5.38542 17.8438 4.53125C16.7604 3.65625 15.2708 3.21875 13.375 3.21875C12.0208 3.21875 10.7708 3.47917 9.625 4C8.47917 4.5 7.47917 5.20833 6.625 6.125C5.79167 7.04167 5.13542 8.14583 4.65625 9.4375C4.17708 10.7083 3.9375 12.1146 3.9375 13.6562C3.9375 15.3646 4.19792 16.9167 4.71875 18.3125C5.23958 19.7083 5.94792 20.9062 6.84375 21.9062C7.73958 22.8854 8.79167 23.6458 10 24.1875C11.2292 24.7292 12.5312 25 13.9062 25C15.5938 25 16.9375 24.4688 17.9375 23.4062C18.9375 22.3229 19.5938 20.9583 19.9062 19.3125H21.1875L20.3125 24.6562C19.9583 24.8854 19.5 25.1042 18.9375 25.3125C18.375 25.5208 17.7708 25.6979 17.125 25.8438C16.4583 26.0104 15.7917 26.1354 15.125 26.2188C14.4583 26.3021 13.8542 26.3438 13.3125 26.3438C11.4583 26.3438 9.77083 26.0521 8.25 25.4688C6.72917 24.8646 5.41667 24.0104 4.3125 22.9062C3.20833 21.8021 2.35417 20.4792 1.75 18.9375C1.14583 17.3958 0.84375 15.6667 0.84375 13.75C0.84375 12.0208 1.1875 10.4271 1.875 8.96875C2.58333 7.51042 3.51042 6.25 4.65625 5.1875C5.82292 4.125 7.14583 3.30208 8.625 2.71875C10.1042 2.11458 11.6354 1.8125 13.2188 1.8125C14.5312 1.8125 15.8333 2 17.125 2.375C18.4375 2.72917 19.6458 3.125 20.75 3.5625L21.0938 8.6875ZM25.2812 5.21875C25.2812 4.69792 25.2604 4.29167 25.2188 4C25.1771 3.6875 25.0938 3.45833 24.9688 3.3125C24.8229 3.16667 24.6146 3.08333 24.3438 3.0625C24.0729 3.02083 23.7083 3 23.25 3V2.0625C23.9375 1.9375 24.6042 1.73958 25.25 1.46875C25.9167 1.17708 26.5 0.8125 27 0.375H28.1562C28.0938 0.9375 28.0417 1.57292 28 2.28125C27.9792 2.96875 27.9688 3.55208 27.9688 4.03125V22.4688C27.9688 23.3021 28.1042 23.8854 28.375 24.2188C28.6458 24.5312 29.25 24.6875 30.1875 24.6875V25.8438C29.75 25.8438 29.2083 25.8438 28.5625 25.8438C27.9167 25.8229 27.2604 25.8125 26.5938 25.8125C25.9271 25.8125 25.2812 25.8125 24.6562 25.8125C24.0312 25.8125 23.5208 25.8229 23.125 25.8438V24.6875C24.0833 24.6875 24.6771 24.5521 24.9062 24.2812C25.1562 24.0104 25.2812 23.4062 25.2812 22.4688V5.21875ZM40.5703 8.176C42.9169 8.176 44.7089 8.688 45.9463 9.712C47.2049 10.7147 47.8343 12.2613 47.8343 14.352V26H44.5063L43.5783 23.632H43.4503C42.9596 24.2507 42.4476 24.7627 41.9143 25.168C41.4023 25.5733 40.8049 25.8613 40.1223 26.032C39.4609 26.224 38.6396 26.32 37.6583 26.32C36.6343 26.32 35.7063 26.128 34.8743 25.744C34.0636 25.3387 33.4236 24.7307 32.9543 23.92C32.4849 23.088 32.2503 22.0427 32.2503 20.784C32.2503 18.928 32.9009 17.5627 34.2023 16.688C35.5036 15.792 37.4556 15.3013 40.0583 15.216L43.0983 15.12V14.352C43.0983 13.4347 42.8529 12.7627 42.3623 12.336C41.8929 11.9093 41.2316 11.696 40.3783 11.696C39.5249 11.696 38.6929 11.824 37.8823 12.08C37.0716 12.3147 36.2609 12.6133 35.4503 12.976L33.8823 9.744C34.8209 9.25333 35.8556 8.86933 36.9863 8.592C38.1383 8.31467 39.3329 8.176 40.5703 8.176ZM41.2423 17.968C39.7063 18.0107 38.6396 18.288 38.0423 18.8C37.4449 19.312 37.1463 19.984 37.1463 20.816C37.1463 21.5413 37.3596 22.064 37.7863 22.384C38.2129 22.6827 38.7676 22.832 39.4503 22.832C40.4743 22.832 41.3383 22.5333 42.0423 21.936C42.7463 21.3173 43.0983 20.4533 43.0983 19.344V17.904L41.2423 17.968ZM47.3223 1.808C47.0236 2.10667 46.6289 2.46933 46.1383 2.896C45.6476 3.32267 45.1143 3.77067 44.5383 4.24C43.9836 4.70933 43.4289 5.15733 42.8743 5.584C42.3409 5.98933 41.8716 6.33067 41.4663 6.608H38.2983V6.192C38.6396 5.78667 39.0343 5.31733 39.4823 4.784C39.9516 4.22933 40.4103 3.664 40.8583 3.088C41.3063 2.49067 41.6796 1.95733 41.9783 1.488H47.3223V1.808ZM62.5312 23.8125C61.5312 24.625 60.6042 25.25 59.75 25.6875C58.9167 26.125 57.9271 26.3438 56.7812 26.3438C56.3438 26.3438 55.9062 26.2708 55.4688 26.125C55.0312 25.9792 54.6354 25.7396 54.2812 25.4062C53.9271 25.0729 53.6354 24.6562 53.4062 24.1562C53.1979 23.6354 53.0938 23 53.0938 22.25V13.6875C53.0938 13.0208 52.9688 12.5938 52.7188 12.4062C52.4896 12.2188 51.9688 12.0938 51.1562 12.0312V11.0625C51.7188 11.0625 52.4479 11.0312 53.3438 10.9688C54.2396 10.9062 55.0938 10.8438 55.9062 10.7812C55.8646 11.1979 55.8333 11.7083 55.8125 12.3125C55.7917 12.9167 55.7812 13.375 55.7812 13.6875V20.5625C55.7812 22.1458 55.9583 23.1667 56.3125 23.625C56.6875 24.0833 57.2708 24.3125 58.0625 24.3125C58.7083 24.3125 59.4583 24.125 60.3125 23.75C61.1875 23.375 61.9375 22.875 62.5625 22.25V13.6875C62.5625 13.0417 62.3958 12.625 62.0625 12.4375C61.7292 12.2292 61.1458 12.0938 60.3125 12.0312V11.0625C60.8542 11.0625 61.625 11.0312 62.625 10.9688C63.6458 10.9062 64.5625 10.8438 65.375 10.7812C65.3333 11.1979 65.3021 11.7083 65.2812 12.3125C65.2604 12.9167 65.25 13.375 65.25 13.6875V23.3125C65.25 23.875 65.3854 24.2083 65.6562 24.3125C65.9271 24.4167 66.5208 24.4375 67.4375 24.375V25.3438C67.2292 25.3854 66.9479 25.4479 66.5938 25.5312C66.2604 25.6146 65.9062 25.6979 65.5312 25.7812C65.1562 25.8854 64.7708 25.9896 64.375 26.0938C64 26.2188 63.6667 26.3229 63.375 26.4062C63.1667 26.4896 62.9688 26.4583 62.7812 26.3125C62.6146 26.1875 62.5312 26.0312 62.5312 25.8438V23.8125ZM80.5625 14.625C80.5625 14.0625 80.4479 13.5938 80.2188 13.2188C79.9896 12.8438 79.6979 12.5417 79.3438 12.3125C79.0104 12.1042 78.6354 11.9583 78.2188 11.875C77.8229 11.7708 77.4583 11.7188 77.125 11.7188C76.5208 11.7188 75.9167 11.8646 75.3125 12.1562C74.7292 12.4271 74.1979 12.8333 73.7188 13.375C73.2396 13.9375 72.8542 14.6354 72.5625 15.4688C72.2708 16.2812 72.125 17.2292 72.125 18.3125C72.125 20.0833 72.5833 21.5208 73.5 22.625C74.4167 23.7292 75.6458 24.2812 77.1875 24.2812C77.3958 24.2812 77.6875 24.2292 78.0625 24.125C78.4583 24.0208 78.8333 23.875 79.1875 23.6875C79.5625 23.5 79.8854 23.2812 80.1562 23.0312C80.4271 22.7812 80.5625 22.5208 80.5625 22.25V14.625ZM80.5625 5.21875C80.5625 4.69792 80.5417 4.29167 80.5 4C80.4583 3.6875 80.375 3.45833 80.25 3.3125C80.1042 3.16667 79.8958 3.08333 79.625 3.0625C79.3542 3.02083 78.9896 3 78.5312 3V2.0625C79.2188 1.9375 79.8854 1.73958 80.5312 1.46875C81.1979 1.17708 81.7812 0.8125 82.2812 0.375H83.4375C83.375 0.9375 83.3229 1.57292 83.2812 2.28125C83.2604 2.96875 83.25 3.55208 83.25 4.03125V22.8125C83.25 23.4375 83.3854 23.8125 83.6562 23.9375C83.9271 24.0417 84.5312 24.0625 85.4688 24V24.9375C85.0729 25.0625 84.4896 25.2708 83.7188 25.5625C82.9688 25.8333 82.3021 26.1042 81.7188 26.375C81.4062 26.5417 81.1354 26.5729 80.9062 26.4688C80.6771 26.3646 80.5625 26.2188 80.5625 26.0312V24.5625C80.0833 25.0417 79.4062 25.4583 78.5312 25.8125C77.6562 26.1458 76.75 26.3125 75.8125 26.3125C74.8333 26.3125 73.9479 26.1042 73.1562 25.6875C72.3646 25.2708 71.6875 24.7188 71.125 24.0312C70.5625 23.3438 70.125 22.5625 69.8125 21.6875C69.5208 20.7917 69.375 19.8646 69.375 18.9062C69.375 17.7812 69.5833 16.6979 70 15.6562C70.4167 14.6146 71 13.7083 71.75 12.9375C72.4792 12.1458 73.3333 11.5208 74.3125 11.0625C75.3125 10.5833 76.375 10.3438 77.5 10.3438C78.125 10.3438 78.6667 10.3958 79.125 10.5C79.5833 10.5833 80.0625 10.75 80.5625 11V5.21875ZM91.8438 22.7812C91.8438 23.6354 91.9583 24.1667 92.1875 24.375C92.4375 24.5833 93.0625 24.6875 94.0625 24.6875V25.8125C93.7708 25.8125 93.4792 25.8125 93.1875 25.8125C92.9167 25.8125 92.6354 25.8021 92.3438 25.7812C92.0521 25.7812 91.75 25.7812 91.4375 25.7812C91.1458 25.7604 90.8646 25.75 90.5938 25.75C89.9688 25.75 89.3542 25.7604 88.75 25.7812C88.1458 25.8021 87.5625 25.8125 87 25.8125V24.6875C87.9583 24.6875 88.5521 24.5833 88.7812 24.375C89.0312 24.1667 89.1562 23.6354 89.1562 22.7812V15.2188C89.1562 14.1979 89.0625 13.5521 88.875 13.2812C88.6875 12.9896 88.1771 12.8438 87.3438 12.8438V11.875C88.0104 11.7708 88.6354 11.6042 89.2188 11.375C89.8021 11.1458 90.3438 10.8125 90.8438 10.375H92C91.9375 10.9375 91.8958 11.5625 91.875 12.25C91.8542 12.9375 91.8438 13.5312 91.8438 14.0312V22.7812ZM90.4062 2.03125C90.9271 2.03125 91.375 2.21875 91.75 2.59375C92.1458 2.96875 92.3438 3.41667 92.3438 3.9375C92.3438 4.47917 92.1458 4.9375 91.75 5.3125C91.375 5.66667 90.9271 5.84375 90.4062 5.84375C89.8646 5.84375 89.4062 5.66667 89.0312 5.3125C88.6771 4.9375 88.5 4.47917 88.5 3.9375C88.5 3.41667 88.6771 2.96875 89.0312 2.59375C89.4062 2.21875 89.8646 2.03125 90.4062 2.03125ZM111.594 18.2812C111.594 19.3854 111.385 20.4271 110.969 21.4062C110.573 22.3854 110.031 23.2396 109.344 23.9688C108.656 24.6979 107.844 25.2812 106.906 25.7188C105.99 26.1354 105 26.3438 103.938 26.3438C102.854 26.3438 101.823 26.1667 100.844 25.8125C99.8854 25.4375 99.0417 24.9062 98.3125 24.2188C97.5833 23.5312 97.0104 22.6979 96.5938 21.7188C96.1771 20.7396 95.9688 19.6458 95.9688 18.4375C95.9688 17.3542 96.1562 16.3229 96.5312 15.3438C96.9062 14.3438 97.4271 13.4792 98.0938 12.75C98.7604 12.0208 99.5521 11.4375 100.469 11C101.406 10.5625 102.427 10.3438 103.531 10.3438C104.677 10.3438 105.74 10.5312 106.719 10.9062C107.698 11.2812 108.552 11.8125 109.281 12.5C109.99 13.1875 110.552 14.0208 110.969 15C111.385 15.9792 111.594 17.0729 111.594 18.2812ZM108.469 18.625C108.469 17.8958 108.375 17.125 108.188 16.3125C108 15.4792 107.719 14.7083 107.344 14C106.948 13.3125 106.438 12.7396 105.812 12.2812C105.208 11.8021 104.479 11.5625 103.625 11.5625C102.792 11.5625 102.083 11.7708 101.5 12.1875C100.917 12.6042 100.448 13.125 100.094 13.75C99.7188 14.3958 99.4479 15.1042 99.2812 15.875C99.1354 16.6458 99.0625 17.3854 99.0625 18.0938C99.0625 18.7604 99.1458 19.5 99.3125 20.3125C99.4792 21.125 99.7604 21.8854 100.156 22.5938C100.531 23.3229 101.021 23.9271 101.625 24.4062C102.25 24.8854 103 25.125 103.875 25.125C104.688 25.125 105.385 24.9167 105.969 24.5C106.552 24.0833 107.031 23.5521 107.406 22.9062C107.76 22.2812 108.021 21.5833 108.188 20.8125C108.375 20.0417 108.469 19.3125 108.469 18.625ZM122.438 20.0312H123.781C123.906 20.6771 124.073 21.3021 124.281 21.9062C124.51 22.5104 124.802 23.0417 125.156 23.5C125.51 23.9583 125.948 24.3229 126.469 24.5938C126.99 24.8646 127.625 25 128.375 25C129.812 25 130.99 24.5938 131.906 23.7812C132.823 22.9688 133.281 21.9479 133.281 20.7188C133.281 19.9896 133.146 19.3646 132.875 18.8438C132.604 18.3021 132.25 17.8229 131.812 17.4062C131.375 17.0104 130.875 16.6458 130.312 16.3125C129.75 15.9792 129.167 15.6354 128.562 15.2812C127.938 14.9479 127.302 14.5938 126.656 14.2188C126.01 13.8229 125.427 13.3646 124.906 12.8438C124.385 12.3021 123.958 11.6875 123.625 11C123.292 10.2917 123.125 9.45833 123.125 8.5C123.125 7.375 123.302 6.39583 123.656 5.5625C124.031 4.72917 124.542 4.03125 125.188 3.46875C125.812 2.92708 126.562 2.52083 127.438 2.25C128.312 1.95833 129.25 1.8125 130.25 1.8125C130.625 1.8125 130.979 1.83333 131.312 1.875C131.646 1.91667 131.969 1.95833 132.281 2C132.594 2.04167 132.906 2.09375 133.219 2.15625C133.531 2.21875 133.865 2.27083 134.219 2.3125L134.812 6.875H133.469C133.281 5.64583 132.896 4.72917 132.312 4.125C131.75 3.52083 130.906 3.21875 129.781 3.21875C128.344 3.21875 127.26 3.61458 126.531 4.40625C125.823 5.19792 125.469 6.16667 125.469 7.3125C125.469 8.04167 125.625 8.69792 125.938 9.28125C126.25 9.84375 126.656 10.3542 127.156 10.8125C127.656 11.2917 128.219 11.7188 128.844 12.0938C129.49 12.4688 130.146 12.8125 130.812 13.125C131.438 13.4583 132.062 13.8125 132.688 14.1875C133.312 14.5417 133.865 14.9583 134.344 15.4375C134.844 15.9167 135.24 16.4792 135.531 17.125C135.844 17.7708 136 18.5417 136 19.4375C136 20.5833 135.771 21.5938 135.312 22.4688C134.854 23.3229 134.26 24.0312 133.531 24.5938C132.802 25.1771 131.969 25.6146 131.031 25.9062C130.094 26.1979 129.146 26.3438 128.188 26.3438C127.229 26.3438 126.354 26.2604 125.562 26.0938C124.792 25.9271 124 25.6562 123.188 25.2812L122.438 20.0312ZM154.125 18.2812C154.125 19.3854 153.917 20.4271 153.5 21.4062C153.104 22.3854 152.562 23.2396 151.875 23.9688C151.188 24.6979 150.375 25.2812 149.438 25.7188C148.521 26.1354 147.531 26.3438 146.469 26.3438C145.385 26.3438 144.354 26.1667 143.375 25.8125C142.417 25.4375 141.573 24.9062 140.844 24.2188C140.115 23.5312 139.542 22.6979 139.125 21.7188C138.708 20.7396 138.5 19.6458 138.5 18.4375C138.5 17.3542 138.688 16.3229 139.062 15.3438C139.438 14.3438 139.958 13.4792 140.625 12.75C141.292 12.0208 142.083 11.4375 143 11C143.938 10.5625 144.958 10.3438 146.062 10.3438C147.208 10.3438 148.271 10.5312 149.25 10.9062C150.229 11.2812 151.083 11.8125 151.812 12.5C152.521 13.1875 153.083 14.0208 153.5 15C153.917 15.9792 154.125 17.0729 154.125 18.2812ZM151 18.625C151 17.8958 150.906 17.125 150.719 16.3125C150.531 15.4792 150.25 14.7083 149.875 14C149.479 13.3125 148.969 12.7396 148.344 12.2812C147.74 11.8021 147.01 11.5625 146.156 11.5625C145.323 11.5625 144.615 11.7708 144.031 12.1875C143.448 12.6042 142.979 13.125 142.625 13.75C142.25 14.3958 141.979 15.1042 141.812 15.875C141.667 16.6458 141.594 17.3854 141.594 18.0938C141.594 18.7604 141.677 19.5 141.844 20.3125C142.01 21.125 142.292 21.8854 142.688 22.5938C143.062 23.3229 143.552 23.9271 144.156 24.4062C144.781 24.8854 145.531 25.125 146.406 25.125C147.219 25.125 147.917 24.9167 148.5 24.5C149.083 24.0833 149.562 23.5521 149.938 22.9062C150.292 22.2812 150.552 21.5833 150.719 20.8125C150.906 20.0417 151 19.3125 151 18.625Z" fill="#CCCCCC" fill-opacity="0.97"/>
<path d="M189.145 13.375C189.666 12.5625 190.322 11.8542 191.114 11.25C191.906 10.6458 192.645 10.3438 193.333 10.3438C193.77 10.3438 194.218 10.4896 194.677 10.7812C195.156 11.0729 195.395 11.5625 195.395 12.25C195.395 12.75 195.208 13.1771 194.833 13.5312C194.479 13.8646 194.093 14.0312 193.677 14.0312C193.364 14.0312 193.104 13.9896 192.895 13.9062C192.708 13.8229 192.541 13.7292 192.395 13.625C192.25 13.5208 192.114 13.4271 191.989 13.3438C191.864 13.2396 191.708 13.1875 191.52 13.1875C191.291 13.1875 191.041 13.2604 190.77 13.4062C190.5 13.5521 190.239 13.75 189.989 14C189.739 14.2292 189.531 14.5104 189.364 14.8438C189.218 15.1771 189.145 15.5312 189.145 15.9062V22.4688C189.145 22.9479 189.177 23.3333 189.239 23.625C189.302 23.9167 189.447 24.1458 189.677 24.3125C189.927 24.4583 190.27 24.5625 190.708 24.625C191.166 24.6667 191.791 24.6875 192.583 24.6875V25.8438C192.125 25.8229 191.51 25.8125 190.739 25.8125C189.968 25.7917 189.166 25.7812 188.333 25.7812C187.479 25.7812 186.656 25.7917 185.864 25.8125C185.072 25.8125 184.447 25.8229 183.989 25.8438V24.6875C184.552 24.6875 184.989 24.6667 185.302 24.625C185.635 24.5833 185.885 24.4896 186.052 24.3438C186.218 24.1979 186.322 23.9792 186.364 23.6875C186.427 23.375 186.458 22.9688 186.458 22.4688V15.2188C186.458 14.1979 186.364 13.5521 186.177 13.2812C185.989 12.9896 185.479 12.8438 184.645 12.8438V11.875C185.312 11.7708 185.937 11.6042 186.52 11.375C187.104 11.1458 187.645 10.8125 188.145 10.375H189.302C189.239 10.875 189.197 11.3854 189.177 11.9062C189.156 12.4271 189.145 12.9167 189.145 13.375ZM199.458 16.6875C199.437 16.7708 199.416 17.0104 199.395 17.4062C199.395 17.8021 199.416 18.2812 199.458 18.8438C199.541 20.3854 199.979 21.6667 200.77 22.6875C201.562 23.6875 202.625 24.1875 203.958 24.1875C204.895 24.1875 205.718 23.9792 206.427 23.5625C207.156 23.1458 207.802 22.5938 208.364 21.9062L209.364 22.5C208.718 23.625 207.885 24.5521 206.864 25.2812C205.843 25.9896 204.677 26.3438 203.364 26.3438C202.427 26.3438 201.552 26.1562 200.739 25.7812C199.947 25.3854 199.26 24.8542 198.677 24.1875C198.072 23.5 197.604 22.7083 197.27 21.8125C196.958 20.8958 196.802 19.9062 196.802 18.8438C196.802 17.5104 196.968 16.3229 197.302 15.2812C197.635 14.2188 198.104 13.3229 198.708 12.5938C199.291 11.8646 199.989 11.3125 200.802 10.9375C201.635 10.5417 202.531 10.3438 203.489 10.3438C204.135 10.3438 204.791 10.4583 205.458 10.6875C206.125 10.8958 206.718 11.2188 207.239 11.6562C207.76 12.0938 208.187 12.6562 208.52 13.3438C208.854 14.0104 209.031 14.8021 209.052 15.7188C209.052 15.9479 209.041 16.125 209.02 16.25C209.02 16.375 208.989 16.4688 208.927 16.5312C208.885 16.5938 208.802 16.6354 208.677 16.6562C208.552 16.6771 208.385 16.6875 208.177 16.6875H199.458ZM205.614 15.3125C205.864 15.3125 206.031 15.2812 206.114 15.2188C206.218 15.1354 206.27 14.9583 206.27 14.6875C206.27 14.0208 206.01 13.3646 205.489 12.7188C204.968 12.0521 204.26 11.7188 203.364 11.7188C202.302 11.7188 201.458 12.0521 200.833 12.7188C200.208 13.3854 199.812 14.25 199.645 15.3125H205.614ZM212.364 21.0312C212.427 21.5312 212.541 22.0208 212.708 22.5C212.875 22.9792 213.093 23.4062 213.364 23.7812C213.656 24.1562 214 24.4583 214.395 24.6875C214.812 24.9167 215.312 25.0312 215.895 25.0312C216.895 25.0312 217.583 24.7917 217.958 24.3125C218.333 23.8333 218.52 23.3125 218.52 22.75C218.52 22.3125 218.437 21.9375 218.27 21.625C218.104 21.2917 217.885 21 217.614 20.75C217.322 20.5 216.989 20.2708 216.614 20.0625C216.239 19.8333 215.833 19.6042 215.395 19.375C214.208 18.7708 213.239 18.1146 212.489 17.4062C211.76 16.6771 211.395 15.7708 211.395 14.6875C211.395 14.1458 211.51 13.6146 211.739 13.0938C211.968 12.5729 212.302 12.1042 212.739 11.6875C213.177 11.2917 213.708 10.9688 214.333 10.7188C214.979 10.4688 215.708 10.3438 216.52 10.3438C217.145 10.3438 217.75 10.4167 218.333 10.5625C218.937 10.7083 219.604 10.9792 220.333 11.375L220.552 15H219.364C219.218 13.875 218.875 13.0521 218.333 12.5312C217.791 11.9896 217.072 11.7188 216.177 11.7188C215.489 11.7188 214.895 11.9062 214.395 12.2812C213.895 12.6354 213.645 13.125 213.645 13.75C213.645 14.2292 213.75 14.6354 213.958 14.9688C214.166 15.3021 214.447 15.6042 214.802 15.875C215.156 16.1458 215.562 16.3958 216.02 16.625C216.479 16.8542 216.958 17.0833 217.458 17.3125C217.895 17.5417 218.333 17.7708 218.77 18C219.229 18.2292 219.635 18.5104 219.989 18.8438C220.343 19.1562 220.635 19.5417 220.864 20C221.093 20.4583 221.208 21.0312 221.208 21.7188C221.208 22.3021 221.093 22.875 220.864 23.4375C220.656 23.9792 220.322 24.4688 219.864 24.9062C219.427 25.3438 218.854 25.6979 218.145 25.9688C217.437 26.2188 216.604 26.3438 215.645 26.3438C214.937 26.3438 214.229 26.2396 213.52 26.0312C212.812 25.8438 212.166 25.5625 211.583 25.1875L211.145 21.0312H212.364Z" fill="#CCCCCC" fill-opacity="0.97"/>
<path d="M168.227 4L181.39 26.5H155.063L168.227 4Z" fill="#D9D9D9"/>
<path d="M45.75 34.3457C45.75 34.0996 45.7318 33.8991 45.6953 33.7441C45.668 33.5892 45.6087 33.4707 45.5176 33.3887C45.4264 33.2975 45.2943 33.2383 45.1211 33.2109C44.9479 33.1745 44.7155 33.1562 44.4238 33.1562V32.6641C44.6973 32.6732 45.0072 32.6777 45.3535 32.6777C45.6999 32.6777 46.0508 32.6777 46.4062 32.6777C46.7708 32.6777 47.1309 32.6777 47.4863 32.6777C47.8509 32.6777 48.1927 32.6732 48.5117 32.6641C49.4141 32.6641 50.2161 32.8099 50.918 33.1016C51.6198 33.3841 52.2122 33.7624 52.6953 34.2363C53.1784 34.7103 53.5475 35.2572 53.8027 35.877C54.0579 36.4876 54.1855 37.1211 54.1855 37.7773C54.1855 38.4245 54.0671 39.0579 53.8301 39.6777C53.5931 40.2975 53.2331 40.8444 52.75 41.3184C52.2669 41.8014 51.6562 42.1888 50.918 42.4805C50.1888 42.7721 49.332 42.918 48.3477 42.918C48.0833 42.918 47.778 42.918 47.4316 42.918C47.0944 42.9089 46.7435 42.9043 46.3789 42.9043C46.0234 42.9043 45.6725 42.9089 45.3262 42.918C44.9798 42.918 44.679 42.918 44.4238 42.918V42.3984C44.7155 42.3984 44.9479 42.3848 45.1211 42.3574C45.3034 42.3301 45.4401 42.2708 45.5312 42.1797C45.6224 42.0885 45.6816 41.9609 45.709 41.7969C45.7363 41.6328 45.75 41.4141 45.75 41.1406V34.3457ZM46.9941 41.1543C46.9941 41.4277 47.0078 41.6419 47.0352 41.7969C47.0716 41.9518 47.1491 42.0703 47.2676 42.1523C47.377 42.2344 47.5365 42.2845 47.7461 42.3027C47.9557 42.321 48.2337 42.3301 48.5801 42.3301C49.3275 42.3301 49.9701 42.207 50.5078 41.9609C51.0456 41.7148 51.4876 41.3822 51.834 40.9629C52.1803 40.5436 52.4355 40.0605 52.5996 39.5137C52.7637 38.9577 52.8457 38.3698 52.8457 37.75C52.8457 36.3372 52.431 35.2344 51.6016 34.4414C50.7721 33.6484 49.6374 33.252 48.1973 33.252C48.0332 33.252 47.8919 33.2565 47.7734 33.2656C47.6549 33.2656 47.5456 33.2702 47.4453 33.2793C47.3542 33.2793 47.2721 33.2839 47.1992 33.293C47.1263 33.293 47.0579 33.293 46.9941 33.293V41.1543ZM56.6328 38.9258C56.6237 38.9622 56.6146 39.0671 56.6055 39.2402C56.6055 39.4134 56.6146 39.623 56.6328 39.8691C56.6693 40.5436 56.8607 41.1042 57.207 41.5508C57.5534 41.9883 58.0182 42.207 58.6016 42.207C59.0117 42.207 59.3717 42.1159 59.6816 41.9336C60.0007 41.7513 60.2832 41.5098 60.5293 41.209L60.9668 41.4688C60.6842 41.9609 60.3197 42.3665 59.873 42.6855C59.4264 42.9954 58.916 43.1504 58.3418 43.1504C57.9316 43.1504 57.5488 43.0684 57.1934 42.9043C56.847 42.7311 56.5462 42.4987 56.291 42.207C56.0267 41.9062 55.8216 41.5599 55.6758 41.168C55.5391 40.7669 55.4707 40.334 55.4707 39.8691C55.4707 39.2858 55.5436 38.7663 55.6895 38.3105C55.8353 37.8457 56.0404 37.4538 56.3047 37.1348C56.5599 36.8158 56.8652 36.5742 57.2207 36.4102C57.5853 36.237 57.9772 36.1504 58.3965 36.1504C58.679 36.1504 58.9661 36.2005 59.2578 36.3008C59.5495 36.3919 59.8092 36.5332 60.0371 36.7246C60.265 36.916 60.4518 37.1621 60.5977 37.4629C60.7435 37.7546 60.821 38.1009 60.8301 38.502C60.8301 38.6022 60.8255 38.6797 60.8164 38.7344C60.8164 38.7891 60.8027 38.8301 60.7754 38.8574C60.7572 38.8848 60.7207 38.903 60.666 38.9121C60.6113 38.9212 60.5384 38.9258 60.4473 38.9258H56.6328ZM59.3262 38.3242C59.4355 38.3242 59.5085 38.3105 59.5449 38.2832C59.5905 38.2467 59.6133 38.1693 59.6133 38.0508C59.6133 37.7591 59.4993 37.472 59.2715 37.1895C59.0436 36.8978 58.7337 36.752 58.3418 36.752C57.877 36.752 57.5078 36.8978 57.2344 37.1895C56.9609 37.4811 56.7878 37.8594 56.7148 38.3242H59.3262ZM62.2793 40.8262C62.3066 41.0449 62.3568 41.2591 62.4297 41.4688C62.5026 41.6784 62.5983 41.8652 62.7168 42.0293C62.8444 42.1934 62.9948 42.3255 63.168 42.4258C63.3503 42.526 63.569 42.5762 63.8242 42.5762C64.2617 42.5762 64.5625 42.4714 64.7266 42.2617C64.8906 42.0521 64.9727 41.8242 64.9727 41.5781C64.9727 41.3867 64.9362 41.2227 64.8633 41.0859C64.7904 40.9401 64.6947 40.8125 64.5762 40.7031C64.4486 40.5938 64.3027 40.4935 64.1387 40.4023C63.9746 40.3021 63.7969 40.2018 63.6055 40.1016C63.0859 39.8372 62.6621 39.5501 62.334 39.2402C62.015 38.9212 61.8555 38.5247 61.8555 38.0508C61.8555 37.8138 61.9056 37.5814 62.0059 37.3535C62.1061 37.1257 62.252 36.9206 62.4434 36.7383C62.6348 36.5651 62.8672 36.4238 63.1406 36.3145C63.4232 36.2051 63.7422 36.1504 64.0977 36.1504C64.3711 36.1504 64.6354 36.1823 64.8906 36.2461C65.1549 36.3099 65.4466 36.4284 65.7656 36.6016L65.8613 38.1875H65.3418C65.278 37.6953 65.1276 37.3353 64.8906 37.1074C64.6536 36.8704 64.3392 36.752 63.9473 36.752C63.6465 36.752 63.3867 36.834 63.168 36.998C62.9492 37.153 62.8398 37.3672 62.8398 37.6406C62.8398 37.8503 62.8854 38.028 62.9766 38.1738C63.0677 38.3197 63.1908 38.4518 63.3457 38.5703C63.5007 38.6888 63.6784 38.7982 63.8789 38.8984C64.0794 38.9987 64.2891 39.099 64.5078 39.1992C64.6992 39.2995 64.8906 39.3997 65.082 39.5C65.2826 39.6003 65.4603 39.7233 65.6152 39.8691C65.7702 40.0059 65.8978 40.1745 65.998 40.375C66.0983 40.5755 66.1484 40.8262 66.1484 41.127C66.1484 41.3822 66.0983 41.6328 65.998 41.8789C65.9069 42.1159 65.7611 42.3301 65.5605 42.5215C65.3691 42.7129 65.1185 42.8678 64.8086 42.9863C64.4987 43.0957 64.1341 43.1504 63.7148 43.1504C63.4049 43.1504 63.0951 43.1048 62.7852 43.0137C62.4753 42.9316 62.1927 42.8086 61.9375 42.6445L61.7461 40.8262H62.2793ZM68.2539 38.9258C68.2448 38.9622 68.2357 39.0671 68.2266 39.2402C68.2266 39.4134 68.2357 39.623 68.2539 39.8691C68.2904 40.5436 68.4818 41.1042 68.8281 41.5508C69.1745 41.9883 69.6393 42.207 70.2227 42.207C70.6328 42.207 70.9928 42.1159 71.3027 41.9336C71.6217 41.7513 71.9043 41.5098 72.1504 41.209L72.5879 41.4688C72.3053 41.9609 71.9408 42.3665 71.4941 42.6855C71.0475 42.9954 70.5371 43.1504 69.9629 43.1504C69.5527 43.1504 69.1699 43.0684 68.8145 42.9043C68.4681 42.7311 68.1673 42.4987 67.9121 42.207C67.6478 41.9062 67.4427 41.5599 67.2969 41.168C67.1602 40.7669 67.0918 40.334 67.0918 39.8691C67.0918 39.2858 67.1647 38.7663 67.3105 38.3105C67.4564 37.8457 67.6615 37.4538 67.9258 37.1348C68.181 36.8158 68.4863 36.5742 68.8418 36.4102C69.2064 36.237 69.5983 36.1504 70.0176 36.1504C70.3001 36.1504 70.5872 36.2005 70.8789 36.3008C71.1706 36.3919 71.4303 36.5332 71.6582 36.7246C71.8861 36.916 72.0729 37.1621 72.2188 37.4629C72.3646 37.7546 72.4421 38.1009 72.4512 38.502C72.4512 38.6022 72.4466 38.6797 72.4375 38.7344C72.4375 38.7891 72.4238 38.8301 72.3965 38.8574C72.3783 38.8848 72.3418 38.903 72.2871 38.9121C72.2324 38.9212 72.1595 38.9258 72.0684 38.9258H68.2539ZM70.9473 38.3242C71.0566 38.3242 71.1296 38.3105 71.166 38.2832C71.2116 38.2467 71.2344 38.1693 71.2344 38.0508C71.2344 37.7591 71.1204 37.472 70.8926 37.1895C70.6647 36.8978 70.3548 36.752 69.9629 36.752C69.498 36.752 69.1289 36.8978 68.8555 37.1895C68.582 37.4811 68.4089 37.8594 68.3359 38.3242H70.9473ZM75.3633 36.1641C75.3359 36.4102 75.3177 36.6198 75.3086 36.793C75.2995 36.9661 75.2949 37.1165 75.2949 37.2441C75.5046 37.0983 75.7051 36.9616 75.8965 36.834C76.0879 36.6973 76.2839 36.5788 76.4844 36.4785C76.6758 36.3783 76.8763 36.3008 77.0859 36.2461C77.2956 36.1823 77.5189 36.1504 77.7559 36.1504C78.3848 36.1504 78.8223 36.3555 79.0684 36.7656C79.3145 37.1758 79.4375 37.6725 79.4375 38.2559V41.4551C79.4375 41.8197 79.4967 42.0749 79.6152 42.2207C79.7428 42.3574 80.0163 42.4258 80.4355 42.4258V42.918C80.3079 42.918 80.0983 42.918 79.8066 42.918C79.515 42.918 79.2051 42.918 78.877 42.918C78.5488 42.918 78.2389 42.9225 77.9473 42.9316C77.6556 42.9316 77.4505 42.9316 77.332 42.9316V42.4258C77.724 42.4258 77.9746 42.3574 78.084 42.2207C78.2025 42.0749 78.2617 41.8197 78.2617 41.4551V38.2422C78.2617 37.8047 78.1615 37.4948 77.9609 37.3125C77.7695 37.1302 77.4642 37.0391 77.0449 37.0391C76.9264 37.0482 76.7852 37.0801 76.6211 37.1348C76.4661 37.1895 76.3066 37.2624 76.1426 37.3535C75.9785 37.4355 75.819 37.5267 75.6641 37.627C75.5182 37.7272 75.3952 37.8184 75.2949 37.9004V41.4551C75.2949 41.8197 75.3542 42.0749 75.4727 42.2207C75.5911 42.3574 75.8646 42.4258 76.293 42.4258V42.9316C76.1562 42.9225 75.9421 42.918 75.6504 42.918C75.3587 42.9089 75.0488 42.9043 74.7207 42.9043C74.3926 42.9043 74.0827 42.9089 73.791 42.918C73.4993 42.918 73.2943 42.9225 73.1758 42.9316V42.4258C73.5768 42.4258 73.832 42.3574 73.9414 42.2207C74.0599 42.0749 74.1191 41.8197 74.1191 41.4551V38.2832C74.1191 37.8366 74.0781 37.554 73.9961 37.4355C73.9141 37.3079 73.6908 37.2441 73.3262 37.2441V36.8203C73.6178 36.7747 73.8913 36.7018 74.1465 36.6016C74.4017 36.5013 74.6341 36.3555 74.8438 36.1641H75.3633ZM82.0215 38.0098C81.9121 37.7363 81.821 37.5267 81.748 37.3809C81.6751 37.2259 81.5977 37.112 81.5156 37.0391C81.4427 36.9661 81.3561 36.9251 81.2559 36.916C81.1647 36.8978 81.0462 36.8887 80.9004 36.8887V36.3418C81.0189 36.36 81.2148 36.3737 81.4883 36.3828C81.7708 36.3828 82.0671 36.3828 82.377 36.3828C82.6777 36.3828 82.9694 36.3828 83.252 36.3828C83.5345 36.3737 83.7396 36.36 83.8672 36.3418V36.8887C83.6302 36.8887 83.4434 36.9023 83.3066 36.9297C83.179 36.9479 83.0879 36.9889 83.0332 37.0527C82.9876 37.1257 82.9785 37.2305 83.0059 37.3672C83.0332 37.5039 83.0924 37.6862 83.1836 37.9141L84.4141 41.25L85.7539 37.8867C85.918 37.4766 85.9772 37.2122 85.9316 37.0938C85.8861 36.9661 85.6491 36.9023 85.2207 36.9023V36.3418C85.3757 36.36 85.5625 36.3691 85.7812 36.3691C86.0091 36.3691 86.237 36.3691 86.4648 36.3691C86.6927 36.3691 86.9069 36.3691 87.1074 36.3691C87.3079 36.36 87.4674 36.3509 87.5859 36.3418V36.8887C87.431 36.8887 87.3034 36.9069 87.2031 36.9434C87.112 36.9707 87.0299 37.0254 86.957 37.1074C86.875 37.1895 86.8021 37.2988 86.7383 37.4355C86.6745 37.5723 86.597 37.75 86.5059 37.9688L84.4004 43.1504H84.0039L82.0215 38.0098ZM95.1191 39.623C95.1191 40.1061 95.028 40.5618 94.8457 40.9902C94.6725 41.4186 94.4355 41.7923 94.1348 42.1113C93.834 42.4303 93.4785 42.6855 93.0684 42.877C92.6673 43.0592 92.2344 43.1504 91.7695 43.1504C91.2956 43.1504 90.8444 43.0729 90.416 42.918C89.9967 42.7539 89.6276 42.5215 89.3086 42.2207C88.9896 41.9199 88.7389 41.5553 88.5566 41.127C88.3743 40.6986 88.2832 40.2201 88.2832 39.6914C88.2832 39.2174 88.3652 38.7663 88.5293 38.3379C88.6934 37.9004 88.9212 37.5221 89.2129 37.2031C89.5046 36.8841 89.8509 36.6289 90.252 36.4375C90.6621 36.2461 91.1087 36.1504 91.5918 36.1504C92.0931 36.1504 92.5579 36.2324 92.9863 36.3965C93.4147 36.5605 93.7884 36.793 94.1074 37.0938C94.4173 37.3945 94.6634 37.7591 94.8457 38.1875C95.028 38.6159 95.1191 39.0944 95.1191 39.623ZM93.752 39.7734C93.752 39.4544 93.7109 39.1172 93.6289 38.7617C93.5469 38.3971 93.4238 38.0599 93.2598 37.75C93.0866 37.4492 92.8633 37.1986 92.5898 36.998C92.3255 36.7884 92.0065 36.6836 91.6328 36.6836C91.2682 36.6836 90.9583 36.7747 90.7031 36.957C90.4479 37.1393 90.2428 37.3672 90.0879 37.6406C89.9238 37.9232 89.8053 38.2331 89.7324 38.5703C89.6686 38.9076 89.6367 39.2311 89.6367 39.541C89.6367 39.8327 89.6732 40.1562 89.7461 40.5117C89.819 40.8672 89.9421 41.1999 90.1152 41.5098C90.2793 41.8288 90.4935 42.0931 90.7578 42.3027C91.0312 42.5124 91.3594 42.6172 91.7422 42.6172C92.0977 42.6172 92.403 42.526 92.6582 42.3438C92.9134 42.1615 93.123 41.929 93.2871 41.6465C93.4421 41.373 93.556 41.0677 93.6289 40.7305C93.7109 40.3932 93.752 40.0742 93.752 39.7734ZM96.9375 33.9082C96.9375 33.6803 96.9284 33.5026 96.9102 33.375C96.8919 33.2383 96.8555 33.138 96.8008 33.0742C96.737 33.0104 96.6458 32.974 96.5273 32.9648C96.4089 32.9466 96.2493 32.9375 96.0488 32.9375V32.5273C96.3496 32.4727 96.6413 32.3861 96.9238 32.2676C97.2155 32.14 97.4707 31.9805 97.6895 31.7891H98.1953C98.168 32.0352 98.1452 32.3132 98.127 32.623C98.1178 32.9238 98.1133 33.179 98.1133 33.3887V41.4551C98.1133 41.8197 98.1725 42.0749 98.291 42.2207C98.4095 42.3574 98.6738 42.4258 99.084 42.4258V42.9316C98.8926 42.9316 98.6556 42.9316 98.373 42.9316C98.0905 42.9225 97.8034 42.918 97.5117 42.918C97.2201 42.918 96.9375 42.918 96.6641 42.918C96.3906 42.918 96.1673 42.9225 95.9941 42.9316V42.4258C96.4134 42.4258 96.6732 42.3665 96.7734 42.248C96.8828 42.1296 96.9375 41.8652 96.9375 41.4551V33.9082ZM100.697 38.0098C100.588 37.7363 100.497 37.5267 100.424 37.3809C100.351 37.2259 100.273 37.112 100.191 37.0391C100.118 36.9661 100.032 36.9251 99.9316 36.916C99.8405 36.8978 99.722 36.8887 99.5762 36.8887V36.3418C99.6947 36.36 99.8906 36.3737 100.164 36.3828C100.447 36.3828 100.743 36.3828 101.053 36.3828C101.354 36.3828 101.645 36.3828 101.928 36.3828C102.21 36.3737 102.415 36.36 102.543 36.3418V36.8887C102.306 36.8887 102.119 36.9023 101.982 36.9297C101.855 36.9479 101.764 36.9889 101.709 37.0527C101.663 37.1257 101.654 37.2305 101.682 37.3672C101.709 37.5039 101.768 37.6862 101.859 37.9141L103.09 41.25L104.43 37.8867C104.594 37.4766 104.653 37.2122 104.607 37.0938C104.562 36.9661 104.325 36.9023 103.896 36.9023V36.3418C104.051 36.36 104.238 36.3691 104.457 36.3691C104.685 36.3691 104.913 36.3691 105.141 36.3691C105.368 36.3691 105.583 36.3691 105.783 36.3691C105.984 36.36 106.143 36.3509 106.262 36.3418V36.8887C106.107 36.8887 105.979 36.9069 105.879 36.9434C105.788 36.9707 105.706 37.0254 105.633 37.1074C105.551 37.1895 105.478 37.2988 105.414 37.4355C105.35 37.5723 105.273 37.75 105.182 37.9688L103.076 43.1504H102.68L100.697 38.0098ZM108.053 38.9258C108.044 38.9622 108.035 39.0671 108.025 39.2402C108.025 39.4134 108.035 39.623 108.053 39.8691C108.089 40.5436 108.281 41.1042 108.627 41.5508C108.973 41.9883 109.438 42.207 110.021 42.207C110.432 42.207 110.792 42.1159 111.102 41.9336C111.421 41.7513 111.703 41.5098 111.949 41.209L112.387 41.4688C112.104 41.9609 111.74 42.3665 111.293 42.6855C110.846 42.9954 110.336 43.1504 109.762 43.1504C109.352 43.1504 108.969 43.0684 108.613 42.9043C108.267 42.7311 107.966 42.4987 107.711 42.207C107.447 41.9062 107.242 41.5599 107.096 41.168C106.959 40.7669 106.891 40.334 106.891 39.8691C106.891 39.2858 106.964 38.7663 107.109 38.3105C107.255 37.8457 107.46 37.4538 107.725 37.1348C107.98 36.8158 108.285 36.5742 108.641 36.4102C109.005 36.237 109.397 36.1504 109.816 36.1504C110.099 36.1504 110.386 36.2005 110.678 36.3008C110.969 36.3919 111.229 36.5332 111.457 36.7246C111.685 36.916 111.872 37.1621 112.018 37.4629C112.163 37.7546 112.241 38.1009 112.25 38.502C112.25 38.6022 112.245 38.6797 112.236 38.7344C112.236 38.7891 112.223 38.8301 112.195 38.8574C112.177 38.8848 112.141 38.903 112.086 38.9121C112.031 38.9212 111.958 38.9258 111.867 38.9258H108.053ZM110.746 38.3242C110.855 38.3242 110.928 38.3105 110.965 38.2832C111.01 38.2467 111.033 38.1693 111.033 38.0508C111.033 37.7591 110.919 37.472 110.691 37.1895C110.464 36.8978 110.154 36.752 109.762 36.752C109.297 36.752 108.928 36.8978 108.654 37.1895C108.381 37.4811 108.208 37.8594 108.135 38.3242H110.746ZM118.074 38.0234C118.074 37.7773 118.024 37.5723 117.924 37.4082C117.824 37.2441 117.696 37.112 117.541 37.0117C117.395 36.9206 117.231 36.8568 117.049 36.8203C116.876 36.7747 116.716 36.752 116.57 36.752C116.306 36.752 116.042 36.8158 115.777 36.9434C115.522 37.0618 115.29 37.2396 115.08 37.4766C114.87 37.7227 114.702 38.028 114.574 38.3926C114.447 38.748 114.383 39.1628 114.383 39.6367C114.383 40.4115 114.583 41.0404 114.984 41.5234C115.385 42.0065 115.923 42.248 116.598 42.248C116.689 42.248 116.816 42.2253 116.98 42.1797C117.154 42.1341 117.318 42.0703 117.473 41.9883C117.637 41.9062 117.778 41.8105 117.896 41.7012C118.015 41.5918 118.074 41.4779 118.074 41.3594V38.0234ZM118.074 33.9082C118.074 33.6803 118.065 33.5026 118.047 33.375C118.029 33.2383 117.992 33.138 117.938 33.0742C117.874 33.0104 117.783 32.974 117.664 32.9648C117.546 32.9466 117.386 32.9375 117.186 32.9375V32.5273C117.486 32.4727 117.778 32.3861 118.061 32.2676C118.352 32.14 118.607 31.9805 118.826 31.7891H119.332C119.305 32.0352 119.282 32.3132 119.264 32.623C119.255 32.9238 119.25 33.179 119.25 33.3887V41.6055C119.25 41.8789 119.309 42.043 119.428 42.0977C119.546 42.1432 119.811 42.1523 120.221 42.125V42.5352C120.048 42.5898 119.792 42.681 119.455 42.8086C119.127 42.9271 118.835 43.0456 118.58 43.1641C118.443 43.237 118.325 43.2507 118.225 43.2051C118.124 43.1595 118.074 43.0957 118.074 43.0137V42.3711C117.865 42.5807 117.568 42.763 117.186 42.918C116.803 43.0638 116.406 43.1367 115.996 43.1367C115.568 43.1367 115.18 43.0456 114.834 42.8633C114.488 42.681 114.191 42.4395 113.945 42.1387C113.699 41.8379 113.508 41.4961 113.371 41.1133C113.243 40.7214 113.18 40.3158 113.18 39.8965C113.18 39.4043 113.271 38.9303 113.453 38.4746C113.635 38.0189 113.891 37.6224 114.219 37.2852C114.538 36.9388 114.911 36.6654 115.34 36.4648C115.777 36.2552 116.242 36.1504 116.734 36.1504C117.008 36.1504 117.245 36.1732 117.445 36.2188C117.646 36.2552 117.855 36.3281 118.074 36.4375V33.9082ZM127.877 39.623C127.877 40.1061 127.786 40.5618 127.604 40.9902C127.43 41.4186 127.193 41.7923 126.893 42.1113C126.592 42.4303 126.236 42.6855 125.826 42.877C125.425 43.0592 124.992 43.1504 124.527 43.1504C124.053 43.1504 123.602 43.0729 123.174 42.918C122.755 42.7539 122.385 42.5215 122.066 42.2207C121.747 41.9199 121.497 41.5553 121.314 41.127C121.132 40.6986 121.041 40.2201 121.041 39.6914C121.041 39.2174 121.123 38.7663 121.287 38.3379C121.451 37.9004 121.679 37.5221 121.971 37.2031C122.262 36.8841 122.609 36.6289 123.01 36.4375C123.42 36.2461 123.867 36.1504 124.35 36.1504C124.851 36.1504 125.316 36.2324 125.744 36.3965C126.173 36.5605 126.546 36.793 126.865 37.0938C127.175 37.3945 127.421 37.7591 127.604 38.1875C127.786 38.6159 127.877 39.0944 127.877 39.623ZM126.51 39.7734C126.51 39.4544 126.469 39.1172 126.387 38.7617C126.305 38.3971 126.182 38.0599 126.018 37.75C125.844 37.4492 125.621 37.1986 125.348 36.998C125.083 36.7884 124.764 36.6836 124.391 36.6836C124.026 36.6836 123.716 36.7747 123.461 36.957C123.206 37.1393 123.001 37.3672 122.846 37.6406C122.682 37.9232 122.563 38.2331 122.49 38.5703C122.426 38.9076 122.395 39.2311 122.395 39.541C122.395 39.8327 122.431 40.1562 122.504 40.5117C122.577 40.8672 122.7 41.1999 122.873 41.5098C123.037 41.8288 123.251 42.0931 123.516 42.3027C123.789 42.5124 124.117 42.6172 124.5 42.6172C124.855 42.6172 125.161 42.526 125.416 42.3438C125.671 42.1615 125.881 41.929 126.045 41.6465C126.2 41.373 126.314 41.0677 126.387 40.7305C126.469 40.3932 126.51 40.0742 126.51 39.7734ZM130.885 37.4766C131.113 37.1211 131.4 36.8112 131.746 36.5469C132.092 36.2826 132.416 36.1504 132.717 36.1504C132.908 36.1504 133.104 36.2142 133.305 36.3418C133.514 36.4694 133.619 36.6836 133.619 36.9844C133.619 37.2031 133.537 37.39 133.373 37.5449C133.218 37.6908 133.049 37.7637 132.867 37.7637C132.73 37.7637 132.617 37.7454 132.525 37.709C132.443 37.6725 132.37 37.6315 132.307 37.5859C132.243 37.5404 132.184 37.4993 132.129 37.4629C132.074 37.4173 132.006 37.3945 131.924 37.3945C131.824 37.3945 131.714 37.4264 131.596 37.4902C131.477 37.554 131.363 37.6406 131.254 37.75C131.145 37.8503 131.053 37.9733 130.98 38.1191C130.917 38.265 130.885 38.4199 130.885 38.584V41.4551C130.885 41.6647 130.898 41.8333 130.926 41.9609C130.953 42.0885 131.017 42.1888 131.117 42.2617C131.227 42.3255 131.377 42.3711 131.568 42.3984C131.769 42.4167 132.042 42.4258 132.389 42.4258V42.9316C132.188 42.9225 131.919 42.918 131.582 42.918C131.245 42.9089 130.894 42.9043 130.529 42.9043C130.156 42.9043 129.796 42.9089 129.449 42.918C129.103 42.918 128.829 42.9225 128.629 42.9316V42.4258C128.875 42.4258 129.066 42.4167 129.203 42.3984C129.349 42.3802 129.458 42.3392 129.531 42.2754C129.604 42.2116 129.65 42.1159 129.668 41.9883C129.695 41.8516 129.709 41.6738 129.709 41.4551V38.2832C129.709 37.8366 129.668 37.554 129.586 37.4355C129.504 37.3079 129.281 37.2441 128.916 37.2441V36.8203C129.208 36.7747 129.481 36.7018 129.736 36.6016C129.992 36.5013 130.229 36.3555 130.447 36.1641H130.953C130.926 36.3828 130.908 36.6061 130.898 36.834C130.889 37.0618 130.885 37.276 130.885 37.4766ZM140.469 41.0586C140.469 41.3776 140.478 41.6283 140.496 41.8105C140.523 41.9837 140.583 42.1159 140.674 42.207C140.765 42.2982 140.897 42.3574 141.07 42.3848C141.243 42.4121 141.48 42.4258 141.781 42.4258V42.9316C141.59 42.9316 141.312 42.9316 140.947 42.9316C140.583 42.9225 140.204 42.918 139.812 42.918C139.411 42.918 139.029 42.9225 138.664 42.9316C138.309 42.9316 138.044 42.9316 137.871 42.9316V42.4258C138.181 42.4258 138.423 42.4121 138.596 42.3848C138.778 42.3574 138.915 42.2936 139.006 42.1934C139.097 42.1022 139.156 41.9655 139.184 41.7832C139.211 41.6009 139.225 41.3594 139.225 41.0586V34.3867C139.225 34.1133 139.206 33.8991 139.17 33.7441C139.143 33.5892 139.083 33.4707 138.992 33.3887C138.892 33.3066 138.751 33.252 138.568 33.2246C138.395 33.1973 138.163 33.179 137.871 33.1699V32.6504C138.4 32.6686 138.951 32.6823 139.525 32.6914C140.109 32.6914 140.697 32.6914 141.289 32.6914C141.882 32.6914 142.469 32.6914 143.053 32.6914C143.636 32.6823 144.201 32.6686 144.748 32.6504L144.83 34.8789L144.242 34.8652C144.188 34.5645 144.128 34.3138 144.064 34.1133C144.01 33.9036 143.919 33.735 143.791 33.6074C143.663 33.4798 143.486 33.3887 143.258 33.334C143.039 33.2702 142.743 33.2383 142.369 33.2383H140.469V37.2441H142.369C142.734 37.2441 142.984 37.1758 143.121 37.0391C143.258 36.9023 143.34 36.5651 143.367 36.0273H143.982C143.964 36.2096 143.951 36.4466 143.941 36.7383C143.941 37.0208 143.941 37.3171 143.941 37.627C143.941 37.946 143.941 38.2559 143.941 38.5566C143.951 38.8574 143.964 39.1035 143.982 39.2949H143.408C143.381 38.7754 143.299 38.4245 143.162 38.2422C143.035 38.0599 142.784 37.9688 142.41 37.9688H140.469V41.0586ZM150.572 42.043C150.135 42.3984 149.729 42.6719 149.355 42.8633C148.991 43.0547 148.558 43.1504 148.057 43.1504C147.865 43.1504 147.674 43.1185 147.482 43.0547C147.291 42.9909 147.118 42.8861 146.963 42.7402C146.808 42.5944 146.68 42.4121 146.58 42.1934C146.489 41.9655 146.443 41.6875 146.443 41.3594V37.6133C146.443 37.3216 146.389 37.1348 146.279 37.0527C146.179 36.9707 145.951 36.916 145.596 36.8887V36.4648C145.842 36.4648 146.161 36.4512 146.553 36.4238C146.945 36.3965 147.318 36.3691 147.674 36.3418C147.656 36.5241 147.642 36.7474 147.633 37.0117C147.624 37.276 147.619 37.4766 147.619 37.6133V40.6211C147.619 41.3138 147.697 41.7604 147.852 41.9609C148.016 42.1615 148.271 42.2617 148.617 42.2617C148.9 42.2617 149.228 42.1797 149.602 42.0156C149.984 41.8516 150.312 41.6328 150.586 41.3594V37.6133C150.586 37.3307 150.513 37.1484 150.367 37.0664C150.221 36.9753 149.966 36.916 149.602 36.8887V36.4648C149.839 36.4648 150.176 36.4512 150.613 36.4238C151.06 36.3965 151.461 36.3691 151.816 36.3418C151.798 36.5241 151.785 36.7474 151.775 37.0117C151.766 37.276 151.762 37.4766 151.762 37.6133V41.8242C151.762 42.0703 151.821 42.2161 151.939 42.2617C152.058 42.3073 152.318 42.3164 152.719 42.2891V42.7129C152.628 42.7311 152.505 42.7585 152.35 42.7949C152.204 42.8314 152.049 42.8678 151.885 42.9043C151.721 42.9499 151.552 42.9954 151.379 43.041C151.215 43.0957 151.069 43.1413 150.941 43.1777C150.85 43.2142 150.764 43.2005 150.682 43.1367C150.609 43.082 150.572 43.0137 150.572 42.9316V42.043ZM154.359 33.9082C154.359 33.6803 154.35 33.5026 154.332 33.375C154.314 33.2383 154.277 33.138 154.223 33.0742C154.159 33.0104 154.068 32.974 153.949 32.9648C153.831 32.9466 153.671 32.9375 153.471 32.9375V32.5273C153.771 32.4727 154.063 32.3861 154.346 32.2676C154.637 32.14 154.893 31.9805 155.111 31.7891H155.617C155.59 32.0352 155.567 32.3132 155.549 32.623C155.54 32.9238 155.535 33.179 155.535 33.3887V41.4551C155.535 41.8197 155.594 42.0749 155.713 42.2207C155.831 42.3574 156.096 42.4258 156.506 42.4258V42.9316C156.314 42.9316 156.077 42.9316 155.795 42.9316C155.512 42.9225 155.225 42.918 154.934 42.918C154.642 42.918 154.359 42.918 154.086 42.918C153.812 42.918 153.589 42.9225 153.416 42.9316V42.4258C153.835 42.4258 154.095 42.3665 154.195 42.248C154.305 42.1296 154.359 41.8652 154.359 41.4551V33.9082ZM158.133 33.9082C158.133 33.6803 158.124 33.5026 158.105 33.375C158.087 33.2383 158.051 33.138 157.996 33.0742C157.932 33.0104 157.841 32.974 157.723 32.9648C157.604 32.9466 157.445 32.9375 157.244 32.9375V32.5273C157.545 32.4727 157.837 32.3861 158.119 32.2676C158.411 32.14 158.666 31.9805 158.885 31.7891H159.391C159.363 32.0352 159.34 32.3132 159.322 32.623C159.313 32.9238 159.309 33.179 159.309 33.3887V41.4551C159.309 41.8197 159.368 42.0749 159.486 42.2207C159.605 42.3574 159.869 42.4258 160.279 42.4258V42.9316C160.088 42.9316 159.851 42.9316 159.568 42.9316C159.286 42.9225 158.999 42.918 158.707 42.918C158.415 42.918 158.133 42.918 157.859 42.918C157.586 42.918 157.363 42.9225 157.189 42.9316V42.4258C157.609 42.4258 157.868 42.3665 157.969 42.248C158.078 42.1296 158.133 41.8652 158.133 41.4551V33.9082ZM164.832 40.3887H165.42C165.475 40.6712 165.548 40.9447 165.639 41.209C165.739 41.4733 165.867 41.7057 166.021 41.9062C166.176 42.1068 166.368 42.2663 166.596 42.3848C166.824 42.5033 167.102 42.5625 167.43 42.5625C168.059 42.5625 168.574 42.3848 168.975 42.0293C169.376 41.6738 169.576 41.2272 169.576 40.6895C169.576 40.3704 169.517 40.097 169.398 39.8691C169.28 39.6322 169.125 39.4225 168.934 39.2402C168.742 39.0671 168.523 38.9076 168.277 38.7617C168.031 38.6159 167.776 38.4655 167.512 38.3105C167.238 38.1647 166.96 38.0098 166.678 37.8457C166.395 37.6725 166.14 37.472 165.912 37.2441C165.684 37.0072 165.497 36.7383 165.352 36.4375C165.206 36.1276 165.133 35.763 165.133 35.3438C165.133 34.8516 165.21 34.4232 165.365 34.0586C165.529 33.694 165.753 33.3887 166.035 33.1426C166.309 32.9056 166.637 32.7279 167.02 32.6094C167.402 32.4818 167.812 32.418 168.25 32.418C168.414 32.418 168.569 32.4271 168.715 32.4453C168.861 32.4635 169.002 32.4818 169.139 32.5C169.275 32.5182 169.412 32.541 169.549 32.5684C169.686 32.5957 169.831 32.6185 169.986 32.6367L170.246 34.6328H169.658C169.576 34.0951 169.408 33.694 169.152 33.4297C168.906 33.1654 168.537 33.0332 168.045 33.0332C167.416 33.0332 166.942 33.2064 166.623 33.5527C166.313 33.8991 166.158 34.3229 166.158 34.8242C166.158 35.1432 166.227 35.4303 166.363 35.6855C166.5 35.9316 166.678 36.1549 166.896 36.3555C167.115 36.5651 167.361 36.752 167.635 36.916C167.917 37.0801 168.204 37.2305 168.496 37.3672C168.77 37.513 169.043 37.668 169.316 37.832C169.59 37.987 169.831 38.1693 170.041 38.3789C170.26 38.5885 170.433 38.8346 170.561 39.1172C170.697 39.3997 170.766 39.737 170.766 40.1289C170.766 40.6302 170.665 41.0723 170.465 41.4551C170.264 41.8288 170.005 42.1387 169.686 42.3848C169.367 42.64 169.002 42.8314 168.592 42.959C168.182 43.0866 167.767 43.1504 167.348 43.1504C166.928 43.1504 166.546 43.1139 166.199 43.041C165.862 42.9681 165.516 42.8496 165.16 42.6855L164.832 40.3887ZM173.623 41.0723C173.623 41.5827 173.687 41.9245 173.814 42.0977C173.942 42.2617 174.106 42.3438 174.307 42.3438C174.434 42.3438 174.635 42.2936 174.908 42.1934C175.182 42.0931 175.4 41.9655 175.564 41.8105L175.838 42.207C175.564 42.4896 175.259 42.7174 174.922 42.8906C174.594 43.0638 174.247 43.1504 173.883 43.1504C173.436 43.1504 173.085 43.0319 172.83 42.7949C172.575 42.5488 172.447 42.1934 172.447 41.7285V37.2852H171.504V36.916C171.969 36.7975 172.311 36.5742 172.529 36.2461C172.757 35.918 172.921 35.4622 173.021 34.8789H173.623V36.5332H175.797V37.2852H173.623V41.0723ZM180.213 39.6914C179.301 39.9193 178.645 40.1608 178.244 40.416C177.843 40.6621 177.643 40.9766 177.643 41.3594C177.643 41.7513 177.729 42.0111 177.902 42.1387C178.076 42.2663 178.326 42.3301 178.654 42.3301C178.937 42.3301 179.219 42.2435 179.502 42.0703C179.794 41.888 180.031 41.6966 180.213 41.4961V39.6914ZM182.592 42.3301C182.391 42.5215 182.168 42.7083 181.922 42.8906C181.685 43.0638 181.421 43.1504 181.129 43.1504C180.855 43.1504 180.637 43.0592 180.473 42.877C180.318 42.6855 180.236 42.4805 180.227 42.2617C180.035 42.4622 179.743 42.6628 179.352 42.8633C178.969 43.0547 178.531 43.1504 178.039 43.1504C177.574 43.1504 177.191 43.0091 176.891 42.7266C176.59 42.444 176.449 42.0885 176.467 41.6602C176.476 41.3047 176.581 41.0039 176.781 40.7578C176.982 40.5117 177.251 40.293 177.588 40.1016C177.925 39.9102 178.317 39.7415 178.764 39.5957C179.219 39.4499 179.702 39.2995 180.213 39.1445V38.2559C180.213 37.873 180.122 37.5677 179.939 37.3398C179.766 37.112 179.456 36.998 179.01 36.998C178.682 36.998 178.399 37.0938 178.162 37.2852C177.925 37.4766 177.802 37.7227 177.793 38.0234C177.793 38.2513 177.734 38.4245 177.615 38.543C177.506 38.6615 177.355 38.7207 177.164 38.7207C176.973 38.7207 176.84 38.6706 176.768 38.5703C176.695 38.4609 176.658 38.3242 176.658 38.1602C176.658 37.8958 176.772 37.6543 177 37.4355C177.228 37.2077 177.624 36.9434 178.189 36.6426C178.49 36.4785 178.736 36.36 178.928 36.2871C179.128 36.2051 179.356 36.1641 179.611 36.1641C180.104 36.1641 180.523 36.3053 180.869 36.5879C181.215 36.8613 181.389 37.2578 181.389 37.7773V41.4688C181.389 41.9427 181.466 42.2025 181.621 42.248C181.785 42.2936 182.077 42.1706 182.496 41.8789L182.592 42.3301ZM189.195 41.5645C188.812 42.0566 188.375 42.444 187.883 42.7266C187.4 43.0091 186.876 43.1504 186.311 43.1504C185.919 43.1504 185.549 43.0638 185.203 42.8906C184.857 42.7083 184.551 42.4714 184.287 42.1797C184.023 41.8789 183.813 41.5417 183.658 41.168C183.503 40.7943 183.426 40.4069 183.426 40.0059C183.426 39.459 183.512 38.9531 183.686 38.4883C183.868 38.0143 184.118 37.6042 184.438 37.2578C184.747 36.9206 185.121 36.6517 185.559 36.4512C186.005 36.2507 186.488 36.1504 187.008 36.1504C187.208 36.1504 187.423 36.1732 187.65 36.2188C187.878 36.2552 188.088 36.3145 188.279 36.3965C188.471 36.4785 188.63 36.5879 188.758 36.7246C188.895 36.8613 188.963 37.0299 188.963 37.2305C188.963 37.4036 188.917 37.554 188.826 37.6816C188.735 37.8092 188.607 37.873 188.443 37.873C188.307 37.873 188.179 37.8411 188.061 37.7773C187.951 37.7044 187.842 37.5586 187.732 37.3398C187.641 37.1667 187.495 37.0254 187.295 36.916C187.094 36.8066 186.816 36.752 186.461 36.752C186.151 36.752 185.878 36.8385 185.641 37.0117C185.404 37.1849 185.208 37.4036 185.053 37.668C184.889 37.9232 184.766 38.2057 184.684 38.5156C184.611 38.8164 184.574 39.0944 184.574 39.3496C184.574 39.7233 184.62 40.0788 184.711 40.416C184.811 40.7533 184.962 41.054 185.162 41.3184C185.363 41.5827 185.609 41.7923 185.9 41.9473C186.192 42.1022 186.538 42.1797 186.939 42.1797C187.313 42.1797 187.655 42.0885 187.965 41.9062C188.284 41.724 188.566 41.5098 188.812 41.2637L189.195 41.5645ZM193.803 37.7363C194.158 37.4173 194.331 37.1986 194.322 37.0801C194.322 36.9525 194.117 36.8887 193.707 36.8887V36.3418C193.835 36.36 194.035 36.3737 194.309 36.3828C194.582 36.3828 194.869 36.3828 195.17 36.3828C195.471 36.3828 195.753 36.3828 196.018 36.3828C196.291 36.3737 196.487 36.36 196.605 36.3418V36.8887C196.396 36.8887 196.209 36.9115 196.045 36.957C195.89 36.9935 195.744 37.0436 195.607 37.1074C195.471 37.1803 195.334 37.2624 195.197 37.3535C195.07 37.4447 194.938 37.5449 194.801 37.6543L193.01 39.1719L195.32 41.8105C195.585 42.1113 195.858 42.2936 196.141 42.3574C196.423 42.4212 196.71 42.4577 197.002 42.4668V42.9316C196.893 42.9316 196.738 42.9316 196.537 42.9316C196.346 42.9225 196.145 42.918 195.936 42.918C195.726 42.918 195.521 42.9225 195.32 42.9316C195.129 42.9316 194.983 42.9316 194.883 42.9316C194.81 42.8496 194.728 42.7539 194.637 42.6445C194.546 42.526 194.459 42.4167 194.377 42.3164L192.244 39.8145L191.861 40.1426V41.4551C191.861 41.6738 191.87 41.8516 191.889 41.9883C191.907 42.1159 191.952 42.2116 192.025 42.2754C192.089 42.3392 192.185 42.3802 192.312 42.3984C192.449 42.4167 192.632 42.4258 192.859 42.4258V42.9316C192.714 42.9225 192.495 42.918 192.203 42.918C191.911 42.9089 191.602 42.9043 191.273 42.9043C190.954 42.9043 190.649 42.9089 190.357 42.918C190.066 42.918 189.856 42.9225 189.729 42.9316V42.4258C189.938 42.4258 190.107 42.4167 190.234 42.3984C190.362 42.3802 190.458 42.3392 190.521 42.2754C190.585 42.2116 190.626 42.1159 190.645 41.9883C190.672 41.8516 190.686 41.6738 190.686 41.4551V33.9082C190.686 33.6803 190.676 33.5026 190.658 33.375C190.64 33.2383 190.604 33.138 190.549 33.0742C190.485 33.0104 190.394 32.974 190.275 32.9648C190.157 32.9466 189.997 32.9375 189.797 32.9375V32.5273C190.098 32.4727 190.389 32.3861 190.672 32.2676C190.964 32.14 191.214 31.9805 191.424 31.7891H191.943C191.916 32.0352 191.893 32.3132 191.875 32.623C191.866 32.9238 191.861 33.179 191.861 33.3887V39.3633L193.803 37.7363Z" fill="white"/>
</svg>

