<svg width="70" height="22" viewBox="0 0 70 22" fill="none" xmlns="http://www.w3.org/2000/svg">
<path fill-rule="evenodd" clip-rule="evenodd" d="M64.1376 9.3102C64.077 9.32232 64.0162 9.45601 64.0162 9.52885C64.0041 10.0152 63.9919 11.3036 63.9919 12.1787C63.9919 12.2031 64.0283 12.2517 64.0648 12.2517C64.2471 12.2638 64.6846 12.276 65.0615 12.276C65.5841 12.276 65.888 12.2031 66.0583 12.1303C66.4958 11.9114 66.7024 11.4373 66.7024 10.9145C66.7024 9.73565 65.8759 9.28583 64.6482 9.28583C64.5631 9.27371 64.3202 9.27371 64.1376 9.3102ZM67.2738 14.7436C67.2738 13.5402 66.3864 12.8716 64.782 12.8716C64.709 12.8716 64.1985 12.8595 64.0769 12.8837C64.0404 12.8959 63.9919 12.9203 63.9919 12.9568C63.9919 13.8197 63.9797 15.1934 64.0162 15.7281C64.0404 15.959 64.2107 16.2873 64.4174 16.3845C64.636 16.5061 65.1345 16.5303 65.4748 16.5303C66.435 16.5303 67.2738 15.9955 67.2738 14.7436ZM61.6582 8.64173C61.7796 8.64173 62.1442 8.67809 63.0802 8.67809C63.9676 8.67809 64.6725 8.65385 65.5355 8.65385C66.593 8.65385 68.0516 9.03056 68.0516 10.6108C68.0516 11.3887 67.5046 12.0087 66.7875 12.3126C66.7512 12.3247 66.7512 12.3489 66.7875 12.361C67.8085 12.6164 68.7081 13.2484 68.7081 14.4395C68.7081 15.6066 67.9788 16.348 66.9212 16.8099C66.277 17.0894 65.4748 17.1866 64.6604 17.1866C64.0404 17.1866 62.3752 17.1138 61.4515 17.1382C61.3543 17.1016 61.5366 16.664 61.6216 16.5912C61.8405 16.5789 62.0105 16.5668 62.2415 16.4938C62.5698 16.4089 62.6061 16.3115 62.6547 15.8132C62.6791 15.3878 62.6791 13.8804 62.6791 12.8109C62.6791 11.3401 62.6914 10.3434 62.6791 9.85722C62.667 9.48051 62.5333 9.3588 62.2659 9.28583C62.0591 9.24948 61.7189 9.20074 61.4393 9.16439C61.3784 9.10353 61.5851 8.69021 61.6582 8.64173ZM54.6445 16.2022C54.9364 16.433 55.5076 16.5302 56.0182 16.5302C56.6745 16.5302 57.3309 16.4089 57.963 15.8373C58.6072 15.2541 59.0569 14.3546 59.0569 12.9203C59.0569 11.5466 58.5342 10.4284 57.4645 9.77213C56.8568 9.39516 56.0789 9.23736 55.1794 9.23736C54.912 9.23736 54.6567 9.24948 54.4988 9.32232C54.4622 9.34669 54.3772 9.45601 54.3772 9.51673C54.3528 9.75988 54.3528 11.6317 54.3528 12.7258C54.3528 13.8562 54.3528 15.4364 54.3772 15.6187C54.3772 15.8011 54.4622 16.0806 54.6446 16.2022H54.6445ZM51.8852 8.6416C52.1163 8.6416 53.0035 8.67809 53.429 8.67809C54.1949 8.67809 54.7418 8.64173 56.1882 8.64173C57.4037 8.64173 58.4248 8.96984 59.1541 9.5897C60.0413 10.3555 60.5034 11.4131 60.5034 12.7014C60.5034 14.5369 59.6646 15.5944 58.8258 16.2022C57.9873 16.8221 56.8933 17.1866 55.3374 17.1866C54.5109 17.1866 53.0888 17.1624 51.9096 17.1502H51.8975C51.8368 17.0408 51.9947 16.6154 52.0919 16.6033C52.408 16.5668 52.4931 16.5545 52.6512 16.4939C52.9063 16.3966 52.9551 16.2629 52.9915 15.8132C53.0279 14.9745 53.0158 13.9656 53.0158 12.823C53.0158 12.0087 53.0279 10.4162 53.0035 9.9057C52.9672 9.48038 52.7849 9.37092 52.4202 9.29795C52.2379 9.2616 51.9947 9.21286 51.6545 9.17651C51.6057 9.09129 51.8245 8.71444 51.8852 8.6416Z" fill="#58AA50"/>
<path fill-rule="evenodd" clip-rule="evenodd" d="M37.1777 16.6761C36.8738 16.6396 36.655 16.5911 36.3877 16.4696C36.3512 16.4452 36.2903 16.3238 36.2903 16.275C36.2661 15.8496 36.2661 14.6341 36.2661 13.8198C36.2661 13.1633 36.1567 12.5921 35.8771 12.191C35.5489 11.7289 35.075 11.4617 34.4671 11.4617C33.9323 11.4617 33.2151 11.8263 32.6195 12.3368C32.6074 12.3489 32.5101 12.4341 32.5223 12.3003C32.5223 12.1666 32.5466 11.8992 32.5588 11.7168C32.571 11.5466 32.4737 11.4617 32.4737 11.4617C32.0847 11.6561 30.9908 11.9114 30.5896 11.9477C30.298 12.0087 30.225 12.2882 30.529 12.3854H30.5411C30.8691 12.4826 31.088 12.5921 31.258 12.7015C31.3796 12.7987 31.3675 12.9324 31.3675 13.0419C31.3796 13.9534 31.3796 15.3513 31.3433 16.1171C31.3311 16.421 31.2461 16.5303 31.0271 16.5789L31.0515 16.5668C30.8813 16.6033 30.7476 16.6396 30.541 16.664C30.468 16.737 30.468 17.1259 30.541 17.211C30.6747 17.211 31.3796 17.1745 31.9633 17.1745C32.7654 17.1745 33.1787 17.211 33.3853 17.211C33.4704 17.1138 33.4947 16.7491 33.4461 16.664C33.2151 16.6519 33.0449 16.6276 32.887 16.5789C32.6682 16.5302 32.6074 16.421 32.5951 16.1657C32.571 15.5213 32.571 14.16 32.571 13.2363C32.571 12.981 32.6438 12.8595 32.7167 12.7865C32.9963 12.5435 33.4461 12.3733 33.8472 12.3733C34.2362 12.3733 34.4913 12.4949 34.6859 12.6529C34.9532 12.8716 35.0383 13.1877 35.0748 13.4186C35.1355 13.9413 35.1113 14.9744 35.1113 15.8739C35.1113 16.3601 35.0748 16.4817 34.8927 16.5424C34.8074 16.5789 34.5887 16.6276 34.3334 16.6517C34.2483 16.737 34.2727 17.1138 34.3334 17.1989C34.6859 17.1989 35.0992 17.1624 35.7069 17.1624C36.4605 17.1624 36.9468 17.1989 37.1413 17.1989C37.2019 17.1259 37.2263 16.7734 37.1777 16.6761ZM40.5447 12.0331C39.9006 12.0331 39.4993 12.5313 39.4993 13.3091C39.4993 14.0993 39.8518 15.0109 40.8485 15.0109C41.0187 15.0109 41.3348 14.938 41.4805 14.7678C41.7115 14.5491 41.8696 14.1114 41.8696 13.6495C41.8696 12.6407 41.3712 12.0331 40.5447 12.0331ZM40.4596 17.4054C40.2166 17.4054 40.0462 17.4784 39.9369 17.5393C39.4264 17.8672 39.1955 18.1834 39.1955 18.5603C39.1955 18.9127 39.3292 19.1922 39.6209 19.4353C39.9734 19.7392 40.4596 19.8851 41.0794 19.8851C42.3193 19.8851 42.8663 19.2165 42.8663 18.5603C42.8663 18.0983 42.6353 17.7944 42.1614 17.6243C41.821 17.4784 41.2011 17.4054 40.4596 17.4054ZM40.5447 20.5659C39.8032 20.5659 39.2683 20.4078 38.8065 20.0553C38.3567 19.715 38.1623 19.2044 38.1623 18.852C38.1623 18.7547 38.1867 18.4872 38.4054 18.2442C38.539 18.0983 38.8309 17.8188 39.5237 17.3447C39.548 17.3326 39.5601 17.3205 39.5601 17.296C39.5601 17.2717 39.5357 17.2474 39.5115 17.2354C38.9402 17.0166 38.77 16.664 38.7213 16.4696V16.4452C38.7093 16.3722 38.6849 16.2994 38.7944 16.2264C38.8795 16.1657 39.0011 16.0927 39.1346 16.0078C39.3413 15.8861 39.5601 15.7524 39.6938 15.6429C39.7181 15.6187 39.7181 15.5944 39.7181 15.5701C39.7181 15.5457 39.6938 15.5213 39.6694 15.5094C38.8188 15.2297 38.3933 14.5976 38.3933 13.6495C38.3933 13.0296 38.6728 12.4705 39.1711 12.118C39.5115 11.8506 40.3624 11.5224 40.9215 11.5224H40.958C41.5292 11.5345 41.8452 11.6561 42.2949 11.8141C42.5381 11.8992 42.7691 11.9356 43.0852 11.9356C43.5591 11.9356 43.7658 11.7898 43.9359 11.6197C43.9481 11.644 43.9725 11.7048 43.9846 11.8628C43.9967 12.0208 43.9481 12.2517 43.8265 12.4219C43.7293 12.5556 43.5105 12.6529 43.2918 12.6529H43.2309C43.0121 12.6286 42.9148 12.6042 42.9148 12.6042L42.8663 12.6286C42.8542 12.6529 42.8663 12.6772 42.8784 12.7136L42.8907 12.738C42.9149 12.8473 42.9635 13.1754 42.9635 13.2607C42.9635 14.2574 42.5624 14.6948 42.137 15.0231C41.7237 15.3269 41.2497 15.5213 40.7148 15.5701C40.7027 15.5701 40.6542 15.5701 40.5447 15.5822C40.4839 15.5822 40.3988 15.5944 40.3866 15.5944H40.3745C40.2773 15.6187 40.0343 15.7403 40.0343 15.9468C40.0343 16.1291 40.1436 16.348 40.6662 16.3845C40.7756 16.3966 40.8849 16.3966 41.0066 16.4089C41.6994 16.4573 42.5624 16.5182 42.9635 16.6519C43.5227 16.8584 43.8751 17.3568 43.8751 17.9524C43.8751 18.8521 43.231 19.6907 42.1614 20.2133C41.6387 20.4443 41.1159 20.5659 40.5447 20.5659ZM47.473 12.0938C47.2179 12.0938 46.9868 12.1544 46.8167 12.2759C46.3427 12.5677 46.0996 13.1512 46.0996 14.002C46.0996 15.5944 46.9017 16.7127 48.0444 16.7127C48.3848 16.7127 48.6521 16.6154 48.883 16.421C49.2355 16.1291 49.4179 15.5457 49.4179 14.7313C49.4179 13.1512 48.6278 12.0937 47.4731 12.0937L47.473 12.0938ZM47.6919 17.2961C45.6255 17.2961 44.8841 15.7767 44.8841 14.3546C44.8841 13.3579 45.2852 12.5921 46.0873 12.045C46.6587 11.6926 47.3394 11.4982 47.9472 11.4982C49.5273 11.4982 50.6334 12.6286 50.6334 14.2574C50.6334 15.3634 50.1959 16.2385 49.3571 16.7734C48.956 17.0408 48.2632 17.2961 47.6918 17.2961H47.6919ZM26.0315 12.0937C25.7762 12.0937 25.5453 12.1544 25.375 12.2759C24.9011 12.5677 24.6579 13.1512 24.6579 14.002C24.6579 15.5944 25.4601 16.7127 26.6027 16.7127C26.9431 16.7127 27.2105 16.6154 27.4415 16.421C27.7939 16.1291 27.9763 15.5457 27.9763 14.7313C27.9763 13.1512 27.1984 12.0937 26.0315 12.0937ZM26.2503 17.2961C24.1839 17.2961 23.4424 15.7767 23.4424 14.3546C23.4424 13.3579 23.8435 12.5921 24.6457 12.045C25.2171 11.6926 25.8978 11.4982 26.5055 11.4982C28.0858 11.4982 29.1918 12.6286 29.1918 14.2574C29.1918 15.3634 28.7542 16.2385 27.9154 16.7734C27.5265 17.0408 26.8336 17.2961 26.2503 17.2961ZM12.357 17.1745C12.3326 17.1382 12.3082 17.0287 12.3205 16.895C12.3205 16.7977 12.3448 16.737 12.357 16.7127C12.6122 16.6761 12.7459 16.6396 12.8917 16.6033C13.1349 16.5424 13.2321 16.4089 13.2442 16.105C13.2808 15.3757 13.2808 13.9899 13.2686 13.0296V13.0053C13.2686 12.8959 13.2686 12.7621 13.1349 12.6649C12.9403 12.5435 12.7094 12.4341 12.4056 12.3488C12.2962 12.3126 12.2233 12.2517 12.2354 12.1789C12.2354 12.1059 12.3084 12.0208 12.4664 11.9964C12.8675 11.96 13.9127 11.7048 14.326 11.5224C14.3504 11.5466 14.3869 11.6197 14.3869 11.7169L14.3747 11.8505C14.3625 11.9843 14.3504 12.1424 14.3504 12.3003C14.3504 12.3489 14.3991 12.3854 14.4476 12.3854C14.4719 12.3854 14.4963 12.3733 14.5206 12.361C15.2985 11.7533 16.0034 11.5345 16.368 11.5345C16.9638 11.5345 17.4257 11.8141 17.7782 12.3975C17.8024 12.4341 17.8268 12.4463 17.8633 12.4463C17.8875 12.4463 17.9239 12.4341 17.9361 12.4098C18.6533 11.8628 19.3705 11.5345 19.8444 11.5345C20.9748 11.5345 21.6434 12.3733 21.6434 13.7954C21.6434 14.1965 21.6434 14.7192 21.6313 15.1934C21.6313 15.6187 21.6192 16.0076 21.6192 16.2873C21.6192 16.3479 21.7042 16.5424 21.8379 16.5789C22.008 16.664 22.2391 16.7005 22.5429 16.7491H22.5551C22.5794 16.8342 22.5308 17.1502 22.4822 17.211C22.4093 17.211 22.2998 17.211 22.1784 17.1989C21.8707 17.1828 21.5626 17.1747 21.2545 17.1745C20.5009 17.1745 20.112 17.1866 19.735 17.211C19.7109 17.1138 19.6986 16.822 19.735 16.7491C19.9539 16.7127 20.0632 16.6761 20.1971 16.6398C20.4402 16.5668 20.5009 16.4573 20.5132 16.1413C20.5132 15.9104 20.5616 13.9413 20.4887 13.4672C20.4158 12.981 20.0511 12.4098 19.2488 12.4098C18.9449 12.4098 18.471 12.5313 18.0091 12.8837C17.9849 12.9081 17.9604 12.9688 17.9604 13.0053V13.0175C18.0091 13.2727 18.0091 13.5645 18.0091 14.0142V14.8043C18.0091 15.3513 17.9968 15.8618 18.0091 16.2507C18.0091 16.5182 18.1672 16.5789 18.3008 16.6276C18.3738 16.6396 18.4223 16.6519 18.4831 16.664C18.5925 16.6884 18.7019 16.7127 18.8721 16.7491C18.8965 16.7978 18.8965 16.9557 18.86 17.0894C18.8477 17.1624 18.8234 17.1988 18.8113 17.211C18.3981 17.1989 17.9726 17.1866 17.3527 17.1866C17.1704 17.1866 16.8543 17.1989 16.5869 17.1989C16.368 17.1989 16.1615 17.211 16.04 17.211C16.0278 17.1866 16.0034 17.1017 16.0034 16.9679C16.0034 16.8585 16.0278 16.7734 16.0522 16.7491C16.1129 16.737 16.1615 16.7248 16.2223 16.7248C16.368 16.7005 16.4897 16.6761 16.6112 16.6519C16.818 16.5911 16.8908 16.4817 16.9029 16.2143C16.9394 15.6066 16.9759 13.8684 16.8908 13.4307C16.745 12.7258 16.3439 12.3733 15.6996 12.3733C15.3228 12.3733 14.8487 12.5556 14.4598 12.8475C14.399 12.8959 14.3504 13.0174 14.3504 13.1268V13.844C14.3504 14.7192 14.3504 15.8132 14.3625 16.2873C14.3747 16.433 14.4232 16.6033 14.7028 16.664C14.7637 16.6761 14.8609 16.7005 14.9825 16.7127L15.2011 16.7491C15.2256 16.822 15.2134 17.1138 15.1648 17.211C15.0432 17.211 14.8974 17.1989 14.7271 17.1989C14.4113 17.1832 14.0953 17.1751 13.7791 17.1745C13.3537 17.1745 13.0498 17.1866 12.8066 17.1989C12.6365 17.1745 12.5028 17.1745 12.357 17.1745Z" fill="#D9D9D9"/>
<path fill-rule="evenodd" clip-rule="evenodd" d="M5.96321 20.0919L5.46492 19.9216C5.46492 19.9216 5.52577 17.3813 4.61403 17.199C4.00641 16.4939 4.7115 -12.7026 6.89933 17.1016C6.89933 17.1016 6.14564 17.4783 6.01194 18.1227C5.866 18.7548 5.96321 20.0919 5.96321 20.0919Z" fill="white"/>
<path fill-rule="evenodd" clip-rule="evenodd" d="M5.96321 20.0919L5.46492 19.9216C5.46492 19.9216 5.52577 17.3813 4.61403 17.199C4.00641 16.4939 4.7115 -12.7026 6.89933 17.1016C6.89933 17.1016 6.14564 17.4783 6.01194 18.1227C5.866 18.7548 5.96321 20.0919 5.96321 20.0919Z" fill="#A6A385"/>
<path fill-rule="evenodd" clip-rule="evenodd" d="M6.23077 17.6365C6.23077 17.6365 10.5946 14.7678 9.57337 8.79953C8.58891 4.46035 6.26726 3.0382 6.01199 2.49118C5.73248 2.10222 5.46497 1.42163 5.46497 1.42163L5.64739 13.4914C5.64739 13.5037 5.27055 17.1866 6.2309 17.6366" fill="white"/>
<path fill-rule="evenodd" clip-rule="evenodd" d="M6.23077 17.6365C6.23077 17.6365 10.5946 14.7678 9.57337 8.79953C8.58891 4.46035 6.26726 3.0382 6.01199 2.49118C5.73248 2.10222 5.46497 1.42163 5.46497 1.42163L5.64739 13.4914C5.64739 13.5037 5.27055 17.1866 6.2309 17.6366" fill="#499D4A"/>
<path fill-rule="evenodd" clip-rule="evenodd" d="M5.20981 17.7944C5.20981 17.7944 1.11339 14.9987 1.35654 10.076C1.58744 5.15322 4.48036 2.73436 5.0395 2.29679C5.40422 1.90783 5.41634 1.76189 5.44071 1.37292C5.69598 1.91995 5.64737 9.55338 5.68373 10.4527C5.79305 13.9169 5.48931 17.1382 5.20981 17.7944Z" fill="white"/>
<path fill-rule="evenodd" clip-rule="evenodd" d="M5.20981 17.7944C5.20981 17.7944 1.11339 14.9987 1.35654 10.076C1.58744 5.15322 4.48036 2.73436 5.0395 2.29679C5.40422 1.90783 5.41634 1.76189 5.44071 1.37292C5.69598 1.91995 5.64737 9.55338 5.68373 10.4527C5.79305 13.9169 5.48931 17.1382 5.20981 17.7944Z" fill="#58AA50"/>
</svg>

