<svg width="48" height="50" viewBox="0 0 48 50" fill="none" xmlns="http://www.w3.org/2000/svg">
<path d="M21.8343 0.528356C23.1459 -0.17453 24.8542 -0.177705 26.1646 0.528356C32.7572 4.01615 39.3519 7.49849 45.9434 10.9884C47.1832 11.6423 48.0125 12.9341 47.9999 14.2716V35.2555C48.0091 36.6484 47.0979 37.9711 45.7899 38.6102C39.2189 42.0787 32.6513 45.5515 26.0815 49.0201C24.7428 49.7368 23.0002 49.6816 21.7034 48.9062C19.7334 47.8369 17.76 46.773 15.7899 45.7048C15.3873 45.4801 14.9335 45.3013 14.6492 44.9358C14.9005 44.6187 15.3498 44.5791 15.7149 44.4407C16.5372 44.1959 17.2925 43.8029 18.0479 43.4215C18.2389 43.2991 18.4721 43.3461 18.6553 43.4556C20.3398 44.3599 22.0095 45.2905 23.6997 46.1862C24.0603 46.3811 24.4254 46.1223 24.7336 45.9615C31.1817 42.5493 37.6378 39.1501 44.0848 35.7369C44.3237 35.6293 44.4557 35.3919 44.4363 35.1469C44.4408 28.2247 44.4374 21.3013 44.4386 14.3792C44.4659 14.1012 44.2941 13.8456 44.0256 13.7319C37.4775 10.2792 30.9327 6.82117 24.3856 3.36759C24.2722 3.29458 24.1378 3.25541 24.0002 3.25522C23.8625 3.25503 23.728 3.29383 23.6144 3.36654C17.0673 6.82117 10.5237 10.2823 3.97665 13.7349C3.70914 13.8488 3.52961 14.1002 3.56144 14.3792C3.56257 21.3013 3.56144 28.2247 3.56144 35.1479C3.55009 35.2675 3.57813 35.3874 3.64179 35.4916C3.70545 35.5957 3.80167 35.6791 3.9175 35.7305C5.66461 36.6581 7.41397 37.5792 9.16221 38.5036C10.1471 39 11.3564 39.2949 12.4415 38.9146C13.3991 38.5931 14.0703 37.6782 14.052 36.7262C14.061 29.8445 14.0475 22.9616 14.0588 16.0809C14.0349 15.7754 14.3444 15.523 14.6616 15.5518C15.5011 15.5465 16.3417 15.5412 17.1811 15.5539C17.5315 15.5465 17.7727 15.8754 17.7293 16.1832C17.7259 23.1086 17.7384 30.0341 17.7237 36.9594C17.7259 38.8051 16.9161 40.8134 15.0927 41.7164C12.8463 42.806 10.0699 42.5749 7.85066 41.5302C5.92948 40.6324 4.09609 39.5729 2.20901 38.611C0.897642 37.9755 -0.00906886 36.6475 0.000162145 35.2557V14.2716C-0.0135902 12.9064 0.848661 11.5911 2.12706 10.9468C8.6969 7.47538 15.2656 4.00134 21.8343 0.528356Z" fill="#8CC84B"/>
<path d="M27.5658 15.0641C30.4312 14.8914 33.4987 14.9618 36.0772 16.2835C38.0735 17.2963 39.1803 19.4218 39.2155 21.4984C39.1598 21.7785 38.847 21.933 38.5614 21.9138C37.7301 21.9127 36.8985 21.9244 36.0672 21.9085C35.7145 21.9212 35.5096 21.6168 35.4653 21.3248C35.2264 20.3313 34.6477 19.3472 33.6489 18.868C32.1156 18.1492 30.3377 18.1854 28.6658 18.2004C27.4452 18.2611 26.1327 18.36 25.0987 19.032C24.3048 19.5411 24.0637 20.5687 24.347 21.3963C24.6141 21.9905 25.3468 22.1822 25.9462 22.359C29.3994 23.2046 33.0586 23.1204 36.4458 24.2332C37.8482 24.6869 39.22 25.5688 39.7001 26.9435C40.328 28.786 40.0527 30.9883 38.6526 32.4675C37.5172 33.6847 35.8635 34.3472 34.2142 34.707C32.02 35.1651 29.743 35.1767 27.5148 34.9734C25.4195 34.7497 23.2391 34.2343 21.6216 32.8977C20.2385 31.7732 19.5629 30.0212 19.63 28.3302C19.646 28.0447 19.9497 27.8455 20.2419 27.869C21.0791 27.8627 21.9162 27.8605 22.7534 27.8701C23.0878 27.8477 23.3357 28.1182 23.3529 28.4133C23.5074 29.36 23.8873 30.3535 24.769 30.9148C26.4705 31.9426 28.6055 31.8722 30.5538 31.9009C32.1679 31.8339 33.9798 31.8136 35.2971 30.8148C35.992 30.2451 36.1979 29.2919 36.0101 28.4719C35.8066 27.7796 35.0331 27.457 34.3689 27.246C30.96 26.2364 27.2599 26.6028 23.884 25.461C22.5134 25.0075 21.1881 24.1501 20.6616 22.8319C19.9269 20.9661 20.2635 18.6583 21.8104 17.2291C23.3186 15.8074 25.4958 15.2601 27.5658 15.0641Z" fill="#8CC84B"/>
</svg>

