<svg width="75" height="15" viewBox="0 0 75 15" fill="none" xmlns="http://www.w3.org/2000/svg">
<path d="M20.1769 7.07649H17.4572V4.34134H20.3245C21.374 4.34134 21.8988 4.80423 21.8988 5.73024C21.8988 6.6279 21.3246 7.07696 20.1769 7.07696M22.1315 4.30946C21.7565 3.97571 21.2374 3.80884 20.5673 3.80884L16.6725 3.8304V10.3742H17.4572L17.4501 7.58837H20.3484C21.075 7.58837 21.6473 7.42149 22.0648 7.08774C22.4822 6.75399 22.691 6.29087 22.691 5.6986C22.691 5.10634 22.5047 4.64345 22.132 4.30946H22.1315ZM27.2109 9.00001C27.1359 9.21408 27.0077 9.4056 26.8385 9.55665C26.4869 9.89978 25.9507 10.0711 25.2293 10.0711C24.5777 10.0711 24.078 9.90704 23.7293 9.57095C23.3805 9.23485 23.2059 8.79118 23.2059 8.23196C23.2059 7.94087 23.2516 7.68235 23.3428 7.45688C23.434 7.23142 23.5664 7.0411 23.7398 6.88595C24.1008 6.55712 24.5972 6.39259 25.2295 6.39259C26.6301 6.39259 27.3307 7.00571 27.3307 8.23196C27.3307 8.52329 27.2908 8.77923 27.2135 9.00001M27.3558 6.58595C26.8776 6.15001 26.1698 5.9297 25.2319 5.9297C24.3459 5.9297 23.6611 6.15235 23.1783 6.59767C22.7423 7.00079 22.522 7.54454 22.522 8.22938C22.522 8.90907 22.747 9.45751 23.197 9.8747C23.4455 10.0997 23.7349 10.2628 24.0656 10.3636C24.3963 10.4644 24.7842 10.5148 25.2295 10.5148C26.1623 10.5148 26.8701 10.2992 27.3605 9.8679C27.7964 9.47415 28.0167 8.9304 28.0167 8.22915C28.0167 7.52603 27.7964 6.97759 27.3558 6.58337V6.58595ZM33.2897 9.18915C33.2897 10.0699 32.5005 10.5103 30.9225 10.5103C30.4401 10.5103 30.0337 10.4799 29.7037 10.4184C29.3737 10.357 29.1054 10.2556 28.8994 10.1142C28.7404 10.0067 28.6101 9.86183 28.5199 9.69235C28.4262 9.51892 28.3652 9.30095 28.3371 9.0361L29.0714 9.02907C29.0714 9.37595 29.1998 9.63095 29.4569 9.79501C29.7328 9.99188 30.221 10.0903 30.9225 10.0903C32.0255 10.0903 32.5772 9.81376 32.5772 9.2611C32.5772 8.93767 32.3897 8.71548 32.0222 8.59314C31.9472 8.5697 31.5012 8.50759 30.6862 8.40704C29.8713 8.30649 29.3597 8.21603 29.1586 8.13634C28.7231 7.9629 28.5054 7.65118 28.5054 7.20165C28.5054 6.76103 28.6999 6.4329 29.0913 6.21774C29.2835 6.12868 29.5237 6.05978 29.8123 6.01032C30.1008 5.96087 30.4348 5.93649 30.8144 5.93649C32.3337 5.93649 33.0933 6.41321 33.0933 7.36618H32.3948C32.3948 6.69587 31.8605 6.35837 30.7929 6.35837C30.2496 6.35837 29.8444 6.42868 29.5774 6.56228C29.3105 6.69587 29.1771 6.90681 29.1771 7.18806C29.1771 7.45056 29.3576 7.6404 29.718 7.75759C29.929 7.81853 30.4137 7.88884 31.1726 7.96853C31.8518 8.02946 32.318 8.11618 32.5708 8.22634C33.0537 8.41384 33.2946 8.73259 33.2946 9.18188L33.2897 9.18915ZM36.1739 10.3828L35.8751 10.425L35.6887 10.4391C35.2106 10.4391 34.8684 10.3699 34.6544 10.2312C34.4405 10.0924 34.3373 9.84985 34.3373 9.50462V6.51517H33.4687V6.07595H34.3329L34.3399 4.66501H35.0093V6.07595H36.1751V6.5222L35.0093 6.51517V9.42071C35.0093 9.63704 35.0667 9.78634 35.1815 9.86603C35.2964 9.94571 35.5012 9.98931 35.7965 9.98931C35.8387 9.99399 35.8856 9.99259 35.9372 9.98462C36.0153 9.9707 36.0928 9.95302 36.1692 9.93165L36.1762 10.377L36.1739 10.3828ZM40.804 9.39142C40.6212 9.54142 40.413 9.65579 40.1789 9.73595C39.9447 9.8161 39.6755 9.85314 39.3712 9.85314C37.9711 9.85314 37.2712 9.27493 37.2712 8.11876C37.2712 7.5804 37.4503 7.15899 37.8087 6.85454C38.167 6.55009 38.6712 6.39798 39.3223 6.39798C39.9778 6.39798 40.4754 6.55149 40.8148 6.85806C41.1541 7.16462 41.324 7.57571 41.324 8.09087C41.324 8.65267 41.1506 9.08579 40.8042 9.39001M41.9937 6.07712H41.3243L41.3173 6.8154C41.0219 6.5154 40.811 6.32626 40.6844 6.24657C40.3094 6.04032 39.8248 5.93767 39.2297 5.93767C38.3583 5.93767 37.6926 6.13688 37.2337 6.53485C36.7978 6.90048 36.5803 7.42946 36.5803 8.12251C36.5803 8.4647 36.6354 8.76985 36.7455 9.03657C36.8557 9.30329 37.0165 9.53415 37.2276 9.72142C37.6875 10.1053 38.3374 10.2975 39.1776 10.2975C40.1864 10.2975 40.9019 10.0217 41.3245 9.4697V10.2338C41.3245 10.7213 41.171 11.0981 40.8642 11.3653C40.5574 11.6325 40.0526 11.7638 39.3497 11.7638C38.6887 11.7638 38.2181 11.67 37.9371 11.4909C37.7262 11.351 37.5808 11.1084 37.5012 10.7632H36.8121C36.8871 11.2453 37.0933 11.5941 37.4215 11.8092C37.8058 12.0572 38.4527 12.1812 39.3668 12.1812C41.1152 12.1812 41.9918 11.5313 41.9918 10.2312V6.07899L41.9937 6.07712ZM45.6148 6.51142C45.4132 6.4786 45.2262 6.46454 45.0532 6.46454C43.9528 6.46454 43.4027 7.06806 43.4027 8.27462V10.3732H42.7404L42.7333 6.07899L43.403 6.08556V6.85196H43.4381C43.5506 6.55009 43.7287 6.3211 43.972 6.16524C44.2387 6.01431 44.6367 5.93884 45.1659 5.93884H45.6152V6.5154L45.6148 6.51142ZM46.2375 7.9547C46.3219 7.46673 46.5117 7.08892 46.8063 6.82126C46.9985 6.66657 47.2165 6.55009 47.4598 6.47274C47.703 6.3954 47.9754 6.35649 48.2819 6.35649C48.8768 6.35649 49.3601 6.51962 49.7398 6.84587C50.1194 7.17212 50.3051 7.54196 50.3051 7.95446L46.2375 7.9547ZM50.3702 6.62978C50.1358 6.3947 49.8452 6.22103 49.4983 6.10806C49.1515 5.99509 48.7483 5.93884 48.2796 5.93884C47.4124 5.93884 46.7398 6.1404 46.2612 6.54353C45.7826 6.94665 45.544 7.49509 45.544 8.18931C45.544 8.88353 45.7737 9.43149 46.233 9.84165C46.7299 10.2917 47.4283 10.5167 48.3349 10.5167C48.6958 10.5167 49.0294 10.4756 49.3364 10.3941C49.6434 10.3125 49.9118 10.1967 50.1412 10.0472C50.5444 9.75774 50.7994 9.40032 50.9076 8.9761H50.1839C49.9355 9.7104 49.3174 10.0777 48.329 10.0777C47.6311 10.0777 47.0946 9.89814 46.7201 9.53907C46.3966 9.23134 46.2354 8.83267 46.2354 8.34282H51.008C51.008 7.61439 50.797 7.04321 50.3681 6.63188L50.3702 6.62978Z" fill="#CCCCCC" fill-opacity="0.97"/>
<path d="M58.0828 8.6194C58.0828 9.8944 57.0546 10.5319 54.998 10.5319C53.7658 10.5319 52.8663 10.3123 52.2996 9.87565C51.8355 9.51472 51.604 8.9644 51.604 8.22378H52.4318C52.4318 9.41394 53.2873 10.009 54.9977 10.009C55.818 10.009 56.411 9.88714 56.779 9.64386C57.0883 9.4287 57.243 9.09144 57.243 8.63276C57.243 8.17854 57.0321 7.86026 56.6102 7.67745C56.3712 7.57901 55.7899 7.4548 54.8594 7.30526C53.6923 7.12714 52.9357 6.94948 52.5888 6.77159C52.0873 6.50909 51.8388 6.06448 51.8388 5.43706C51.8388 4.85183 52.0498 4.41636 52.4787 4.13065C52.938 3.81706 53.7255 3.66003 54.8407 3.66003C56.8563 3.66003 57.8641 4.3294 57.8641 5.66815H57.0291C57.0291 4.66503 56.2807 4.16394 54.7842 4.16394C54.0335 4.16394 53.4846 4.26472 53.1375 4.46862C52.8089 4.68425 52.6453 5.00065 52.6453 5.41784C52.6453 5.85378 52.8562 6.16081 53.2781 6.33894C53.5031 6.44206 54.1641 6.58503 55.2609 6.76784C56.2922 6.92253 56.9883 7.103 57.3469 7.3069C57.839 7.56003 58.0851 7.99831 58.0851 8.6194H58.0828ZM64.8094 9.27003C64.5 9.51776 64.1503 9.70362 63.761 9.82784C63.3717 9.95206 62.9353 10.0137 62.4523 10.0137C61.4669 10.0137 60.671 9.74815 60.063 9.21729C59.4551 8.68644 59.152 7.97886 59.152 7.09456C59.152 6.173 59.4532 5.45487 60.056 4.94019C60.6588 4.4255 61.4576 4.16839 62.452 4.16839C63.4605 4.16839 64.2534 4.43745 64.8305 4.97534C65.1351 5.23784 65.3601 5.54394 65.5059 5.89479C65.6517 6.24565 65.7239 6.64573 65.7239 7.09479C65.7239 8.01167 65.4187 8.73683 64.8089 9.26979M65.2491 9.70386C65.6803 9.39964 65.9995 9.0312 66.206 8.59808C66.4125 8.16495 66.5158 7.66526 66.5158 7.09855C66.5158 6.08253 66.1783 5.27042 65.5033 4.65448C65.1424 4.31745 64.7065 4.0669 64.1955 3.90308C63.6846 3.73925 63.101 3.65698 62.4448 3.65698C61.1698 3.65698 60.1713 3.96636 59.4448 4.58394C58.7182 5.20151 58.3549 6.03987 58.3549 7.09808C58.3549 8.12792 58.7215 8.95901 59.4548 9.59089C60.1882 10.2228 61.1899 10.5389 62.4595 10.5389C62.9564 10.5389 63.3895 10.5054 63.7596 10.4382C64.1297 10.3709 64.444 10.2678 64.7018 10.1288L65.9248 10.9765L66.4357 10.5073L65.2514 9.70409L65.2491 9.70386ZM72.7139 10.3735H67.0547V3.82034L67.8323 3.80628V9.82433H72.7186L72.7115 10.3714L72.7139 10.3735Z" fill="#367FAF"/>
<path d="M11.3056 9.27352C11.3843 8.71805 11.3606 8.63648 11.8488 8.72648L11.9731 8.73586C12.3485 8.75039 12.8395 8.68476 13.1281 8.57109C13.7492 8.32687 14.1171 7.91906 13.5049 8.02617C12.1081 8.27039 12.012 7.86914 12.012 7.86914C13.4869 6.01406 14.1035 3.65906 13.5715 3.0825C12.1172 1.51055 9.60705 2.25398 9.56252 2.27344L9.54916 2.27578C9.27306 2.22726 8.96416 2.19844 8.61728 2.19375C7.98517 2.18484 7.50564 2.33437 7.14166 2.56805C7.14166 2.56805 2.659 1.00242 2.8676 4.5368C2.91213 5.28867 4.13908 10.2258 5.60228 8.73445C6.13713 8.18906 6.65416 7.72805 6.65416 7.72805C6.92377 7.87903 7.23242 7.94581 7.54033 7.91976L7.56517 7.90172C7.55744 7.96969 7.56049 8.03531 7.57525 8.11406C7.19838 8.47101 7.309 8.53359 6.55525 8.66531C5.79283 8.79844 6.24072 9.03562 6.53322 9.09773C6.88783 9.17273 7.70814 9.27937 8.26244 8.62195L8.24041 8.69695C8.38806 8.79726 8.37822 9.41766 8.39931 9.86109C8.42041 10.3045 8.45556 10.7182 8.56197 10.9622C8.66838 11.2062 8.79447 11.8341 9.78494 11.6545C10.6128 11.5041 11.2458 11.2877 11.3037 9.27445" fill="#231F20"/>
<path d="M11.3056 9.27352C11.3843 8.71805 11.3606 8.63648 11.8488 8.72648L11.9731 8.73586C12.3485 8.75039 12.8395 8.68476 13.1281 8.57109C13.7492 8.32687 14.1171 7.91906 13.5049 8.02617C12.1081 8.27039 12.012 7.86914 12.012 7.86914C13.4869 6.01406 14.1035 3.65906 13.5715 3.0825C12.1172 1.51055 9.60705 2.25398 9.56252 2.27344L9.54916 2.27578C9.27306 2.22726 8.96416 2.19844 8.61728 2.19375C7.98517 2.18484 7.50564 2.33437 7.14166 2.56805C7.14166 2.56805 2.659 1.00242 2.8676 4.5368C2.91213 5.28867 4.13908 10.2258 5.60228 8.73445C6.13713 8.18906 6.65416 7.72805 6.65416 7.72805C6.92377 7.87903 7.23242 7.94581 7.54033 7.91976L7.56517 7.90172C7.55744 7.96969 7.56049 8.03531 7.57525 8.11406C7.19838 8.47101 7.309 8.53359 6.55525 8.66531C5.79283 8.79844 6.24072 9.03562 6.53322 9.09773C6.88783 9.17273 7.70814 9.27937 8.26244 8.62195L8.24041 8.69695C8.38806 8.79726 8.37822 9.41766 8.39931 9.86109C8.42041 10.3045 8.45556 10.7182 8.56197 10.9622C8.66838 11.2062 8.79447 11.8341 9.78494 11.6545C10.6128 11.5041 11.2458 11.2877 11.3037 9.27445" stroke="#231F20" stroke-width="4.108"/>
<path d="M13.5047 8.02593C12.1078 8.27015 12.0117 7.8689 12.0117 7.8689C13.4866 6.01358 14.1033 3.65858 13.5712 3.08226C12.1195 1.5103 9.60703 2.25397 9.5625 2.27343L9.5489 2.27577C9.27281 2.22726 8.9639 2.19843 8.61679 2.19374C7.98468 2.18507 7.50515 2.33436 7.1414 2.56804C7.1414 2.56804 2.65851 1.00241 2.86711 4.53679C2.91164 5.28866 4.13836 10.226 5.60179 8.73444C6.13664 8.18905 6.65343 7.72804 6.65343 7.72804C6.92305 7.87902 7.2317 7.9458 7.53961 7.91976L7.56468 7.90171C7.55695 7.96968 7.56047 8.0353 7.57476 8.11405C7.19789 8.471 7.30851 8.53358 6.55523 8.6653C5.79258 8.79843 6.2407 9.03561 6.5332 9.09772C6.88781 9.17272 7.70812 9.27936 8.26242 8.62194L8.24039 8.69694C8.38804 8.79725 8.49187 9.34921 8.47476 9.85007C8.45765 10.3509 8.4457 10.6938 8.56218 10.9624C8.67867 11.231 8.79468 11.8343 9.78562 11.6548C10.6134 11.5043 11.0426 11.1148 11.1021 10.4646C11.1443 10.0024 11.2404 10.0708 11.2462 9.65765L11.3231 9.46218C11.4117 8.83569 11.3372 8.63366 11.8472 8.72765L11.9714 8.73702C12.3469 8.75155 12.8381 8.68593 13.1264 8.57226C13.7475 8.32804 14.1155 7.92022 13.5033 8.02733L13.5047 8.02593Z" fill="#417BA2"/>
<path d="M8.32454 8.38529C8.2861 9.55083 8.33391 10.7248 8.46868 11.0103C8.60344 11.2958 8.89149 11.8505 9.88243 11.6705C10.7102 11.5201 11.0114 11.229 11.142 10.5863C11.2357 10.1136 11.4239 8.80036 11.4476 8.53154M7.13673 2.54138C7.13673 2.54138 2.64844 0.987474 2.85938 4.52349C2.90626 5.27536 4.13063 10.2127 5.59454 8.7188C6.12938 8.17341 6.6129 7.74568 6.6129 7.74568M9.56251 2.25779C9.40712 2.29904 12.0579 1.43654 13.5642 3.06802C14.0963 3.64458 13.4799 5.99958 12.0047 7.85489" stroke="white" stroke-width="1.369" stroke-linecap="round" stroke-linejoin="round"/>
<path d="M12.0023 7.85467C12.0023 7.85467 12.0961 8.25545 13.4953 8.01124C14.1075 7.90413 13.7391 8.31194 13.118 8.55639C12.6084 8.75678 11.4661 8.80811 11.4476 8.53131C11.3995 7.81647 12.0487 8.03374 12.0019 7.85467C11.9597 7.69342 11.6691 7.53522 11.4769 7.14053C11.3093 6.796 9.17765 4.15413 12.068 4.54647C12.1739 4.52772 11.314 2.21584 8.60859 2.17834C5.9032 2.14084 5.99296 4.99788 5.99296 4.99788" stroke="white" stroke-width="1.369" stroke-linecap="round" stroke-linejoin="bevel"/>
<path d="M7.5675 8.09914C7.19015 8.4561 7.30125 8.51867 6.5475 8.65039C5.78484 8.78399 6.23297 9.02071 6.52547 9.08281C6.88008 9.15781 7.70039 9.26446 8.25469 8.60657C8.42344 8.40617 8.25375 8.08625 8.02195 8.00516C7.90992 7.96578 7.76015 7.91657 7.56726 8.09891L7.5675 8.09914Z" stroke="white" stroke-width="1.369" stroke-linejoin="round"/>
<path d="M7.54291 8.09305C7.50494 7.88305 7.62424 7.63367 7.75221 7.34117C7.9444 6.90289 8.38783 6.46414 8.03346 5.07313C7.76908 4.03649 5.9951 4.8575 5.9944 4.99813C5.99369 5.13875 6.07455 5.71063 5.96463 6.37625C5.82119 7.24531 6.6169 7.98008 7.53307 7.90508" stroke="white" stroke-width="1.369" stroke-linecap="round" stroke-linejoin="round"/>
<path d="M7.12076 4.97654C7.11279 5.02458 7.22459 5.15232 7.37014 5.16966C7.51568 5.187 7.63967 5.08669 7.64787 5.03888C7.65607 4.99107 7.54428 4.9381 7.3985 4.92076C7.25272 4.90341 7.1285 4.92872 7.12076 4.97654Z" fill="white" stroke="white" stroke-width="0.456"/>
<path d="M11.5483 4.87876C11.5563 4.92681 11.4447 5.05454 11.2989 5.07189C11.1532 5.08923 11.0289 4.98892 11.021 4.94064C11.013 4.89236 11.1248 4.83986 11.2703 4.82251C11.4159 4.80517 11.5399 4.83025 11.5481 4.87829L11.5483 4.87876Z" fill="white" stroke="white" stroke-width="0.228"/>
<path d="M12.0687 4.54639C12.0926 4.92303 11.973 5.1792 11.9578 5.58045C11.9355 6.16311 12.2855 6.82967 11.7581 7.49764" stroke="white" stroke-width="1.369" stroke-linecap="round" stroke-linejoin="round"/>
</svg>

