<svg width="60" height="37" viewBox="0 0 60 37" fill="none" xmlns="http://www.w3.org/2000/svg">
<path fill-rule="evenodd" clip-rule="evenodd" d="M38.1105 22.3186H36.5445V16.5781H38.1105V22.3186ZM37.3305 14.3296C36.762 14.3296 36.4785 14.5846 36.4785 15.0946C36.4785 15.6076 36.762 15.8641 37.3305 15.8641C37.614 15.8641 37.827 15.7966 37.9695 15.6616C38.112 15.5266 38.1825 15.3376 38.1825 15.0946C38.1825 14.5846 37.8975 14.3296 37.3305 14.3296ZM57.3555 19.6786L57.9615 19.6576V20.1301C57.9615 20.4766 57.852 20.7526 57.636 20.9626C57.4185 21.1711 57.129 21.2761 56.766 21.2761C56.259 21.2761 56.0055 21.0556 56.0055 20.6131C56.0055 20.3056 56.1165 20.0761 56.34 19.9246C56.562 19.7746 56.901 19.6936 57.3555 19.6786ZM58.122 21.5371L58.425 22.3171H59.5185V18.4921C59.5185 17.8081 59.313 17.2981 58.902 16.9621C58.491 16.6261 57.9 16.4581 57.1305 16.4581C56.3265 16.4581 55.593 16.6306 54.933 16.9771L55.452 18.0346C56.0715 17.7571 56.61 17.6191 57.069 17.6191C57.6645 17.6191 57.963 17.9101 57.963 18.4921V18.7441L56.967 18.7756C56.1075 18.8071 55.4655 18.9661 55.0395 19.2556C54.6135 19.5451 54.4005 19.9936 54.4005 20.6026C54.4005 21.1846 54.5595 21.6331 54.876 21.9481C55.1925 22.2631 55.626 22.4206 56.178 22.4206C56.6265 22.4206 56.9895 22.3561 57.2685 22.2286C57.5475 22.0996 57.819 21.8701 58.083 21.5386H58.122V21.5371ZM48.261 22.3186H49.827V19.4386C49.827 18.8431 49.9215 18.4081 50.112 18.1351C50.3025 17.8621 50.589 17.7241 50.9715 17.7241C51.27 17.7241 51.4875 17.8276 51.627 18.0346C51.765 18.2416 51.8355 18.5521 51.8355 18.9661V22.3186H53.406V18.5761C53.406 17.8396 53.2395 17.3056 52.905 16.9711C52.572 16.6381 52.0785 16.4701 51.429 16.4701C51.0525 16.4701 50.715 16.5436 50.415 16.6906C50.115 16.8376 49.8885 17.0446 49.734 17.3116H49.596C49.2915 16.7506 48.7095 16.4701 47.85 16.4701C47.4735 16.4701 47.139 16.5451 46.848 16.6936C46.557 16.8421 46.335 17.0491 46.1805 17.3116H46.0935L45.8835 16.5781H44.6865V22.3186H46.2525V19.6186C46.2525 18.9436 46.3425 18.4606 46.524 18.1651C46.7055 17.8711 46.9965 17.7241 47.397 17.7241C47.6955 17.7241 47.913 17.8276 48.0525 18.0346C48.1905 18.2416 48.261 18.5521 48.261 18.9661V22.3186ZM43.623 20.6131C43.623 21.2026 43.419 21.6496 43.0095 21.9586C42.6 22.2661 41.988 22.4206 41.1735 22.4206C40.7565 22.4206 40.3995 22.3921 40.1055 22.3351C39.8115 22.2781 39.5355 22.1956 39.279 22.0861V20.7916C39.57 20.9281 39.897 21.0436 40.263 21.1351C40.6275 21.2281 40.9485 21.2731 41.226 21.2731C41.7945 21.2731 42.078 21.1096 42.078 20.7811C42.078 20.6581 42.0405 20.5576 41.9655 20.4811C41.8905 20.4046 41.76 20.3176 41.5755 20.2186C41.391 20.1211 41.1435 20.0071 40.836 19.8766C40.395 19.6921 40.0695 19.5211 39.8625 19.3636C39.6555 19.2061 39.504 19.0261 39.411 18.8221C39.3165 18.6181 39.27 18.3676 39.27 18.0706C39.27 17.5606 39.468 17.1661 39.8625 16.8871C40.257 16.6081 40.818 16.4686 41.544 16.4686C42.2355 16.4686 42.9075 16.6186 43.5615 16.9201L43.089 18.0496C42.801 17.9266 42.5325 17.8261 42.2835 17.7466C42.033 17.6686 41.778 17.6281 41.5185 17.6281C41.0565 17.6281 40.8255 17.7526 40.8255 18.0031C40.8255 18.1441 40.9005 18.2656 41.049 18.3676C41.1975 18.4696 41.5245 18.6226 42.027 18.8251C42.4755 19.0066 42.804 19.1761 43.0125 19.3336C43.221 19.4911 43.3755 19.6726 43.4745 19.8781C43.5735 20.0851 43.623 20.3296 43.623 20.6131ZM35.184 16.4701C35.397 16.4701 35.5725 16.4851 35.7135 16.5166L35.595 17.9851C35.469 17.9506 35.3145 17.9341 35.133 17.9341C34.6335 17.9341 34.2435 18.0631 33.9645 18.3196C33.6855 18.5761 33.546 18.9361 33.546 19.3981V22.3201H31.98V16.5796H33.1665L33.3975 17.5441H33.474C33.6525 17.2231 33.8925 16.9636 34.1955 16.7656C34.4985 16.5691 34.8285 16.4701 35.184 16.4701ZM27.8955 18.3436H27.372V16.1161H28.0965C28.5315 16.1161 28.851 16.2046 29.0535 16.3831C29.2575 16.5616 29.3595 16.8361 29.3595 17.2096C29.3595 17.5786 29.238 17.8606 28.995 18.0541C28.7505 18.2476 28.3845 18.3436 27.8955 18.3436ZM30.2085 19.0066C30.714 18.5791 30.966 17.9611 30.966 17.1526C30.966 16.3756 30.729 15.7906 30.255 15.3991C29.781 15.0076 29.0895 14.8111 28.1775 14.8111H25.7805V22.3171H27.372V19.6471H28.0545C28.986 19.6486 29.703 19.4341 30.2085 19.0066Z" fill="#CCCCCC" fill-opacity="0.97"/>
<path fill-rule="evenodd" clip-rule="evenodd" d="M19.5735 24.4515L11.592 7.50453C11.3925 7.08153 10.974 6.80103 10.5015 6.77553C10.0155 6.74703 9.58053 6.98103 9.33603 7.38003L0.681029 21.399C0.412529 21.8355 0.418529 22.374 0.696029 22.806L4.92753 29.3595C5.17953 29.751 5.61603 29.9775 6.07053 29.9775C6.19953 29.9775 6.32853 29.9595 6.45603 29.922L18.738 26.289C19.1145 26.178 19.422 25.911 19.5825 25.5585C19.7415 25.206 19.7385 24.8025 19.5735 24.4515ZM17.7855 25.179L7.36653 28.26C7.04853 28.3545 6.74253 28.0785 6.81003 27.7575L10.5315 9.93003C10.6005 9.59703 11.0625 9.54303 11.208 9.85203L18.1005 24.489C18.231 24.765 18.0825 25.0905 17.7855 25.179Z" fill="#CCCCCC" fill-opacity="0.97"/>
</svg>

