<svg width="45" height="45" viewBox="0 0 45 45" fill="none" xmlns="http://www.w3.org/2000/svg">
<path d="M18.0848 1.87512C14.8261 1.87512 12.1873 4.51387 12.1873 7.7726V11.237H21.0336C21.8379 11.237 22.4999 12.4145 22.4999 13.2189H7.77247C4.51374 13.2189 1.875 15.8576 1.875 19.1164V26.915C1.875 30.1738 4.51374 32.8125 7.77247 32.8125H10.2056V27.2857C10.2056 24.0269 12.8282 21.3882 16.087 21.3882H26.915C30.1738 21.3882 32.8125 18.7655 32.8125 15.5068V7.77247C32.8125 4.51374 30.1738 1.875 26.915 1.875L18.0848 1.87512ZM16.6024 5.19449C17.4274 5.19449 18.0848 5.44393 18.0848 6.66079C18.0848 7.87766 17.4274 8.49768 16.6024 8.49768C15.798 8.49768 15.1361 7.87766 15.1361 6.66079C15.1361 5.44393 15.798 5.19449 16.6024 5.19449Z" fill="#3C78AA"/>
<path d="M34.7904 12.1875V17.7144C34.7904 20.9731 32.1719 23.6119 28.9131 23.6119H18.085C14.8263 23.6119 12.1875 26.2304 12.1875 29.4892V37.2236C12.1868 38.7883 12.8078 40.2891 13.9138 41.3959C15.0199 42.5027 16.5203 43.1247 18.085 43.125H26.915C28.4797 43.1247 29.9801 42.5027 31.0862 41.3959C32.1922 40.2891 32.8132 38.7883 32.8125 37.2236V33.7592H23.9623C23.1579 33.7592 22.5 32.5857 22.5 31.7813H37.2275C38.7922 31.781 40.2926 31.159 41.3987 30.0522C42.5047 28.9454 43.1257 27.4446 43.125 25.8799V18.0851C43.1243 14.8282 40.4843 12.1882 37.2275 12.1875L34.7904 12.1875ZM14.9106 21.497L14.9026 21.5051C14.9273 21.5001 14.9543 21.5017 14.9791 21.497H14.9106ZM28.3975 36.5025C29.2019 36.5025 29.8638 37.1225 29.8638 38.3394C29.8626 39.1481 29.2062 39.8028 28.3975 39.8017C27.5725 39.8017 26.9151 39.5563 26.9151 38.3394C26.9151 37.1225 27.5725 36.5025 28.3975 36.5025Z" fill="#FDD835"/>
</svg>

