<svg width="48" height="48" viewBox="0 0 48 48" fill="none" xmlns="http://www.w3.org/2000/svg">
<path d="M24 20.4712C26.1079 20.4712 27.827 22.2618 27.827 24.5C27.827 26.6316 26.1079 28.4435 24 28.4435C21.8921 28.4435 20.173 26.6316 20.173 24.5C20.173 22.2618 21.8921 20.4712 24 20.4712ZM14.5247 41.5531C15.814 42.3631 18.6381 41.1268 21.8921 37.9293C20.8279 36.6716 19.7842 35.3074 18.8019 33.8792C17.1237 33.7087 15.466 33.4529 13.8902 33.1118C12.8465 37.6735 13.2353 40.807 14.5247 41.5531ZM15.9777 29.3175L15.3842 28.2304C15.1591 28.8485 14.934 29.4667 14.7907 30.0636C15.3433 30.1915 15.9572 30.298 16.5916 30.4046L15.9777 29.3175ZM29.3619 27.6975L31.0195 24.5L29.3619 21.3025C28.7479 20.1728 28.093 19.1709 27.4995 18.169C26.3944 18.1051 25.2279 18.1051 24 18.1051C22.7721 18.1051 21.6056 18.1051 20.5005 18.169C19.907 19.1709 19.2521 20.1728 18.6381 21.3025L16.9805 24.5L18.6381 27.6975C19.2521 28.8272 19.907 29.8291 20.5005 30.831C21.6056 30.8949 22.7721 30.8949 24 30.8949C25.2279 30.8949 26.3944 30.8949 27.4995 30.831C28.093 29.8291 28.7479 28.8272 29.3619 27.6975ZM24 13.3729C23.6112 13.8418 23.2019 14.3321 22.7926 14.9076H24H25.2074C24.7981 14.3321 24.3888 13.8418 24 13.3729ZM24 35.6271C24.3888 35.1582 24.7981 34.6679 25.2074 34.0924H24H22.7926C23.2019 34.6679 23.6112 35.1582 24 35.6271ZM33.4549 7.44692C32.186 6.6369 29.3619 7.87325 26.1079 11.0707C27.1721 12.3284 28.2158 13.6926 29.1981 15.1208C30.8763 15.2913 32.534 15.5471 34.1098 15.8882C35.1535 11.3265 34.7647 8.193 33.4549 7.44692ZM32.0223 19.6825L32.6158 20.7696C32.8409 20.1515 33.066 19.5333 33.2093 18.9364C32.6567 18.8085 32.0428 18.702 31.4084 18.5954L32.0223 19.6825ZM34.9898 4.65448C37.9981 6.44506 38.3256 11.156 37.0567 16.6556C42.2549 18.2543 46 20.8975 46 24.5C46 28.1025 42.2549 30.7457 37.0567 32.3444C38.3256 37.844 37.9981 42.5549 34.9898 44.3455C32.0019 46.1361 27.9293 44.0897 24 40.1888C20.0707 44.0897 15.9981 46.1361 12.9898 44.3455C10.0019 42.5549 9.67442 37.844 10.9433 32.3444C5.74512 30.7457 2 28.1025 2 24.5C2 20.8975 5.74512 18.2543 10.9433 16.6556C9.67442 11.156 10.0019 6.44506 12.9898 4.65448C15.9981 2.86391 20.0707 4.91028 24 8.81117C27.9293 4.91028 32.0019 2.86391 34.9898 4.65448ZM34.3963 24.5C35.0921 26.0987 35.706 27.6975 36.2177 29.3175C40.5154 27.9746 42.9302 26.0561 42.9302 24.5C42.9302 22.9439 40.5154 21.0254 36.2177 19.6825C35.706 21.3025 35.0921 22.9013 34.3963 24.5ZM13.6037 24.5C12.9079 22.9013 12.294 21.3025 11.7823 19.6825C7.48465 21.0254 5.06977 22.9439 5.06977 24.5C5.06977 26.0561 7.48465 27.9746 11.7823 29.3175C12.294 27.6975 12.9079 26.0987 13.6037 24.5ZM32.0223 29.3175L31.4084 30.4046C32.0428 30.298 32.6567 30.1915 33.2093 30.0636C33.066 29.4667 32.8409 28.8485 32.6158 28.2304L32.0223 29.3175ZM26.1079 37.9293C29.3619 41.1268 32.186 42.3631 33.4549 41.5531C34.7647 40.807 35.1535 37.6735 34.1098 33.1118C32.534 33.4529 30.8763 33.7087 29.1981 33.8792C28.2158 35.3074 27.1721 36.6716 26.1079 37.9293ZM15.9777 19.6825L16.5916 18.5954C15.9572 18.702 15.3433 18.8085 14.7907 18.9364C14.934 19.5333 15.1591 20.1515 15.3842 20.7696L15.9777 19.6825ZM21.8921 11.0707C18.6381 7.87325 15.814 6.6369 14.5247 7.44692C13.2353 8.193 12.8465 11.3265 13.8902 15.8882C15.466 15.5471 17.1237 15.2913 18.8019 15.1208C19.7842 13.6926 20.8279 12.3284 21.8921 11.0707Z" fill="#00BCD4"/>
</svg>

