<svg width="48" height="48" viewBox="0 0 48 48" fill="none" xmlns="http://www.w3.org/2000/svg">
<path d="M35.7405 12.3646C37.0174 12.6616 38.1777 13.3302 39.075 14.2861C39.5693 14.8033 39.9985 15.3791 40.353 16.0006C40.3695 16.0681 38.052 17.6251 36.6465 18.4936C36.5955 18.5281 36.393 18.3076 36.1635 17.9686C35.9068 17.5272 35.5423 17.1581 35.1043 16.8958C34.6662 16.6335 34.1688 16.4865 33.6585 16.4686C32.043 16.3576 31.002 17.2036 31.0095 18.6181C30.9956 18.9656 31.0748 19.3105 31.239 19.6171C31.5945 20.3521 32.2545 20.7931 34.3275 21.6916C38.1435 23.3341 39.7815 24.4171 40.7925 25.9561C41.364 26.9284 41.7159 28.014 41.8237 29.1368C41.9315 30.2595 41.7925 31.3922 41.4165 32.4556C40.8997 33.6217 40.0802 34.6283 39.0431 35.3708C38.006 36.1133 36.789 36.5647 35.5185 36.6781C34.168 36.833 32.8035 36.8189 31.4565 36.6361C29.3933 36.297 27.4926 35.3068 26.0325 33.8101C25.4808 33.1888 25.0138 32.4973 24.6435 31.7536C24.7992 31.6377 24.9631 31.5335 25.134 31.4416C25.371 31.3066 26.268 30.7906 27.114 30.3001L28.65 29.4001L28.971 29.8681C29.5117 30.6412 30.1999 31.2998 30.996 31.8061C31.8001 32.2471 32.7108 32.4561 33.6267 32.4097C34.5426 32.3634 35.4276 32.0635 36.183 31.5436C36.5727 31.1637 36.8163 30.6589 36.8711 30.1176C36.926 29.5762 36.7886 29.0328 36.483 28.5826C36.069 27.9901 35.223 27.4921 32.8185 26.4496C30.9331 25.8138 29.2158 24.76 27.795 23.3671C27.1184 22.596 26.6187 21.6862 26.331 20.7016C26.1183 19.5798 26.0869 18.4312 26.238 17.2996C26.5203 15.9973 27.1961 14.8133 28.1738 13.908C29.1515 13.0028 30.3839 12.4199 31.704 12.2386C33.0482 12.0779 34.4089 12.1204 35.7405 12.3646ZM23.226 14.5891L23.2425 16.7701H16.2975V36.4921H11.4V16.7746H4.45501V14.6326C4.43654 13.899 4.45657 13.165 4.51501 12.4336C4.54051 12.3991 8.76301 12.3826 13.8825 12.3916L23.199 12.4171L23.226 14.5891Z" fill="#007ACC"/>
</svg>

